<mxfile host="app.diagrams.net" agent="Mozilla/5.0 (Windows NT 10.0; Win64; x64) AppleWebKit/537.36 (KHTML, like Gecko) Chrome/129.0.0.0 Safari/537.36" version="24.7.17">
  <diagram name="PÃ¡gina-1" id="t09bt21qWstYN3sMK-mx">
    <mxGraphModel dx="943" dy="745" grid="0" gridSize="10" guides="1" tooltips="1" connect="1" arrows="1" fold="1" page="1" pageScale="1" pageWidth="1169" pageHeight="827" math="0" shadow="0">
      <root>
        <mxCell id="0" />
        <mxCell id="1" parent="0" />
        <mxCell id="HlJCmr9RVTCrGqRUd0Zp-16" value="CallCenter_Prod&lt;span style=&quot;color: rgba(0, 0, 0, 0); font-family: monospace; font-size: 0px; text-wrap: nowrap;&quot;&gt;%3CmxGraphModel%3E%3Croot%3E%3CmxCell%20id%3D%220%22%2F%3E%3CmxCell%20id%3D%221%22%20parent%3D%220%22%2F%3E%3CmxCell%20id%3D%222%22%20style%3D%22edgeStyle%3DorthogonalEdgeStyle%3Brounded%3D0%3BorthogonalLoop%3D1%3BjettySize%3Dauto%3Bhtml%3D1%3BexitX%3D1%3BexitY%3D0.75%3BexitDx%3D0%3BexitDy%3D0%3BexitPerimeter%3D0%3B%22%20edge%3D%221%22%20parent%3D%221%22%3E%3CmxGeometry%20relative%3D%221%22%20as%3D%22geometry%22%3E%3CmxPoint%20x%3D%22360%22%20y%3D%22229%22%20as%3D%22sourcePoint%22%2F%3E%3CmxPoint%20x%3D%22418%22%20y%3D%22163%22%20as%3D%22targetPoint%22%2F%3E%3C%2FmxGeometry%3E%3C%2FmxCell%3E%3C%2Froot%3E%3C%2FmxGraphModel%&lt;/span&gt;" style="points=[[0,0],[0.25,0],[0.5,0],[0.75,0],[1,0],[1,0.25],[1,0.5],[1,0.75],[1,1],[0.75,1],[0.5,1],[0.25,1],[0,1],[0,0.75],[0,0.5],[0,0.25]];outlineConnect=0;gradientColor=none;html=1;whiteSpace=wrap;fontSize=12;fontStyle=0;container=1;pointerEvents=0;collapsible=0;recursiveResize=0;shape=mxgraph.aws4.group;grIcon=mxgraph.aws4.group_account;strokeColor=#CD2264;fillColor=none;verticalAlign=top;align=left;spacingLeft=30;fontColor=#CD2264;dashed=0;" parent="1" vertex="1">
          <mxGeometry x="61" y="97" width="541" height="324" as="geometry" />
        </mxCell>
        <mxCell id="HlJCmr9RVTCrGqRUd0Zp-13" value="" style="whiteSpace=wrap;html=1;aspect=fixed;" parent="HlJCmr9RVTCrGqRUd0Zp-16" vertex="1">
          <mxGeometry x="227" y="15.25" width="299" height="299" as="geometry" />
        </mxCell>
        <mxCell id="VUkKsYSUKkYah6STu2GY-5" style="edgeStyle=orthogonalEdgeStyle;rounded=0;orthogonalLoop=1;jettySize=auto;html=1;" edge="1" parent="HlJCmr9RVTCrGqRUd0Zp-16" source="HlJCmr9RVTCrGqRUd0Zp-6" target="VUkKsYSUKkYah6STu2GY-3">
          <mxGeometry relative="1" as="geometry" />
        </mxCell>
        <mxCell id="HlJCmr9RVTCrGqRUd0Zp-6" value="API Genesys Cloud&#xa;" style="shape=image;verticalLabelPosition=bottom;labelBackgroundColor=default;verticalAlign=top;aspect=fixed;imageAspect=0;image=data:image/png,iVBORw0KGgoAAAANSUhEUgAAAIEAAABrCAIAAADfHXbjAAAfK0lEQVR4Ae19eVhUV7bv/bNfv3tfhk7fJJ10xk66k5eh053OTTrd6ZvY6dbEAVEGEZCpmGdKZgSZRQYRBAFRVFQcEMQBBwQEBRRREBlUwAGqmGoCqqjxnN/LouwSuQiIBej72N/56jt1au999l6/vdZea+21d/0b5tNcU+Df5roB8+/HPAZzPwjmMZjHYAIKqFUYkkDcj34+eu6Bf4c+hd0YEEIuA8tOUPTZ+unp4wONCn2duFGPqmIUbEV2BDZ5IdYMYcbYwEGaL/bG49ReNFTjbgukkmeL3OO29mnCQKXEnRaUHUaqHwKWw+6PMPstzN6D5aew/xi2H8PmM6z5LVa/A8uP4PoVoiyRn4arFZAIxu3bs/Lw6cCAZSHqxak8RK6B9QcweBm2f0CUNXZG49RunC/CpVN0VR1FWR4KUpHiC99/YPkLMHkDnn9G1no010KtfFaIPqadTwEGLIub9Yh3hcUHWPofcF9AIujGFfTchWwAGjUYzYNLo4ZimADrukWobPLCqtdh+By43+PwVjDMmO49E1/nGgOVAufy4fRXGP0HHL7A4Ux034FKMVXaySRoqkHocuIJo7eQ6IGeO88cEnOKwaAIeUkk3E1eQ7w9mi9NR+Fh1JD043AKOH/A8lcQZjYil1RTRfEpyDd3GEgEyIuD+Xswewu5GyDgPdH4VcpxpQTcRVjyHMJMny0Y5ggD2QAKN2HNb2DyJo7v0I+KyWjQfh1BK7H8JcTa4Hbzs2JDzBEGtUdh8zaMf4WCNH3qMyyDWw0IMsTK15AeSPbds5DmAgNeG3wXYMnPkOKmf9Veo8aVMjj9mYyJkr1QPwMTw6xjoFbiYCIW/gxe35G4mImkkOFQAox+iSBTyAZn4g36rXPWMRD1wO4TmL2Gsn367YmuNpZl2d4uhK/G8pexPZosDF1iWfoql5InSiKka0AE6SBpw3PngJp1DA6n4MefIWQpeu/oKKP/G6Ucpfuw+l34r8S9G2AZYojOWySmTu/C7iikeiHOjq5EZ2QGke1dXcA2XYSAD5WSnV08ZhcDxTB5gYz+EwcT9E/3MTX23kPYClj8XxzcjJrjyAxEwDJYfYwVr2DFGzB6E6bvwvQ9+jR6E8tfhemrcPgjYqxwKJltvQLl8KwhMbsYXCyG0Rtw+oKs2ZlOQxLsS4DRy7D5APafwvgtWH8G36VI5SI/FSV55Ia6cAznCnAiB3uiscEOrn+D2e9g+gbcvsE2f/bOdainbLE/QXdmF4P0tTB4DhusZlz4qhRoqcMGexi9DqNfweNbbA8nQcS/TUb18BDpSwxDMkqjhlJOBoqgGx1NOLkHMXaw/hQrX4Lz5ziSThPGDLuhZhEDpQwhK8mxc3zbEwyaKRRVDOP8Ubh8jSX/TobCyl+ivICsEHZSjx4LjQZKBWqOIcIaK38Fo1fJLdjVNoWyU2jYI7LMIgb9XeQTNfglrpY+ojH6eKwYRske2H2K1b8lOoZaYskvcPLgY3OeYgiHt8D1O6x4GZFWuHn1If1KHy3V1TGLGHQ0wvG/YPwyOm/ef71WDshlpCxKB+galpLbTjEMjeqxqQbQLFpfDquPYPN75G4kjejUfix6AQdSIR/S9XmqNxo1ak4jeCU5VCItCIbJOWmqdY/ON4sYNJ6HzR9g+gqEfFLP+3lorsO5IhzNQn4K9kQhN4rMt6IMlB5AfSVJgAHhiB97qkvHjFqF3EiSIZnrSMsEcKkMi55HTizEfaO7PdV7tRKN1YiwgNm7iHMEr2OqBR8n3yxiUFdCmonZy6g9Q/pijDW8/wG7P8H6HcLG+lNYfQLrkcvuE7j9DetNkBOJ6pPovQfl8JQ6pVJgixdM38KRLJppGQ0tSi98HtujpokBQBPJ9YsIMYLpm8gKp6ACfadZxKDmGGFg/CocPoPZG1jzO3AXI9YJ2UHYm4wDKXTt34wdEUj2RLApHL6C2fuw/QTxTjhXSM7t0RbveIRgNGoUpmL5f5Llde0CGs4jzg1LX6SlIcXUUByvWipbfRIOn5Ob/fjuJ6pqvPpnBQO1CndbkbEOq96F0a9pvSzVF6f3oLWOViVpDhimjmkvmhsGcbsJ548hNwn+BuReNXkVcS6oK6OZY+LUcR3cH2DwIjifwe4PMPgFuMtodQhTFWjjVy+XoWgblvwcAUZoqh0/z3SfzjwGchmunkOYOVb8EkavYcWLOJpJ88FUkmIYHY0oyILbAiz5P3D8GsdySMGfgKAaNRqqsMERzl/A/RsketJXvXhPxX2IsKEBkZ9G6oP+0gxjIB3A2QPwWkC2UuhqOH0Jw1+gfP/jtX94CC1XiI3WfEg6T+5GmiEmcOmoRyKUWq8Sn/Xee7x3TZBbrULNKZi/RnNDe9NEDZigkvF+mkkMZIM4k0c2qsV7yAgkT3WSE2GQ5jFeSyZ71s9DUSYNbcuPsCMSvZ2TFZiB3/u7EG0Hy49x5sDkUnHK758xDJRysk7d/kYA7I6iaAlGg5O5pDh6fU1K5+MmliVXc2k+vP8Jiw+xPQIK2ePW8aT51SqaFUzexWZP0q31lGYMg4YL8PmBbP1d4aTSaK0biYDi5szewtm8abWfJUFcmg+nr7DqbRRlT6uSJyjEsmQueP8TvkvQ3qgvk21mMOhqR5wrGUfpARSqNVp2Z63D4v+NmDXTXcVkaSXgUBphuepNNF54AopOq2g/D4musP+SfK4q/UT2zQAGskEUZmLVr+G+CF03x+ownTdg8QbsPkbtqWnRYKTQoBgxDlj8v7DOaKrm2/Rf9nBJ6QC2B8L2fRzbRm4VfSR9Y8CyaGtCiDHZwyUHxlEKFcPY4kke7E3OJKOmnW7V09xo+mtaFxvNZ9OucIoFZUMUl2bzR+yL19ditb4xkA2gaDssfkde+P6u8fvVdgX2H1C47tFt5CiedtoZTq7p4KUQ9067jscuSMZaJjh/Qk6UvqwEvWLAsrRmG24B8w9ReuiRU5ZSjuIccr/Yf0GO/mkniYBqsPgNKh7fNT3tl8plNHRsf0/B3kP6sdT0ioFKQTR1+Ioc7l1tY2eC0d2W9CONi5Wv0ErLxROjf3mMe40G6VwY/hI7QvTuw3lkM4gPsig0f3vEU8kHskHsSyT3587oSb0RbF8XG72aHDvOX5K6OY3EsrRYb/grRJii7+40KphOkWEpedpt/ohdMU8jBoxYgGQ32HxK5rFSPnkPJb0I+hE//hzm7yIveVLYxqnwbiv5Vh0/Q1PVOL/OxCPpAHl2rT4hJIYff11ovCbpVRb18xDNgdt/k5Nu6m6yeHssfg7LnkOwIVpqR8Cbso+zn08RK4t+hrID4/VO/88YiYBc63Zf4PQ+fRnq+sNAu53G1xD+y8nzPPVlP4YhT6rThzB8EcavY7MLrlWgr4t82oyG1icnSHIp9kVT0NiRFKgUE2Qc96fpQNTZilBjePwD12omXc+YYv16xaChkpzMoWboeUyHmlqFlos0wTp9QZvRjF4n3+TuSJTmsnUlTOtlpqOR6bg+znW7GUXpWPY8/Bfj+oVxMoxb6l8P2dtNpDuIe2mxbCoBLCxLUUlm7yHSkjxgekp6xeDSadj/Gest0Teylvu4TRwUo64UO8Lht4R2ZBq/gdVvgfMpvL7B2oVYu2icy+9HePyVQh9M36Zdgn7j5Rm3oO5hkAGtqu70RW0JTUgTs++gBFmh5LM7mIJB8eP271H59YrB5ZInwkDbxkExucOqjmHfRiQ4knfM5RvY/tcjL86XWPMRsY7hy3D6+pHZHlWD1ecw+5DC8TifIcGedrdNsBuu+SI4n8NzARprSE7qKekVg4ZKEpShpgz/ifmUUWN4kPx6Aj4tFdxpwZ3m8a/OmyjdD84nFM1YV0rb+R+Vc9znzbUUxrHFGw5/wYpXYf97lO4dHwapBLs2wPAVZIVB2KMn+lM1+sMALC0ah5jAzwBt1/Q4TCbvrUqBeA6W/jsijKezq4dlSQS11CLOiZSCFT/H+UPjtP9aDa0nO/2FrT3LTmXymLzd93PoEQPQ6IhzgOtfcfnsY+imU27rRBmvX4Dj72kgH0wefxRPVPhfvwn5yPQnj+9PYXq36v/1FDRd32tF4DKs+AV2bqClJL0mvWIwKMFWP9h8jOJds+c80JKD0ZArzfg12iFbUTT9t/d3IcGO3LpRq+9XwjC0BJLuT7HD681prtJ30isGw1IcyYDtp9gWROHKs5wGRcgMIUr5fI/q4uk795tq4fQJ1VN1nDigtxO7Y7H6PXgvJN1Jf1Oxjjx6xUCjRn0FLeIHGo6Mlymbu7rmPOGNoBvJrjD7DXx/IEWeImgevw1qFVKcYfgSYm0pNHZnJIWjeXxLTq2ZWcHWKwZgyXJJcMOqd1C4dfpy+UmQ4Hcg1Qfm79O0VJQ1zdiWykIS/Y5f0ixt8hY8/hsl+/WziXq8rukXA5C3p6yQXFqBRuC1j/fGGX7Gskz3HeyMpV1QJm8h2Zui8wYfUzDWldC2TrI5XqKAzIqj+nKRjtt5fWMAoKudwtxMXqTA2yeJ8hy3vVN8KO5F8R6KrDF4AfZfUczvpRJGwGeVClLYRtxQI2KKpXVQlqEnahWtTbY3UgDO+jVkbZi8jTh32nQ+w6fyzAAGxAqHSb2z+YKMpskCdadI1cfOphjGtWpsC4fdRxSJ7fgVYu2xN4EW+Boq0dZIgey8Dtqj0FpHynRRNk3pAQYwewemr9P6ku3nsxO3MQMYAKyol/Row18jzITOJpoBXWJKkDAa8sfVV9Lab8AyWoC0+IDczm5/h68BgowRbIzAlXTSiPM3sPyAlmCd/4yN9kgLoD1bHt/e38QwpZdNP9PMYMCydNhcpC1pePHOaJ9ds3kMNTRqsqrar+NsPmmZic4IMiK6ey6Ax3fwWYjA5YiwRKon6RFXyuk0vdwYGDyP8FWzI0tnBAMiAqMhHg80JLspzh6tV+ZMKGkhYRgi6JCEhvbtJopfbzhPQqnpEnEq7dcUUgipWoXeu1j7PfliC9PHoDlDX2cMAy0M16rguxCmLyDEgLbfzNXcMJp4uklYo6b2aA9q00UoKeXYs5HcqBa/mzUzcyYxuM8NVyjky+AFEsS5GyCTzGpI1mjqT3qvUZFlZ/MJRfBVP0HQzaQvejjDDGOgheFuCzZ7wextGL8N7lIUbaUwpCHJbPv1Hu75Q98YDW00O5lL+7RWvESeu1nUqmceA4KBIb4+swcBi2h6MHufZsKsQDqnoOkS7jaTNdfXOTcXv4M87dXF5PG1+JB2Cm1Zq8e49oeQfsSXWcFA+25GQ9Nd4RaEm8HmQ1KZTN+H/Z8onCLCnNSVObmiLOG9AOYf0LEhrl/i0GYCQDc9PIJq+n08ixhoG65Ro6+TvVSMAxsRa0VrxRbvYOXzWPYSlszFZfgC1ryLsJVE/evVJIJmFwD9rqM9zuBgGYpZF/eC346OBqalGg1lqDsz29fVUqa5CrevUXiyUj771NeSbNb54FFIkco4F9ej2jOLz58aDGaxz0/bq+YxmHtE5jGYx2DuKTD3LZjng3kM5p4Cc9+CeT6Yx2DuKTD3LZjng3kM5p4Cc9+CeT6Yx2DuKTD3LZjng3kM5p4Cc9+CeT54CAOGYVQqlVo96m8rHvr9Sb+o1RqlUsk8vI1nHAzUarVIJOLx+Dw+XyyZ2gGMT9q2WS3PMIxYIuHx+TweXyIZGE2RfoHwQlVNY2OTRqO3LX+6vmk0mhs3b1VeqBaLH6LqWAy6+PziU2fSMrZFbYiPjU/KzN5Reb5KKp3sVFHde576m96+vnOVFzK27YiJS4iJS8zZvaf64qXh4fsn0DY0NPr4BWXn7FYq9XNG12h6KJXK3H37vX0DW2/cHL1g+hAGt9raYuOTzKw468KjtmZlJ6ekuXuvXW1jvyfvwNDQ/w8w8Lt7UtMzzW0c/IJC07OyU7Zs9eIGOLh67dqTp+WGS5evWNg6bt6yVaHQPwZyuSI9a7uVvXNjY9PoPxl5gMHAwEBqesbCZUaHDh+5d69TLJEIhaKO23c8uX6GJuZFx6Z7ws3okTCn92KxZGfu3hWrLHbtzbtz565IJBaJxa03boZGxCwyMCqvqKAjymceAxsH18brj8Cg4vyFFWaWSSlpY6SVQCD8frGhb2Do8PD9o1hYllUoFDx+9622dqFQpFKptKgyDDs8klRqtUwma2m9cfNW2/Dw8GiBC0ClUvf3C5pbWnk8vlz+0DleGo1GW/DGzVtisUStVrMsBgeH+vsFcrl89NhRKJVDQ0MSCZ3ixDCMQqlsa+9obmnl87t17RmNOMuiqbnF3tUzPGajQPDQxsoL1ReNzNZw/YOlUtn/xIBhmOFh+e07d5tbWvv7BSNNur+/SqlU9vUJVKoHf8HGsKxsJOlerVarBUJRc+sNfnePTCbL2rHrkRjIZLJde/OWGq26XHdlDMkA7Nl34ODhQoGQms4wTFt7R3RcgpO7t5sX14Pru31nLo9Pp6GLJZL0zOy4xOSD+QUBIetdPLl2Tm7BYRFX6xt0mgaPx0/PzKay3mtdvbhRG+K7eDztgR4ikbig6KiPX5Cb91o377Vc/+AD+QV9ff31DQ1+ges2JGwSCh9spzl4uNDRzevYiZNKlar28pXgsAhnDx9tnYmbU1tab+jeqCWHVCY7erx4tRXnSNFxHYG0N719faHh0Vz/YIFAOAYDmWy47FxlaES0qxfXxZPr5sXdtWdfVxdPS6Kq6hozK8715gf/8tbF44VFxqyPitUCI5ZItu/cbe/ioe1vXMKm0MgYjrP7+HzQ19+fkJxiaev4E2+OaSKA4WG5QnH/VJS29g4fv0BbJ7ftO3OLT53ZlJpm7eCSkpYhkUhEYnH0xkQDo9U+voFbMrYVHS9OTkkzt3GIiNnY3UNHzvX29gWHRVrZu2zJ2HbqTElmdo6ZNccvOKy3t29YLi86Xuzo5h0WFVt86szR48XrIqKtHVz25B24fedu7MakxStMWlpbteqKVCYLDo34frFhx+07P3GMB9fP3cd3f37BydMlqemZVhzniNiN9zofOk1PIBSlZWxzdve+WHt5TAcZhhkYGBQKRQzDjMZArVafLTvn4OoZsC78UMGRoydOxsQn2Tq5pW7N+gk2AGfOln3+lwX19Q26Cjtu33Fy97Z1cpdKZVKpbGfuvpVmlv4h6/MLiw4WHFkXEWNsYWNt7zI+Bp2dXT9RysHVs+P2RMccMAyTuHmLmRXnfFWNUqliGEYkFm/N2m7n5FZVc1EslkRuiLfkOJWWVwwNSbW/Jm1OdfHk1l25qtFocvfmLTcxP5BfoFAoGIaRy+WHCop+NDQuOFIkEosTklO4/sE3b7UxDKNWq2/cvBWzMTE1PbO7p6fo6PEVphYH8wukUjrO8mp9wxqOkyfXX6lUlVVUfr/YsPhUiUaj0VJz99797j6+Ddeu60hD8Pf1xcYn+fgFNjRMtMF4NAa9fX2eXH+/4NCmFsKeuiMSZ+/MtXV0O11SKpfLz5aVf/G378dg4OrF1WJwrbGJ4+Lh4xfE7+5hGEaj0dy91xkaGftIDO7evRcWGePk7q3DoL3jdnbO7o1Jm+MSk1O3Zu7M3cfv7haKRA5u3lz/IB2nazRMdc1FE0ubI0XHunt6w2Pi1gau04omAHK5fG/eAQdXz/KK8xKJhOsXtMLMUjLK5hgYGPjq238mbU6VDAwkJKfYOLiWlJZrK1epVPfudd69e0+pVDY1tzq6eoWER/X20d+Q7t67f8GPBldHBuDZsnMLfjDIyM4RiuggFZZlhUJR4/Xm0W/RYhCzMdHb9zEwqLtav3KV5d68g3LF/UmLZdmm5lYfv6DY+E19ff0TY1BaXvHPpSuPFZ/SmRpaveiR88Hdu/ciYzc6e/joMKi7Us9x8fh+8fKFBkY/GBrbu3i2tN5oaLhmbuNgYmHDcfXUXRZ2jouWG+3YtYfH44fHxPkFh/X03j/sUq5Q7D+Ub+/iUVZe0dXFs3V0W2hgxHHx0JXluHj8ffHy6LgElUpVd6V+DcfZwHi1u4/vppQttZfrZLL7h7iqVKr4TSmma+xu3LgpkUjiEpLNbewVI6Tp7u4JXh+1ZKWplb1L8PrIomPF/QLB6Nlbyw29fX1xCZu4fkFT54PjxacMjFYXHX1o/hAKRTHxST7+QV083qMwsHN2VygUR0+c/HbR0vPVF3XsOAkG3T29Cckpq2mGadGVYf6VnN19bB3dWlpvXL5y1ZLjZG7NMbGw0V3m1hxHN6/8wqKJMbjX2WXj4LrQwMjc2l5X1sTCxtnDZ0tGlnawSCSkPq5cZfnFN3//+4/LuYEhzSNyAMCx48X2Lh75BUW1dVdsnd235ezS8aJcLj9x6oytk9sXf13w3aJlRmZrjh4vHq2uABAKRSnpGY5uXlU1D4ii66nuZrQsKjp64n9iQCMgMdnLN6Czq+tRGNg6uUskksOFRQuXGdVcejD9TIKBQqE8WHDkux+WlZVXaDRj/0fM2eM+Bi2tN6wcXGI2JuoaPfpGKBJNxAc8vp2Tu4Wtg452o8tqtVL5yMwPgM/v3pm7b7U1JzY+qbeXJsChoSH/det9g8MOFRSZWXMujIwvhmGkUplO/R0akp45W+bo5mVubX+x9vJobpDLFSdPl5hYkMwco/j19fV7cf05zh49vX2jMSivqDQwXl1QdHR0PT+xeGhkLMlbHn8CDKRS6amSs98uWnau8oKu+CQYAGi41shx8XD14rZ33NaJMG15jrO7lg9kMpmzJ9eK46yTNiT0FYqe3l6FQjkxBlKpLCBk/TIjs/qGazrqq9UafnePRDLA4/Nz9+YdO3FSO+sCEAiEsfFJAevWt7ffZllWqVTm7N7j5O7t4sl191nb1UXnNA8MDu7bfyh7527dDMQwzNmyChMLm2MnTmqFlfZdJMpbWl29uCHro/j8bh1dWJYtP1e5cpVlyPqooSHpaAxutrWbWNqkpGUIRfd1YoZhys9VOrl779iVK5FIzpaVf71gUeX5CzpyNVxrtHfx4Lh4SKWy81U1y4zMMrJz5PL7dtXg4GByarq1w329SNeGB3by8LD80OHC5Sbm0XEJF6pqeHx+X19/W1v7yTMlhqbmnlz/ri5S5PcfzDc2t4qN39TSekMoEnXxeEePF8cnbb51q00slkzABxqNpvRcxQoTC/+QsKsNDUKRqLe372zpueCwyPKK83x+d3h0nJOHT9m5yn6BQCgSVVVf5AaERMcldPH4LMvS5H/xkp2zx4IfDfbsOzA80rHhYfnO3H1LV67atSevi8eTSCS3b99JScuwsneuqr6oI40WBsnAwN79h1atsUtJy2i83tTd09PVxbsw8hZDE/MrVxtYlh2NgWx4OCllC8fZ/fCRoi4er18grLtaHxoR40ZKV6NGw1y6fNnY3Do0Muba9aae3t6Ga40bkzYbGK92cPWUSmVkK0TFWtg6Fp8+09fXz+Pzj588zXHx0OpFCoWyr79fJJYolaoHGIwITeHBw4X2Lh6Obl7+IeuD1kf5BoVa2zt7+waUllfctzvEkoxtOyxsHbzWBgSFRQasC3f28ElOSevr7xeLJTHxSSHh0ToukSsUhw4Xevj4Vpyv0mg0KpVq34H8NXZONB7DowNDIxzdvALXhbd33FapVDWXLvsGhbp6cQNDI0LWR3ly/Xz8AktKy3UOtZ/AWBcevdqac6m2TidPunj8mI1JDq6e/uvC14VH+watc/bw2bZj1xhjWAtDv0CQnbOL4+z+k14bEBruGxzm6Obl6Ob1kzmiHZV1V+vtXTy3ZGQplPQPvh2370THJRA11oUHhkW4+/h6cv3PnC3VOjFFYnFaRpaZFcd7baD/uvVeXP+AkPWWdk7uPr5SqUyj0VysvezqxbVxcNEWXxsQwnF2d/Ne29TUMjAweOlyXXnF+a4u3kMYAJBKpS2tNw4eLkxITonZmJiZnVN8+kwXjz/ajyiRDNRdqd+2fWfUhoQtW7PKz1X29wtGTLnhc5Xny89V6vysarX6+vWmEydP373XyTBk4ktlsoaGa9t37o6OS0xKSTt6vLint0/bf6VS2d5x59DhI9FxiRsSNuUdzL92vUkmk+l4ViAUxiVsioyN7xzhSC1ZGYYRCIWl5ee2Zm2PjktIz9peeaFaIpHoSmmz6T4HBgbr6q5uz9kdszExaXNqfuGRG7du6XrH4/OPFB2rvnhJO2lpNCQqT54qSUrZEh2XkLt3//XrzaN9NkKR6Fjxqc2p6QnJKYVFR2+1tR8vPlV86rR2vCqVypu32vbkHYyOS8jMzqm5VFt7ue7Y8WKBQKBUqng8flNzi0gkHouBVsVWqdUKhUIulyuVSvV4nnSGIQEtl8sVSqWO5VmWVas1arVmdP81GjK4dMNWW//9sgrFmPmZZVmVWi2npFCpVMxoDy9w914nNzAkO2e3DmMdZTUaWhvRNljXHt2vY24YhtE1QEUuqQfn6zAMq1Kpx9Sg0Wi01BjXE6UeoZVipC8jFFCP7hT1SKXSNkyrZuo8TizLMgzDsuw4GIxp8dPwVSyW8Hj8HbtyvdYGVNVcUqv1v8Ayh918BjDQaDQlZ8tCI6LtnNwzs3PGGMBzSDt9vfoZwIBhmOaW1uLTJZXnq0arlfoiwZzX8wxgMOc0mukGzGMw0xSevP55DCan0UznmMdgpik8ef3zGExOo5nO8f8AVIHfh5kcK0gAAAAASUVORK5CYII=;" parent="HlJCmr9RVTCrGqRUd0Zp-16" vertex="1">
          <mxGeometry x="38" y="134.25" width="72.34" height="60" as="geometry" />
        </mxCell>
        <mxCell id="VUkKsYSUKkYah6STu2GY-3" value="Step Functions" style="points=[[0,0],[0.25,0],[0.5,0],[0.75,0],[1,0],[1,0.25],[1,0.5],[1,0.75],[1,1],[0.75,1],[0.5,1],[0.25,1],[0,1],[0,0.75],[0,0.5],[0,0.25]];outlineConnect=0;gradientColor=none;html=1;whiteSpace=wrap;fontSize=12;fontStyle=0;container=1;pointerEvents=0;collapsible=0;recursiveResize=0;shape=mxgraph.aws4.group;grIcon=mxgraph.aws4.group_aws_step_functions_workflow;strokeColor=#CD2264;fillColor=none;verticalAlign=top;align=left;spacingLeft=30;fontColor=#CD2264;dashed=0;" vertex="1" parent="HlJCmr9RVTCrGqRUd0Zp-16">
          <mxGeometry x="312" y="87" width="150" height="211" as="geometry" />
        </mxCell>
        <mxCell id="HlJCmr9RVTCrGqRUd0Zp-2" value="Lambdas Extraccion&amp;nbsp;" style="outlineConnect=0;dashed=0;verticalLabelPosition=bottom;verticalAlign=top;align=center;html=1;shape=mxgraph.aws3.lambda;fillColor=#F58534;gradientColor=none;" parent="VUkKsYSUKkYah6STu2GY-3" vertex="1">
          <mxGeometry x="72" y="74" width="36" height="37" as="geometry" />
        </mxCell>
        <mxCell id="HlJCmr9RVTCrGqRUd0Zp-12" value="Event Bridge&lt;div&gt;Diario&lt;/div&gt;" style="sketch=0;points=[[0,0,0],[0.25,0,0],[0.5,0,0],[0.75,0,0],[1,0,0],[0,1,0],[0.25,1,0],[0.5,1,0],[0.75,1,0],[1,1,0],[0,0.25,0],[0,0.5,0],[0,0.75,0],[1,0.25,0],[1,0.5,0],[1,0.75,0]];outlineConnect=0;fontColor=#232F3E;fillColor=#E7157B;strokeColor=#ffffff;dashed=0;verticalLabelPosition=bottom;verticalAlign=top;align=center;html=1;fontSize=12;fontStyle=0;aspect=fixed;shape=mxgraph.aws4.resourceIcon;resIcon=mxgraph.aws4.eventbridge;" parent="HlJCmr9RVTCrGqRUd0Zp-16" vertex="1">
          <mxGeometry x="243" y="22" width="38" height="38" as="geometry" />
        </mxCell>
        <mxCell id="HlJCmr9RVTCrGqRUd0Zp-17" value="BECHS" style="points=[[0,0],[0.25,0],[0.5,0],[0.75,0],[1,0],[1,0.25],[1,0.5],[1,0.75],[1,1],[0.75,1],[0.5,1],[0.25,1],[0,1],[0,0.75],[0,0.5],[0,0.25]];outlineConnect=0;gradientColor=none;html=1;whiteSpace=wrap;fontSize=12;fontStyle=0;container=1;pointerEvents=0;collapsible=0;recursiveResize=0;shape=mxgraph.aws4.group;grIcon=mxgraph.aws4.group_account;strokeColor=#CD2264;fillColor=none;verticalAlign=top;align=left;spacingLeft=30;fontColor=#CD2264;dashed=0;" parent="1" vertex="1">
          <mxGeometry x="653" y="99" width="168" height="322" as="geometry" />
        </mxCell>
        <mxCell id="HlJCmr9RVTCrGqRUd0Zp-4" value="S3" style="sketch=0;points=[[0,0,0],[0.25,0,0],[0.5,0,0],[0.75,0,0],[1,0,0],[0,1,0],[0.25,1,0],[0.5,1,0],[0.75,1,0],[1,1,0],[0,0.25,0],[0,0.5,0],[0,0.75,0],[1,0.25,0],[1,0.5,0],[1,0.75,0]];outlineConnect=0;fontColor=#232F3E;fillColor=#7AA116;strokeColor=#ffffff;dashed=0;verticalLabelPosition=bottom;verticalAlign=top;align=center;html=1;fontSize=12;fontStyle=0;aspect=fixed;shape=mxgraph.aws4.resourceIcon;resIcon=mxgraph.aws4.s3;" parent="HlJCmr9RVTCrGqRUd0Zp-17" vertex="1">
          <mxGeometry x="107" y="153" width="42" height="42" as="geometry" />
        </mxCell>
        <mxCell id="VUkKsYSUKkYah6STu2GY-1" value="Transfer&lt;div&gt;Family&lt;/div&gt;" style="sketch=0;points=[[0,0,0],[0.25,0,0],[0.5,0,0],[0.75,0,0],[1,0,0],[0,1,0],[0.25,1,0],[0.5,1,0],[0.75,1,0],[1,1,0],[0,0.25,0],[0,0.5,0],[0,0.75,0],[1,0.25,0],[1,0.5,0],[1,0.75,0]];outlineConnect=0;fontColor=#232F3E;fillColor=#01A88D;strokeColor=#ffffff;dashed=0;verticalLabelPosition=bottom;verticalAlign=top;align=center;html=1;fontSize=12;fontStyle=0;aspect=fixed;shape=mxgraph.aws4.resourceIcon;resIcon=mxgraph.aws4.transfer_family;" vertex="1" parent="HlJCmr9RVTCrGqRUd0Zp-17">
          <mxGeometry x="27" y="153" width="42" height="42" as="geometry" />
        </mxCell>
        <mxCell id="VUkKsYSUKkYah6STu2GY-7" style="edgeStyle=orthogonalEdgeStyle;rounded=0;orthogonalLoop=1;jettySize=auto;html=1;entryX=0;entryY=0.5;entryDx=0;entryDy=0;entryPerimeter=0;" edge="1" parent="HlJCmr9RVTCrGqRUd0Zp-17" source="VUkKsYSUKkYah6STu2GY-1" target="HlJCmr9RVTCrGqRUd0Zp-4">
          <mxGeometry relative="1" as="geometry" />
        </mxCell>
        <mxCell id="HlJCmr9RVTCrGqRUd0Zp-18" value="" style="shape=image;verticalLabelPosition=bottom;labelBackgroundColor=default;verticalAlign=top;aspect=fixed;imageAspect=0;image=data:image/png,iVBORw0KGgoAAAANSUhEUgAAA08AAAEkCAIAAAB48J39AAAgAElEQVR4Aex9C5RcVZluP5J0SEhCB5OQd9I5DLgkC0wBDgEWpBgvjhFtuAi6pMAHXrFkro7KAdQlUHrX9VnO9QaFEmddZSjxgY/GewcdDl5guDOaUcgqMEQlIiFIAUl4FRDozrlWfvLx8Z9Hn+qu6q6u82e5cPc+e/+P7//33t/Z+5w6Xb79MwQMAUPAEDAEDAFDwBDoOAQeeuih7du3P/HEE10d55o5ZAgYAoaAIWAIGAKGgCHgG9uzJDAEDAFDwBAwBAwBQ6CTETC218nRNd8MAUPAEDAEDAFDwBAwtmc5YAgYAoaAIWAIGAKGQCcjYGyvk6NrvhkChoAhYAgYAoaAIWBsz3LAEDAEDAFDwBAwBAyBTkbA2F4nR9d8MwQMAUPAEDAEDAFDwNie5YAhYAgYAoaAIWAIGAKdjICxvU6OrvlmCBgChoAhYAgYAobAlGR7nueVSqVmBc91Xc/zmiWtdXLY62q1Ojg4WKlUWqfOJBsChoAhYAgYAoZAZyCQiO1Vq9VsNuvQv4T0qFQq5XK5Wq3WXLCY94xf8lRke4VCwaje+ENvEgwBQ8AQMAQMgTQgkJTt5XK5arU6KiLVatV13abTO6XX2J4CxP40BAwBQ8AQMAQMAUMgCgFje/5U3NuLCqfVGwKGgCFgCBgChoAhoBAYF9vDCW82m61Wq57n0WHvy0XXdUVloVDwPE9OhKV9qVSSRvwQXqVSyWQyUs/nxRCezWbL5TK61Gq1XC4n7TOZDM43lW3Kbf7Tdd1yuYyjaiitVCr5fB77lLyhCOGO48DBWq0mxFHsFx+hyHXdlxFxHKiA8Ww5uvi+H+p1rVbL5/PwFJL50BwdYR6LtbIhYAgYAoaAIWAIpAeBpGwPZMhxHLAK7IpVKpVyuez7vjrJrVQqhUJB0HRdF5xGeJ4QEX7hgLtXKpXBwUE5PlblTCYjbE/YEsgTNwvaFhVU13XBzCqVyoYNG4RIRbE9pdR1XTYGokqlEpgW2ghEeMGitP+fVBaLRWUhuyMkGIrA9kqlEtyHlmq1ipP3crkMXqjk25+GgCFgCBgChoAhkAYEkrI9sAcGBfQClUzXfN9XbA+8RBEpMDPI8X2fd7DAiqQBttlYvlyCqKBtLJzL6CKV0KWMhFLP80DjmOCywVyvMPF9HyqYEbJJyhL5EwYoRegIw5hA46oVDAFDwBAwBAwBQyCdCIyL7Qlx4d0+xWyYjTGpUkSKN6hwBOk4DvYCua+cb8ouF/gNggciFbQNbVRBCYcEZSTIFlsoh7Oy2alIGKBQcsR+8EWRhh1Btk0ZBgNYEc6CxRKIRb0AxWKtbAgYAoaAIWAIGAKpQmC8bE/A8jxPGA8ojtQ3yvYgJ+HeXpDtKYYk1ApHz6GhVV1APRVLA9kKKhWxTMJ4b0/J4b092MOHtqgE75QaGABF6kw51LDke5zQawVDwBAwBAwBQ8AQ6CQExs72mNiB0PATY8lPckGwmK94noe9PXm9A8/w4bk9eVsCB8RoFmpbVNjUc3t4WJDPQ/mxOa7njTqQMFEEG4STYY8NjwbKWx3ilMJNJMAdQRJeQxEKQo5zuZzs7YEXMrNkaVFQWL0hYAgYAoaAIWAIdB4CSdkev6XhOA4OUuUAkQ8i5Q0MqWl0b8/367+HgkNJ/g1hvMCby+WGhoZAnvj1WDYD562oDGVUvu8XCoVyuSwv0oJfSqQhJEYpNg6Ze/HeHqiY+MUq8AIyV3KShXrNilhCuVzmd2IAI3wBFKzCyoaAIWAIGAKGgCHQ2QgkYnudAQE22zrDHfPCEDAEDAFDwBAwBAyBJAikiO15+/8lAcXaGAKGgCFgCBgChoAh0DEIpIXt1Wq1YrGIn0rumPiZI4aAIWAIGAKGgCFgCMQjkBa2F4+CXTUEDAFDwBAwBAwBQ6BTETC216mRNb8MAUPAEDAEDAFDwBCoI2Bsz/LAEDAEDAFDwBAwBAyBTkbA2F4nR9d8MwQMAUPAEDAEDAFDwNie5YAhYAgYAoaAIWAIGAKdjICxvU6OrvlmCBgChoAhYAgYAoaAsb2QHOAPuIVcDqvCx9/CLrakjj+P1hIFTRLadDvHEJ0muTIWMU13fyxGtKbPOAPBXw6MMhCfZIxqkIb6iZ9b0oDqFPVRfdV9inoRNDvJbMC9OhUH9rHp5aRsr9FgNN3QiRQ4hmVs4mfkqUIjmm7nGKIz5uQplUr4Mt7YhDTd/bGZMZ5e6kPPImr8PCzJlBKqpVKp4GPW4/FrqvSd+LklFBl809JxnHEOilD5VpkEgU5lOUlmA8anU3FgH5teniC2N7XWvDHwiYmfkacKpE23cwzRafqwSS6w6e4nV93mLZPM76Fsr839arp5Ez+3KBfkY9ye56G+VCq5ros/rRBEIEl6B3uNWtNSljOJk1WjcLUUh1GjMEUbGNsLCdwY+MTEz8iTODJDIIuuarqdY4hOtHUtv9J091tu8UQpSDK/G9vzfX/i5xZOAdnZZarHV60chUCS9I7qG1PfUpYziZNVo3C1FIcY/Kf0pbGwPTUFI0UkYJ7nZTIZx3Gy2Wy1WvV9P/QIwPM858C/qNvEUqkkTSBKScMcJDZAUalUCkalWq1ms1k2TGbSoArwiVqtls/nK5WKSKtWq67r4vNrMC+XyxWLRRiDeja7UCiUy+XM/n8QCCOVIjEs6AVAy2az5XIZDWRGFkeiDllCreKOiAIPJDUIISSTycALz/OKxWIul3McR0yKsjMqfMDB932ECdL4qu/7iI7v+2w/m8RdgsgHvVALKlSgwKkC2KNMHY/77BGHslAoeJ4nCTweTxWATCaixq9EDenNFrIlSSzkvsVi0XVdmSLEKklgx3GgS001ElYehhwg9kUlkuQ2d5TkwehGyFg7rGU3kVqVSqVQKCCXOFiyGSbuwBdkC08L6M6VnGxqbmHJrBFWMZJsNjuIkR4TcQgMDQGuhuIs2Mo0otYC6Qiv2UKFD89CnLRwBF6wMSiLa+VymSf8UL1BgWo1YUUw0nGcqPpSqcRhQkYhnRzHYcdhs+/73BGZww0YFrijkgftQ62NCjpWT5zUx0zscEp0wRLJeZkhR/WFAUkyG8AvNSNBO+MA37mSJaSw3GS2l8vlAC7v9oMRCsSe5/FU5bouVlDEgNtgTueW1Wp1cHBQOIeMWBHC9ZDG+VGpVMrlsswg0KuslZGsSBivFso8ZD97yjJd1wUybBXK8FGtQ2jAjyvJQILxDAsrRd8Yq1iIzC88ocjUIEsyu8zGCPiYm/hSjJ2hYWJ1oQ143pfJIlQvHJe4M/KhXqglDQggKNygWCxWq9UoU8fjvliLiHAoXdfFCsEuNOopAyh9wXQFT2CltAvOMZgntBDe8Yhg0DjuDDs8VcOQF13lC3IDAwSRlZU1n8/XarUo7aX9/4TQFItFGCAFlduAi81jyVCdZP7B9MiDi6UJI2TfYRUeagR6KmGARkzE4SyGAGq4oPIhiWQ2hj1S+MB4USdXq9VqLpeT6ahcLuOGk02SshgGGCXt8Sf0hgpkzHlIxjuLASK3EDw/4L4UCQkD2PKozOE2QClqSkfjeGtDhznLFMSwrsl4QWrxIOWA8pDBzkioswysmqW5PSuCa9JewGSbMQa5AYYbd09nuclsD/fKMkUi3hwS3/cLhQIPVDWwo+gODwaJFnJLTUmY9DmomIm4EmW2AdJi2B5GHSzBSA6VqdqjDQo878AAXJXJHSulDEX5ky3HXTW2TFiClNEeBdWGTcWcpaDgfRRlLYIiYhH6mPApA/AnW4JKqJPNFdTzCI+qjPECOcl2si7MdCwcZZg6HvdVRAC+co3rYUCwDQ/G+HiphUpkMg7wLgZztIlKQs5w1Yb7xuR20DAESC5h4Kt6+ML2o3GUdl48GGcpq2Ap76QN51vy+UfZAztREOGhGlVfaYncVpazeWrGlpYSC3BK3q2RyiicoySrek5LhQ+3BNRRaz+sRYG7hy4oAmaoQOUUtKt6JJWqFxvUIOXEkwahkYqyH/WhvWAhmqnAcXAVMvCCx53IUX4p1ZjYecYLuhkKvtgD4p5wNmDvlDFyiXFQ6cR9U1ueBLansi0Y+Kj84FhKwJCOKEi9mhYRXdnyxR2eLJA4P0I9pClTMTBUPc9ZUTJDsxOGKbNDG6tKDDaegsUX3Lex/OBGfRBPac+KMGfJnSKwkgLurrAeKM7BM0hQHXBmO5U7QQ6NXiigO887qFTuyIkzO6K8YCGsAkcDMCnUVFbXqPtKIB9CsVgEBT5KQbUZ1VPphcGishrZzjFlQNBd7jqUdj6llZYqAdgLTk4JTeidjMhhw5Q98EW2ZzjKMrrhI1OlKO0SPo6CGBDqDgtk7diRlVkCx2QihFUrC6ELTjHCUZOkahPaDKYCDdHFwEK7iprUA3b2VNAO9QKSY6aRID6Y4nhIQgLf+sJaFJRr6MUpIQMZlyAQ3ok0IBDlrGovvTi9JZF4khRnoRFmswrOHDTg+AaTB82QuuxvfGh4shI5yi9WJ2LF/tC9PWVA0BegKroYrihF7F0SHILLPUtIYbkt2J4KfOgMxScviBNmAZWXmB/RkgvITqb/bAOkqSkDcxavfyIZGqNkcnayMVwWG7Zv3449Ub4KZ6USUyFbzu25HGpVVEc2FYNQQcHCAZdUJrdTtVSHBUGQRT7UoQBj2PLQyhgvZAkU8LEzGlQha4PneXzcwKYqp2LCpFqGZniUF0EuxTZEjSAFoPyJ1FXghGZ7EBBgjoJoD1oIkiF6kVrKcrgcBQgbpuyBL6qeZQrsiEuMdvRSsZZ6NXxgFaaXqCigQeioDNoDpxjh0JvkYN9QG2B5TMThOxIeNcxdonCOkqzqWSbKwCd0SKIZo4dKFJQi9SeacQEClVPYr1L16Btaz+nNiKGXiqa0EUIWGjXpiF6wNmqYhFoVlIy8FQOYgCoJUA0XpMAMFfYjiEGN0msMswHrhTFJcIBVLCGF5aRsj2PDu9+yGyEpokaUSiO+s+GfMZPZhJNMwsBtJO1Uy0qlsmHDBjy3p+RjA0aksTGY7JAxMksiJzjLkUyiHW2UeXi+IUom10flmQBYLBaDaMhQxKadgj2Xy8FfeMdaWLvruuKFwhNt+ACLH67ieo41wzWqnXCNwwdT2XjxEX6hDdTJZhsayEsMIGpoD7+kJsoLudsuFouFQgF9oQsrLhbUKFPZjGCY4t2XiMAjVsFeqIUE1nIbcQeDguPF3EVmatHIbfjoBy5LZTabhYXsLGsPtTCYb8hnXhtYHSMAN9VYxgk7+8JzlOQkoJDuruviYZJQ7ewCz34wg4MrNktwkTOiV3Y1lM3yvCAjhlEpgcM8w04x2qIRTsEqbgP0eLLiKMREHAKFTGQyGaQu4xmFc4zk0AEYio/4yEOSOXrwZoltVgZEDYdQgYw5D8koZ3kigl4UxCpuoyZJmB2aObgqBeQMCoISEgbto6wNGobNBTaAoywyQ4eJaMeEAO0sSl7cxHCTNpyHImTU2QDCWWkoDlHpxBJSWB6d7d1xxx28bSsYyXiQU4mhoSGZCGLSSELL7zHhPZqoVy8loqIaeQA56rUmzi0Z2KH5p6ThbM5xnHK5HJr0aJPJZEQL3snFhrMwQtGI9komJyVm4WDChQ4MNANouVwOsMvNE47tgBV6YZEW99lTthYrB4M8NDTEmzQwAOw2OCkI/qIrxs7g3r4YDBXqbUS4w7Fm+0Md53kBEqCCvcCqxpkDXYwJlj3IUaZyfVSYotxnRewR5w8TETjVkKewkFM3Zvyy9ijMuU2UhdxXpRamFJ4QQkcKT+WcbOyLynm1FjK1EgCjtMsrpaHBEtvy+bykOoYPT1yu6+KZOahAWBkNHpVKAt9pQAjPpZwDDAibjYgzvDERVzI5LdXRNnsBnOMlszEYbnAN+IQOSZ51xcjQJFEGSMtQvUGBnufl83nMqBjvMUkl1F8yAe3FI0SBgWIfGWo2BpmjGsQvNNyYNSYJDaIsyYzZDzIRI84i1sJpOaov3DHJbAAzeK5jITyIYGoU1CwtJeXR2V5KgJhIN3E0EFQacynY2GoMgRQioNjeZCEQSjImy5hO1Zsk1k2fM4Msp1PhHb9fQhBB2ZmHjV+4SWguAsb2motnImkxvx3AGySJZFkjQyBlCLQJzWoTMzo7+PHHteJ7zHQ6NnCM7SXHTe2hBslfclHWstUIGNtrNcJafrVaDf52lzQKfTxI97e/DYG0IoCTJt5LmCwwjO21GnnFJELVxUynoe2TVBrbS4IS2vAptno2Bm2s0A4IGNtrhyiYDYaAIWAIGAKGgCFgCLQKAWN7rULW5BoChoAhYAgYAoaAIdAOCBjba4comA2GgCFgCBgChoAhYAi0CgFje61C1uQaAoaAIWAIGAKGgCHQDggY22uHKJgNhoAhYAgYAoaAIWAItAoBY3utQtbkGgKGgCFgCBgChoAh0A4ItJztJXmLvh2AaB8b7P3/9olFUyyJ+rBEU4SbECBgUw2gmMjCxKd3kp9cnkgETJchMCUQmBpsjz/+OCVgHY+RncT21E8x4ZtC48Gn0b7yaZ1J/IW2RpdD/hbQpCDWKMJt0j7lbG+yJslG01tlC3/DN+ElY3sKKPvTEEiCwNRge0k86Zg2bcv2xjDJ8i/QJvmZ9XGuHO2ZAw05xZSloY7t6ftEWsXQTaTelOua+Cwdw0SU8hiZ+4aA7/vG9touDTqV7cn32uM3qyZ+5ZiA8DfklK1kY46Isb0xQzeejg2l93gUoa+NEUBhBUMgOQJJ2V6pVHLon6zZhUKhXC5n9v+rVCryRWRplcvlarWa7/syBUszx3EymYy0FBNd11Xtfd8PnmTxFpHv+57nSS/HcVzXFVHybWzYiXqxIZfLBRVBDjcWaTKFeZ6XyWSSmC3ty+Wy4zjZbLa6/182mxWlURQH1jIsoWxPecfwuq7LejkK+I6NApDXxVAbhJmJ8eIOsGI0uDKIoe/7rLdarQ4ODiL63FeOWdWxr1RyMkCFQgP1KtZSz86KSRJTx3EUjAi3uIxRFAoRDFONkT9IuWKx6LputVqVS0HHoQj2hyZMqBkq3BJx5TKvjp7nFYtFsU20MOwAhE3icrB7qDv4xBkSO8akQqEgp5AYO/CUcYBMzkC2TamI8itUOOQgrI7jQHuoKDVFCHSY0PDkgMpVRjg4fzKYyGoloVQqwUjOPR5rkAMhUdMmUEWkAIUUABfrQi/HcaLSO5vNlstlwVCFRiUkxqmayngmhMuO45TLZdd1ZX2J8otnMMTR8zzGX3lqfxoCnY1AIrbHg4Q/U+26Lk8BpVIJc5zruhjnuf3/ZHDywyUx7UUO5gg1kfGIhSKZkTFx5HK5oDEyBUgb/iht8LvaMp1BUaVSGRwclAU7xmy05/tdxXKQT4wqy+c5Do3FO0xbpVKJPYVeWfvRjFW7rgtAgGeMDZAJe3iOlkkWbZReZTazRrnE/rKRjBuoD8xuNNbiMrJIqB7iyMkg4UYyA17lJpsNPCuVSrlchstSgKmCDCSzBHacu2Nhg+MxZrCpMIldltsnrI7CAyCZ7WFA2B4ux3RndzBL4DOmMSa5rguqIdwCIxS3BxKgKLPFQlYR5Rcy3/f9YrEICg4JmDcgLUqUyhnheTL0uEvUyFWJoULMA4pnNskNhkuw4jur0JmNRzoLD0ZKhRuTico01PMqEOU4wBThPJNgelFTrgDCs5xEXzWL8is00Koxe2plQ6DjEUjE9jAjyJxSKBQEF6wuQZh4DOfzeezoyESDWRsd0R4FXOKJzPf9QqHA0jCqUZCOnudh5s3n87gRBJ/gxYl1SVlNT6OaHWzPMoNABduDRI6KgKzfuVyuWq0qOTyNigGIHYsVe1RfWew9zwvWiyglPCoQ7DgHRREgzgEEC9ERIWwzsxYWK6tCaKxFCLsDkOFRPIzcV7pAArsjl/BfXm6Fs2JvT2UCHEdfFGRdF5oYbwaQhDTVngOnIIU7oldZDmNQUN2j3GFmIH1jTGIhKrK4JPtbMCN0PLKKKL+YjrA0KSvvpDJKFKtjaiIRx6SnPGKE4Z0oihpQSgL34ksoh85sUcKDkQrCIjUsX0aN1POYxWwjlxpKSIUnQwrVIpbzOcqv+ECLHPuvIZAqBBKxPb4l4vHM8w52YmQjB2eswTGMXnKXptqHTrgY7UFpmD3RRuKHiUbujKEFp0VsMO5TEfugonizg+2VXizJokL5LuZJm3gEpDu8VnoVCDxjYlLmvjhtBD4J2Z7SywQUGCqaDr2yVEOjFCQEMFKE4EAKjWU3UbnJsWZmD6ix9CKI6pJyB8tJTJiEHPNxMBxX5rFTOOmDR8HcgxxRUSqVYszg1RreRbnD+SBa0EUBwjZwWSVnjDsSO2xqxpjENijowLSUXiDDtrEKlqnoV+jWqcgJagnSSmhBIbQvWIjySI0CTAtKGg8oJYFdQ6KqsYaEwbDCEBBr2QwVKYZUDdXQ0afSGx5JsoUawGYD8yACuIQCjJe96mAX9ism0MpH+9MQSAMCSdkeFid1eIexLfML/sT4DA5ImQej2qMjo4/5LigNl1CQjvEMgIXLjKYW3aCieLNVe3VnyRO0qFbt2Z54BKQlpkslR4GgFkVh6kBG9YUNUfVQqpZP6RhUrVYgMUYyJAiICOGVI0hNYKHSBY9UPWRiqVN6sTYol+GpqocBXOB7IamHWBgQtbfHckLLkgwxZuCxKtxfBaMDd4KQRgESasyo3YO9MBCUC2wS26AiGMP2uJfoZRXqqooI7vQwX4mE0KEXJYrVBZGJYXs4VWfJShqPHYUJ92IYVTPxSHagY4QjZIgUatTECPkKTB6zvBcgmDSF7UG12Aavk/ilFhr2zsqGQKoQSMT2eH5hdLieB54MMH7kAhwRS2NUe7khk1kYbXi08+8ziSKZULiNmmjwLA7PoaAIihKJgyI5udkwVbqzMbLJp9YVUYpnbrh76JIjQkBJcYzIHbGGoVmlUtmwYQMOvsUq13VRwztDLIpBhj1qluc2HAjOEMZBgQ9sefuEbZDtDTy5xQuqEotQKjMkP1kmPzYqepGlYIR8ZBwVJqw37BQcD5qBLS7kvzTmESQ1QBvRlMwJjRS7Bu2QjIVWPTiLrBNIYRsDoqThTzZPugfjyMs/5wwnLZvEIKjIgu3xtBA0W8xjNKICDYGcdfCOtUBalCg0kO4KGWZ7mUwGQxIgBA2IGlAKE4YrNA8xHHhmCxUeFSkAwrpc15VYx6c30ilmyuLoAzeFJ493FRfuHuqXOI4pF16o0Qc3rWAIpAGBRGxPBhu297BaYBQJUji7zGQy5XJZHu+TCUVeGuVTVFkm8cYr2nM9XotT8x3vZ2AaVW14ypPpSezHZCSzrVTCI4Rcpp5isRjsFeUm0wWZbqRvLpcrFouYeqCC2+DlWZ7juKV4l8/nlcHBKZKdxdPcEIUpGzUMJhuJQzpGTBqjhvsiEJAcZEJsLZ/Scl+ph+WceyAWMbHm9qFMjvUi7myYYnsxYQrmBnxnM4aGhrC3J/GVjkhv9JICkOesiDID2SgygSQMyGQysqDiNSl4LepCAWGWxuZhbUYld4d2WIU4CqrylroyiacRFVkmZ/BITSOwRAWRDYPLPDpgLSSETj4qZCyKh7xChtlefv8/NXKDbE+FGOYpTBiuULYXNbOFjtbQSAEQxpzfhOV6ld7QksvlhoaG4AW6qOgDNxU+NROynZzPUaCFBtrYHiJrhRQiMDrb27t3L++NhU5SnQdccOqZXB/VjD9mY3j5HLMQ69gmCKjn8ZuYtEwj2sTZKWpGs0buVHSfb7mnov1msyHQSQgkYnt8Cyv3TLwJ1ElwwJcmLpyQOZ5CU9aMqA2b8RhmfScRARVQRf7GY5i3/994JFhfQaApI3eKgmlsb4oGzszuSARGZ3vqdEOdLnUkKMHn3CfdzaasGTg0mXR3zIBmIcDnlXxsOh75tVqtWCziR4vGI8r6NmXkTlEYje1N0cCZ2R2JQCK215Gem1OGgCFgCBgChoAhYAikAQFje2mIsvloCBgChoAhYAgYAulFwNheemNvnhsChoAhYAgYAoZAGhAwtpeGKJuPhoAhYAgYAoaAIZBeBIztpTf25rkhYAgYAoaAIWAIpAEBY3tpiLL5aAgYAoaAIWAIGALpRcDYXnpjb54bAoaAIWAIGAKGQBoQMLaXhiibj4aAIWAIGAKGgCGQXgSM7aU39ua5IWAIGAKGgCFgCKQBAWN7aYiy+WgIGAKGgCFgCBgC6UXA2F56Y2+eGwKGgCFgCBgChkAaEDC2l4Yom4+GgCFgCBgChoAhkF4EjO2lN/bmuSFgCBgChoAhYAikAQFje2mIsvloCBgChoAhYAgYAulFwNheemNvnhsChoAhYAgYAoZAGhAwtpeGKJuPhoAhYAgYAoaAIZBeBIztpTf25rkhYAgYAoaAIWAIpAEBY3tpiLL5aAgYAoaAIWAIGALpRcDYXnpjb54bAoaAIWAIGAKGQBoQMLaXhiibj4aAIWAIGAKGgCGQXgSM7aU39ua5IWAIGAKGgCFgCKQBAWN7aYiy+WgIGAKGgCFgCLQCgSt9P2P/O4DAGa2AuCkyje01BUYTYggYAoaAIWAIpBCBK32/y/53AAFjeykcAuayIWAIGAKGgCHQ4QgY22Oya2yvw9Pd3DMEDAFDwBAwBFKIgLE9Y3spTHtz2RAwBAwBQ8AQSBECSdnevn1df/7ztG3bZrz0UveBc0/mSZ1Rtr29FKX+WFytVquu69ZqtfjOrus6jpPL5UZtGS9n/FdrtVo+n69UKiLK8zzXdccvNijBdV3P84L1LdJYqVTy+Xyz4B2/NM/zSqVS0H2uqVQqmUzGcZxQoLjlJJaTODKJ5kF1wpGI9qMWxp8Do6pozwalUqmdE7I9QZuaVl25e3fvD34w95e/PGh4+GUaV6v1/OQnczZvnjk8/AqHu//+GW9848p8/rA9e3pbzQHvkqsAACAASURBVPYefnjaDTfMu+SSRVdcseCWWw5++ukeaNyzp6dQWHDiiau+/vX+LVv6PvjBxZs3z8TVcReM7bUyi7HaOfv/jbo6htrieV42m61Wq6FXW12ZZI3hZaNSqQwODsZbW61Ws9lsiyZcRcJaxL1K+/+Fgt8ijQxyqN6oymD+VKvVXC4XH6MoaahPQpI4Fq7rjpr/pVIp9IahpQmTxBF4PYmFJCOxIfPGnFENaWnDxh3J9po+RuQGXlau0FHZhpFVJo2MXHHzzXOOOmrNG96w+q67Dtq3r07vHnxw+pvetOKKKxY8//zL/O+557o/+9nXbNy4YuvWGVGMateu3s985jXf//5csMaoljH1w8PdQ0Nz1q0bcBxn3bqB1752jeM4GzeuuPvumfv2de3b1/XTnx78hjesfvvblx1xhHPkkWvWr191992RbO+FF7q/+c1DisVDmS/GaPd9Y3sqQWL/bHSB5Pm0VqvlcrkWUZxYq8d1Mcka0yJ+My67D3SeeNtapJFz6YBzk/n/o5IktcnaqK0TtiSP6kijlreofZKR2JDqdsuohoyXxrVazXXdRqflCUutMXjUDl1kk4KXqlKp1KITkpb6OzJyxU9+Mud1r6uTqg996LA9e+q7aEG2t3t37xe+cOjtt88aGXllt0/Rpj/9afrGjSuuuuoVjqgaJPnz17+eefLJq845Z9mvfz1zeLj7mWd6vv3tecccM3DeeUur1d59+7o2b575D/8w/5FHpv3Lv8z+yEcW/a//dchzz0WeLD/7bM+HP3zYO99Z75tEu7G9pMl2ww03rFu3znGcM844Y8uWLQm7qfk0ZkMoocCJb5ZkjWnn9bJF3CsmEC3SqHIpxoCJuTRq0Me2EsP4CVuSR3UEJk1uIclIbMjCdsuohoyXxmPLsQlLrTF4NOldpuiuRChuwvaOOmrNySevWrt24H//74NHRjTb27FjerF4aDa78qyzlpfL8555ps4Id+/u/epX55988qrTTlv5P/7H/F/+8qB3v3vJkUeuyWQGzjln2aZN/bVa9wsvdP/kJ3POOWfZ+vWrPvnJhVu2zBwZ6Roe7rrlloMvu2zhpk39b3zjyr//+0XV6jShYnv3dn/uc6854YRVfDgrla9//cAdd8x67rnua6/t/8IXDr322v7TT19x/vlLb7119osv1tnek0/2fOc7c888c/kxxwzk84f97nczHn+895OfXHjMMQOve92as85afvnlCx99dNrevd0///nsCy9csn79qssvX3jvvX2v5q+2txeaJq+uvP/++2VDW/57xhlJUeP5tFqtDg4O8vNkkCl3UZVKpVAoQDOO21iI53nSi++0sOWO/XaZBMvlsuM46hSYD9d83w+lJnIoIIrK5TI/t1cqlaQ+k8mIL9AOd6BR1lE0wEEe7/p4nlcsFnO5nOM4aAAQ4C/UKYN54uZzc9yYqvYiWWY0x3Eg1vd99hrwBpHkZkGDFaShJsE7aRwMKLx2HAeWqDRAve/7DAL6wjXu6Ps+wsGP00VFik1la7PZbLlchvuMiRjGjiMx0L5QKMj5sgqBBAvRQUc0U4yHEwmZifRTxvOfQEk5wqoxmrijoC2GKUVBA3isKV4CAzgKMgNIgARGBlaNxNA4KlPRJtQXTgxWhDABDeQSyxdr4TVUBIcMg8aiAIJKZoFXtZTtJbkkFqockyEPe6Kik8vlisUi5ofQ9kBDCRH3OXs5fL7vs0nxgABJgKyee+b6YrGILUw1oWHs81hQw5nhZbGMMOzhrEAlFwAOz04SdM/z5DldhRtAZo2QI415sPAsGpokbE9MWdjesceu/trX+v/2b1fs30Kbxnt7f/jDjLe8ZfnatQP/9b/WN8kOP9z53Ode88wzPd/4xiFHHbXm4x9f9OlPL3jzm1fcdNPc97znFbZ39dX9jz7a67oLjzjCueCCJa678IQTVh1//Orbb5/10kvdmzbNdxzn8MOds89e5roLd+x4me098UTv+ecvPe+8pU888cpW3L59Xf/8zwcfc8zA9dfP27On56KLFjuOc9xxqz/ykUWnnrpy7dqB//N/Dn7uue4rr1xwxBFrLrhgyfvfv/i1r13z/vcv/sMfZjDb+8QnFj788PRrr+0/8sg1b33r8o9+dNEb3rB6w4aVW7b00bZfUt4SA2mLLrXRryvfeOONvPA4jpPw7IAHPw8AfrgNLJCHK6c7hh/4n+/75XJZyBZGuyzkMg/KkMZ0wxGCNKlUY8z3fekrs6GS43keZLILvDvCRspAFZPgpqjAixTSBpOvMhWPAMLsqMmOeYCyjSc7kY9N1mq1WiwWldcxSPKazR6x2bAwyiQ0ZqwQUAaZLQECnBtwRwBkx9EeBZYm7Ba3H1GRgqmyknE4MpkMJxsiiOfzGCtZ76W9mIF5n/0FdIrC+r5fKBRwdwFdcI0zcNRTJ4USHFH4hMqJUhTqBQ8uRoMN4CyS6QIoxYxEgKziyPEKnRm4AdBj29ie4DBR3Rk6wKUmDUnX4LwxavIzSlH5yZaLIqAHe5QBPOFERROBq1Qq5XKZvZYkwWTOcLHBksAy8wQBYYEcSraZ613XhUYeIzxMePlgHzmrOaPUiIZJSj7qpaAkwEiph5HsCA8NhkiBjGwURXI1NEmUSTF/gu398z8f/O1vz1u7dqBcnvfAAzPkub1nn+35+tf7jz129c9/PntkpKtW6/7Upxaefnr96b1Pf3rBW9+6/KGHpoMq8Unuvn1d//qvs449dvVXvjJ/79763lul0nfKKSs/9rFFTz/du2nT/MMPd774xUNrtVcdwj788LS3vW353/3dYc8++8prGb7f9W//dtBxx62+5pr+PXt6L7po8cknr9q8uf6I4datfRs2rPziFw/du7f7z3+etmPHtJGRrhdf7C4WDz355FWVSp86yd2+vf484sUXH7Z7d51Nbt48c/36VVdf3U8PGhrbi0mWA5fuvPNOZnvr1q07cGWU/+cMxsCQ4YcViycpnn2wvEEIzyyhijFQeeSrlnwJkrmNqgRl4Y7SHssJm83jE/ao9ixKtWFLMB1wpWoPG7jNqPJ5MpKOSmyM16woiYXSnk2ChNCAIu7SDOFAQRKGKSxACLUHHeEUDMByrtyHQLRUdE0lLRsDLWolhi6V/9yMzVA2ABbeAldtFGJsPJfZEnYEQEljNoy7o4z2ocGNcVOFCcMHAkWF+hPAogBLlEeoR4GBRaWSj3qYFxwmaCNcgV8Sx8BXaKg/QVCCyR/VMibhY2LE3sEjsX/UtOG5ml2WclCaUEwlNgoQFshGyj2n7OGhrzRmN1UooZTRU22ghcdOqC8Kat6tkDGuJCMVWbvcgciJkKpH9JmDwkdsAcDgYJIAPWwN8tKszrLA9v7lX2Y/+ui0XG7pW9+6/Be/mCVsb9eu3r//+0VHHLHmbW9bfu65y845Z9lf//Xq445b/e//ftAtt9T32971rqV3311/wM73u5jtDQ93X3fdIccfv/r//b+DhA4++WTP+9+/+Oyzlz388PRNm+afcsrK++7jTbX644DC9j70ocPksBg88q676mzvuusOEbZ3/vlLdu2q07WdO6edeebyT3xi4V9o6PBw13339X3zm4d89avzc7mlJ5xQf3tDsb277pq1bt3ACSfUnws899xlb3vb8iOOWHPppfXuB3QZ20P6xBYuueQSZNUNN9wQ2/aVi8haGQB4ERInLJAp8wUGOXfkstxC8aEnakQU7iYxcl6x5kAJq0voIhEznuW8FTbjFAMClZtKVJKJ6YCN9f9Xs6pcipIp8xRs460j5iKQL7e/uBmVP9EdpyrB2YpnQCAAsWq6ZLEwiRsjfJIAQXWhKREFQihiyB8UYADkoCCXECm0DIYDQWcfBUDZyOElSpFFtpObsRnKBrA9QARkxEgeU9hJYvtRZu0SLwFfRVatHNwdeQJPQ4cbK2I32VQRBQOYPzEavILGxBFGYrsapgZHActRvuNeVA0Tls/deeAjQNIYGQ5LMGpwCckfM8Ow/cgNRlXUMbZR0UF3yWoYxmkjh49cA985rJzYqh44oAAJKCjYkXIKW3ZTZQV8YS2qDaSpejaeTeIklHp0jBnsPASYBUbFVLRjpuWRyAuTShLYmaTAbG9kpOtnP5t9zDEDH/rQYaeeuvKKKxY8/njvhz502Gtfu2ZwsM72zj132TvfufSTn1y4Y8f0F1+sP5P35jevcBzn3e9e8qc/TVds76tfnc8vzArxOuus+nZgFNt74one885bes45y/Akn+93jYx0/ehHc17/+oGbbz74qafqJ7nM9s46a/llly186qme66+fd9RRaw4/3Dn99BXr168KZXu33z7r6KMHTjpplfjyjncsveCCJT/+8Rz6BUFje0myZn+bO++888Ybb7z//vsT96g/xsEjByNTzQssUC6hZfAeWhrL3aeMBJ6ak7A9WSa3b9+OZ0HYAGUzj1sez9wFCz9P+or3yNgWU2MmJhYbihLmHWkJoPi8IKF8PstQYmEGi+L20iDewiiTIJwLCKgCGeFAIQbYUHvQEQXoxayq3AeqaBlcGBB01RddeIlS3dlObsailA1gexAFA9Q+QdBNmCQFeC1/Qs6oHaMUqSSBuig3uR6NgyNd2YORqOoBCIuKmhm4DeTw+VqQ1gfTXoSgu/wJ8xQa6k82AOWo5EcDTgzxFzMJT2K8J8fmKcCRWlHtWW+Q8MVIw1TMM2EMAmwklHJfqYwaIwoKTB0KLmzpqfrQWKvMEQPQEQW2Vj2cI/ZH7e2pjjKbCcjxCxMHKygktIbZ3r59XU8/3fOxjy0Scn/FFQv27On59KcXnHbayt/9LvyHV156qfumm+YeffTApk3927fPwDu5w8Nd3/72vNe/fuCWWw6WX3V57LHed71r6Qc/uHjXrvpJbuje3vPPd1911YJ16wZ+8YtZ0sv3u556qucjH1n0N39Tt+Hpp8PZ3u9+V3+48B3vWLp9+/Th4fqvrpx88st7ex/5yGHveMfL7+T+5jf1o9uvfGW+vNhxYD+P3zI2theaJk2qVIMZfzIPUEOuUqm4+//h0UDuJTfBmN95HpFRmoTticZiscgvhcBj2SHHZJrb/09+1JdPdlg11ks1T6mpAZOs6st37TBDZgHsvQEEXpnkRlNMZV3ysLA85sX1IpynTuwPqSMD9GJT1Xos9+U8v4t89EVBfAnu7TFuoCD8m3MS0+DGTwwIoYjJLQdLE182bNgQihIiFRMOPLMVAx2vxHBQJTyHgxHj9vzcHtYS13XFeCXQdd3gCp3EEbXOIeW4L6/0rIijBi94vKhHr9hCyFQao0ZiTBxhKuettA+OMqhDQbIik8l4nsdxwTCBfLTEjITFmFVLe8YBV6OSH3aiZcztDbeJSQMVHWwuAnnpC86B99IYGfjOoVQjEaNPBI46G0elnApxjEb4wlDwxMgqOKPUBAvvgpFl/GMGO7gmRmjMqoF7A1GHPRHXdXlhCk0SNjW+rNie73f9+tczTzxxleM4V1yxoFbr/ulPD167duCSSxY98si0l17q3rx55i23HPz447033DDvV7866KWXuu+8c9YJJ6z62tf6d+yYftZZyy6++LBHH5325z9PEznnnbf0gQdmPPlkz1e+Mv/oowe+8515e/fW39IIZXv79nXdddes445bffrpKzZvnvncc92/+tVBF1982P5XQw594YXuKLb3+99Pf9vblr/3vUuq1Wn33tv3zne+fJJbq3VffvnCN795xbZtMx55ZNqjj05773uXnHjiqltuOfjFF7sfe6x3aGjO738/46mner72tf7rrjvk2Wc3xsM1iVfb6C2NMaOgJovggJT7DMyYOH/BlBccDNIFDXAWkMlkyuWyEDhWFGp8FFORxixTli58wgFvV2GWkbkALvDCgGVPxIJDsHmqjbIW6pgqoVIWGPAtHOK4routoFD57CAYAz8IgsWYTYUXEgL1ch8sZ42hJqGlLAkqoELlpZKP7FUuRYGAeiDGHWXqF+FowLM5fASqbC2E53K5oaEhDno2mwUski1MF3B/ItJ4leVmDB3CIVoQUEhAjGR1gQH87qqijPAlyhHGh1dudIRVjuOwIg4lOrK0oaEh5r58IgYYOVKikRNVwAG2OCDjOMJOrNnyOjNmBtUAqywDgldWWTuGCSSItfl8XiVwcMiolEZq8eiAWFiiZhjMeCINQgRJASFJdHjSiGqP6CCUME8CXSwW5eVTBT46qvdVmQmxKEz4giGrY9tU8gAi9oVh9zwvn88jQ5BgaqSwuhircL4sbdgwjEHWrtheVPSBFZshKYfg8rDiBFDWRv05MnLF0NCc445bfeuts2U7be/e7mKx/hZFoVD/5bxarfurX51/5JH1H+STf+9735IHHpiRz9ffjZV/Z565fNu2GbVa92c+8xqped/7ljzxRO/3vlff9jvQyrn00oW7d/cOD3dv2tR/6qkhz+35ftdLL3WXy/VNQfRyHCefX7xzZ/293aef7vngB185yX3kkWlnnbXs8ssX7tnTc801/fJTzNJRTnKHh7t+8IO5a9fWjc9mV27bNqNS6du4cTmEr1078NOfHixvb5x55vKdO98UBdSk13cC25t0EKMM4FurqDZWbwhMdQRwgzHVHWlD+4PctA2NbIVJfK/SCvlBmXxHFLwarOG7puDVdq5p9sJ05dNP92zdOqNWe+U12L17u7durW+GCf8bHq5v6X3jG4f85CdztmyZKS1rtZ6f/Wz2N795yB13zELfF17o/rd/O+h735v7pz9N37ev/sjdfff1XXfdIV//ev8vfjEbX+aoVnu3bZsRfZza9fzz3XffPfPGG+fedtts/jWWkZGuP/5x+oMPTpcfyRse7n7ggeli58hI17ZtM264Yd4PfjD3gQdmbN3aJ7+6PDzc9dvf9v3lp/i2bOmTt0kee6z3+9+f+61vHXL77bN27KiLeuml7m3bZvzhDzOGh+0kt51zv2W2Re15tEyhCTYEJhqBWq1WLBaxLT3R6jtdn7G9CYtwethesxemK8MeX+NH2VJVNrY3YUO2bRSpXfe2scsMMQSaiYC3/18zJZosQsDYHoHR2mJK2F4LFiZje0xnje21dpyadEPAEDAEDAFDwBCYeASM7Rnbm/isM42GgCFgCBgChoAhYAgYAq9GwN7SeDUe9pchYAgYAoaAIWAIGAKdhYCxvc6Kp3ljCBgChoAhYAgYAobAqxEwtvdqPOwvQ8AQMAQMAUPAEDAEOgsBY3udFc+ANy14Ayugo80qon6pq7mvNzb7N6smE0T7wbzJRL8ZuqNyvhmyk8pIkkX4KWn+ad+kCpK1S+GMx8A09CuA7ZA2bPwULSfJfLjWUIDQqymFzmF7+Olz/oH1pmA0pYWkcO6LmsImne3x7+OrzwNMbo41NFthwZZfk+ff6G+1F/gshHy7IvjliVYb0LbykfOe58VERL47wl99aKJHSbIIdsr3G0a1hL/GFjRVBpQijqwi2KXjaxoiEx2DVXzatzroSTIfNjQUIPRqSqFD2J589BaIdEwSw6MxF4ztAbrJZXuVSgUfzFVf6oOFCQsNTS5JZDYkUMHIn0uO0tXoL5lFyeFxrb6CHdUlJfWMTEKXmxUUqBs1i1I4FwGc+EITDwoaIhNjSJt4R6bi1fGDP2rmMywNBYg7jr/cdmxv69att912265du5L7NonwJTdyslqmcIaNmsIUTRlnRBqaI5obhYYmlyRuNiQwCOOoxKtZxIIjy5+KTuJjZ7dhZBJ62qygQN2oWdR0jVA91QsNTSbxzja0Go4hbeK1T8Wr4wd/1MxnWBoKEHccf7m92N5nP/tZOR76q7/6q6GhoYTuxaQsfzGdz848zyuVSjgYkgOFSqVSKBSglJcTHBMrIcViUb6KXSqVoIvb8LEXThw8z+OO0CgFfMea5aCSz6ll9pTNFfVRbchUPCNUDn9RO3i2IrAIVvLNbD6R5K9oAyUIKRQKsscuYQUC/Dl5x3H4s98STfkaOp9JQSlXQiNXuq5bLpez2axSyjQFwWLtvu8DH/YLYMIGx3HK5bLruvhiGCzhqKEjq0YlClDKn6gX2CFW7GGzkQmFQqFcLmf2/5PDTRYY6ghHPJfLFYtFhIb7ohKmhu5Kco4xRBhWEk0OB48LRH9U/Hmkq0kTQHEmcPqpuMBNrkclsGXHuayGHgvhb8zDNWlfLpcxToNAsXz55r3kMHsUhRuQ4UzjbEEaSEuWg6wLxTB+skIXlUXsnahWGiUZJEMUmOwvR5llomM+n8eBfmj4QseRgjoYHYYOQQzNT7WUAGduDIRFL+yUtMGf/HwCw8UGsOUAPwoxbozFjqVx2hQKBQgslUpAm4WH5jbnquM4mPwhgUdTTKy5PYSo9mI8fMEEFZX27GzobBAKPldyQBlPYDVq5nMvyQrIjHJZSIWaVZScMfzZRmzvV7/6lUwB8t8TTjghiT+80qj2MmI5IQYHB6vVKsahpFS1Wh0cHKxUKkoUJhreuqhUKkoI5OPjg9VqtVgsyhgAIYjpyGZzM2QwG8DPu4iDGI3CX1ma7/vsVJQcKPJ9v1gsCkSQI/MOD79cLgevXdeVS6FCXNeFecBZGANgFOYhAyDGI56YyuWyBBFWse+slM9P2UKYzdqZ35fLZawiAgWnk5QxlTCwHEFgiFxCDQrcXkGUyWQYFmCubiXZX4EFhnG2QKNqI1ObCI8yhvsyjKiX6MjULPnDvnB9TPTj8eeVhtfF+EzAjBkVI7jDDaJwg78qARg3jg7STLVnQBgoyBcDEBRJeNbCeasa5/N5uQmBdm6AccQ2xGDI6cHmxWQRjxRGUmnEhCntMVHwWMbAYZmY01BQxrBSmb5CxxHcUdHh7oxzaH4qfIA5B4tDzPXIPbW9xG3YABgcHy+QCbQPzUnOCkZJKAgGDocjVE5UaEKXiahYc24wXKq98DysOFhEgGRU7KQeTvFgV+DzJSUNeHIbTgCGIqYvstF13eBsiXEBIgG94yy0Edu78cYbme05jqNoR6irPOBVA7VXJ+jLBIpJRLogieVGTSoLhUKQAsrYixISHGYwie1U2tGGLeRKsQQ1yGyWqcglGnObKDlqckFfKUCd/KmMx1AJFYKlRfoijwG41GMaZWuVR5hGpYv6LxsZpRRtUBAhmGh4llHyg3tacFzZzBkCIQo01AcjjgxURqI+KF/5GxXlGKUIhxLFStFdGSb1SqlUQhoQlnqokz8R/Xj8FVZRjdk8GCC3PZhbuV5s8H1fucBy0AaFYNBDZSLuwfYQpfxCfTDho3BjCTAbBQiUAuxUQeFm3BcucAMlSv6EeaoLjxSEQNJYlm0FDtoLp5FJVckUjdwxKnzsiyJJ8IjlBEc6gApNOWUY1AFn0YKhpOrlKrscHOAYIDBYFaCUEVNt8CcbDGNYAqdTEI2gHBYYvCo1cFBBjXp0lAIMU+1ZF1+C/SiIHMROOcX1yoaoRGILYZ5Ujpr53Jdd4HrIZHrNDcZfbiO2t2XLFmZ7p512WkL3AJNqH4QVbENdQrQwrpA0wtbZMGzLKyEy0nBSI8YI8ZfufGMRxQuDvnBOi0wYqS6prJXGaIMCUIIc3ooXIos2wdHOHolf2EnCvjSEKHeAv6qHbSjAU2yOyiSoDl6xpc/1SjiUIqZ8SiIuYF8B4cauIaBQ4Qba6MJJAgSkO1RDGgrsgkjAnSs2adQqhXQVIeyvAlAim8vl+MYp2AYCo4yBtcF8UPvHClvBgedWNe2q7gAziH+wI1ZQuQT8kZAKGVANrhfXgpjw6GD3o9pDJlwQe3Afz2eOAmPwgFspktOiUHcUbtCOTENByURLFZQoDFXaQ1oQMWRR1BShNGJgKlEYWcxdQs1ARxRgHsKncOCcQWPVXeUwT+kILvJTGQZ1UUMJ+EO7uq0N5rkyDx1ZBZJE2SONYTbnJCuC2dKejeRwhMoJ1RiTAzwQWLiCHVMHt1e6wMxgvxLCsWOnOBXZhiDUSCTAHmwzauajL6d0zCQg6GFV4u7jKbcR2/N9/+qrr5Z0XL9+/R133JHQMZUB6BWsR7zVJUQLAwA1wdDGyJdL2OXi/V6Wo7RDILRzDXeEfOEB6hJnLSSgDQq4hBGCGhnM8UwlxniRw0IAuFwCqqoeI0oZGeoRUOXND/ZFCYdStEEBjgcLLFyuql6wTdkcFKUWZtVAWYurSh2vUvBIGrOEoDFKTrAL7yWwKFiiCkGBiAgyX2nhuTWY5Ig+KwriH+wITLgxm8fusA1cL0oT4gYLg+1l4eHk55ldtY8CCvK5AHiV2YwbLsF9FFgUY8iASD0YDPeNGe9QKiqQllFdlMaWsj24gIIYiZxhWILR4RstbokyUk45iwMlBQ53VBPsqGyPA81yEsYrKic5GRRKbDxPdHw4C8dRgG2c+VwZnAkhPGpEqNAoXaFsLyp27BSnImwImhd6c8u4iXejZj6DABeiXEZj1QD1Yy60F9vzfX/Xrl333ntvQ/5INvNumQxF2WrC0OKf5AHiogjRkujK77lgO4R3Vjn5WIjKHtlN4Qb8QxVcrzxlIzEC+UenxFkZ52xMcMoQydwmSg67z0NCJMAM+VMdZ8CXUCH8SBnnLrspgyd0CwTjEAUefmyq67q4u41SCkfU9Id6XgmwFCFAnE4iARqjMgR9ZfrD5q54IQ+dYC2XxnAKVkl9jG3oIi2joszGcBu5j5RhEmUM9w0aBr/4ktxki1hOQoGCb1vx80kxPooB7CnnIderTMDw5xHK6QebGRMeZew7yioBgBt7Km1CExtKJRMymQzsFBWhCc9m86jh5QeSlQuACAU2lSVIGbmNAQ7fUWDEOIs4NLzwcwgaPclVo0/2e9gFNoZ9ByBiNucYHGE5suQzrYEE7ov5gR0XvfFDiYMIyYrPcRsVaNiMOI4aL/aOc5KDDktEPgtHKkbJCQ1NTA7wXh2EswHxUwcvH3sn1gAAIABJREFU9EG2xyHgxYKdlRBjp1+BH5VIQF5SlwcIjvuivOa+GFChLvMYUYaxkLGV247tjc0NiSWOcpAQkohSzwsMEBd1zFTUeEADCMe8rIRgDxmLH1vlui5SU3VULuNlH5aDSn7piYdfEraHw1DxBbeG4rKqhFWclFLJqCLpQ4W4rlssFuXEit2RNQCQIl4xHsmsyjvzbAa/IYt3VNWz/OwIW8uJgcMRmAQcsDCLWAli8J1cjHzuKGVkiDIMrnFw2VqBC/GC41LDU7MoCs0WZQ97yvkfagz3ZS/4AF2pVq+qiVjkAGthqNkqViplXJXMwUgEIOpdaUaGp1EeCDCJK2MCIZZIohaLRbGEUwj4ZDKZcrksr/mrxGZdCih4DYhYOCr5PUdeyThtGBaAzJhwULgxj6b4yQoRkRvs0IjwFIElVhAY9a6VtQNYREehGpr2DIgaR4BayQHhCwaX/ZXunufl83l5iRKG4RKmOAxeDn0w9xDrqEDD5obiBeg4J6PShuvVshIlB/WMAFvIORDK9hgWHhEqNJwP/KwtRzlmbkd+hs4GAD80kYC8FDgTeP4M9Zr7sgtQxC4DTE4PljDmcuewvTFDYB1bhwAvLa3TYpINgdYhgLM5VqEWIb5k5VQhwIt3qhw3Z6ccAsb2plzIppLBxvamUrTM1jAEgr/FE/p8T1hXq+t8BIztdX6MO8VDY3udEsm29MPYXluGxYxKikDUT17Z3l5SBDu9nbG9To9w5/hnbK9zYmmeGAKGgCFgCBgChoAhEETA2F4QE6sxBAyBzkZgp+//h/2PENjZ2fE27wwBQ8DYnuWAIWAIpA2Bnb7fZf8jBIztpW0ImL+pQ8DYXupCbg4bAqlHwNieIrvG9lI/JgyATkfA2F6nR9j8MwQMAY2AsT1jezon7G9DoLMRMLbX2fE17wwBQyCIQANs74UXurdu7Xv88V4691RUqQP+tL29YJJYjSHQUQikne3xb3BPrcCqXwNvE+PxkyutAxYq2sTlKWoGfnEeP3PfPo4kTJ5xfFlo5/Bw1+bNM7/73bmgcfv2dd13X9/3vz939+5XiN3evd1f+cr8desGfv7z2fv2tZbVvfBC9113zfrCFw79yEcOK5X6779/xsjIyxpffLH7n/5p3kknrbr00oX33z/j8ssXfve7c4eHm2iPsb32SX+zxBBoCQLG9ipRH1FOjrf6rGHyjuNpOTG/8yTfgcEHZ0Y1GFQs4YI9qsBgA6gIXrIafPSJv9QUCsvE5E+oaq4Mjp2GOBw+V8oyE5R37trVe/75Sx3Hueyyhc880+P7XcPD3ddc03/SSavuvnsmtvHuuWfmaaet/OpX57/wQjcquTAy0nXrrbM/8YmFDz00nesbLf/5z9M+8IHFjuMcccSaY49d7TjOa1+7plic/+yzddt++9u+005befbZy44+euCII9YcddSa730vku2NySRjewmyxpoYAlMZAWN7TWB7k5IA7Ul6YJWxvSZmBX+HsVliWyGzWbYllzPWNNv5xBO9551XZ3vHHDNw6631fbsg2xsZ6frFL2Z/6UuH8m6fonHDw92l0iEnn7zqnnte4Yiqzah/1mrdhcKCtWvXfP3r/bt3946M1HcZ3/3uJUcdteaHP5wzMtK1Y8f0L37x0K1bZ2zZMvNTn1rw3/7ba7AlGRQ+JpOM7SVPOmtpCExJBIztTUm2157HuPw57bEuw6OPIhDK0Zt2SotWMLNWyJx4vMc6EOpsL5dbeuyxq48+euB971uya1evYnt793b//OezL7xwyfr1qy6/fOG99/aNjHQND3f98pcHXXDBkkym3uvOO2ddc03/iSeuOvxw581vXvGBDyzesqXO+bZvn37FFQtOPHHV29++7IYb5j35ZH1/7r77+i65ZFGp1H/OOcve/vZllUofiNp99/WdcsrKT31qQa32yg6iVH74w4c9+WTPLbcc/IlPLLzhhnnnnrts48bl118/76mnZD+yq1Lp+8QnFh577OrTTlt5/fV1XaWSNml4uOuee2ZedtnC9etXXXjh4ttum/3SS68o2m+Gsb2JT17TaAhMKAIdwvZc13Xon+d5sgyUy2XHcbLZbHX/v2w2K61wziWkpFgsSj0/wySHmKq97/ue50llJpOpVCq+7ytmw8bgDFS+rV4qlaSv67qIMyviejSGtejCGqvVquu6tVpNrvI3nSABpor9xWIxl8s5jqMk41kutGdp0I7jwiBooGJsobBAaew4DjAJqmMV3IvjwioKhQJ8LJVKQFIiDmmICMtBY8aBKxELySXP8zKZDNJJhHN7gBnTHib5vs99ocv3ffYIEHHaVCoVsYTBZMlREIkWJVPCgax2HAfGBAeR53mlUgl4ep4HY0bFthVjx/f9QqEgw5ARGK38Mtu74IIl//2/v2bt2oGbbpq7d+8rJ7kvvth97bX9Rx655q1vXf7Rjy56wxtWb9iwcsuWvgcfnL5x44o3vWnF5z9/6HnnLb388gVXXz0fbO+iixZv2dJ3552z/vqvV5944qrLLlt4/vlLjzjC+djHFu3Z03PbbbPXrh1wHOf001d88IOLN28+SB4EHBnpGhqas27dwI9/XN/GAwXcs6f3ve9dcuaZyx96aPqmTfMdx3nd69ZcdNHis89e5jjOl7986N693ffcM3P9+lUnnbTqox9dlM2uPProgaGhOdde+wrbE5N+8YvZxx1XN+njH190+ukr1q5d8+Mfz3n1Y3/G9kZLGbtuCExxBDqB7cnyI4HAOidLGlYgWbeq1aqssoODgyBqmUwG67S7/5+wGdd1Q9sPDg5KPQgNCkJQIK1arSpFvNzKKit2ggC5rivdWWaxWBSNSDbhjvgTXjP19DwP7lcqFZgt6zo0QojwDNGOz4NGsT3YKb3AD2AJ28+NGRM8dAV1yhgYyRJYRSaTEdXCnEBSOSV4EwtyGHb4yJUcSqkHg4TwqKSKas/eReli3BB3doHJPYeVhYdCpDSyTE6VoOPIItA1pGgmkwEsjO3EjB1xmR1hEGLLL7O9979/8X339Z11Vn2z7U9/mv71r9d50t13z9y+ffqb3rTi4osPkzPczZvrpOrqq/v/4z8OOvnkVd/85iHDwy/vjalj02ee6fnoRxe98Y0rt26d4ftdzz/f/bnPvebYY1f/678eJGzvwgsXV6vTQOn2Py/Y9a1vHZLJDNx++yyur9V6LrmkTs4eeGDGpk3zjzpqzXe+M3d4uHv37t73vGfJe96zZPfu3hde6P7DH2bUavV9vvvvn3HaaSs/+9nX1Go9fLj81FM9F1982N/+7Ypt2+omPfLItLPPXpbPHya7gwc0GtuLzRe7aAhMfQQ6ge1hbZPVSJYiLOGhMUIXXlyFCOZyOUWtZP0T5oGOLBZCeCWWBiA0aCP1skciBoMqiQGyURe1kKM792LyJ4tf0H0sijGP54PHwLugHCaU0oxJD/CBvzGYBNVBryqwzUEV0hj1QQshDXJQwKWYWCgQgh4pA5K0VwZAZmjcETu2Vu5J8vl8cGcLUCAK0hFZJxwdZFptj6GXckRBpK4qj2AqjEEBlzhSQABXRx070hLN0BFbj9hOlgL89f2X2d4HPrB49+7eH/5wztFHD1xzTf///J/z5S2Nu+6atW7dwAknrDrnnGXnnrvsbW9bfsQRay69dOHOndMuumjx2rUD3/jGIXv21F/dVWzvoYfqm38f//giYWD79nX9/Oez160bKJfn3nprfYPt5ptftYEXz/Y++tFFGzeu+OMf62zvlFNW3ndf/fC3Vutx3YX/+T8ve+SROmt88smem28+eNOm/s98pk4rP/3pBc8++yq2t2PH9I0blx999MDZZ9d9kVc9zjxzuXQ3toe0sYIh0NkIdALbY9KAFUUtRbKu4PwLR2BY2CTM/D4gjqh4qYB8TgsIQQFXsQSqS1h3+QRNFGErBSd9tEq9LBhi5W84C/tlIyd0tVN9YaoUxB5s2EAyN1PI8OEm8IG/KEACG6DUoY06LObjxaAK6YV6Js1RctgGKI2KhQKBeYmCQiIV035UXWK8PHKAuCu2x3ZiOxOS+eZEgY+sY7anrOV7nuAlxk1d5VuOUFg4QLAWFqKAS9ClLrEXvCGNjgkKr7C9J5/s2b2796KLFp9yysqLLz5M9vZuv33W0UcPnHTSqnPPrTOkd7xj6QUXLPnxj+e89FL3Qw9Nv/TShX85DD3mmIHvfGfuCy+8ilo98EB9g+3KKxc8//zLm3933DHruONWf/vb8269dfbxx4ewvZGRrh//uE43v/vduXyS+/jjve9619Lzz1/y2GPTFNu79NKFZ521fOfOaX/84/R3vKP+rkkmM7Bx44ojj1wTZHt//OP0009f8frXv8z2zj132bvetXTTpvlPP13fETzwP9vbS5A11sQQmMoIdAjbA63BjldwKcJRZsxyiIVcbbFgoUKBg47VCAVcxcaDuoQVC0sauqiCOoCTq7yySo0ogljlPsscVaMwY4ErVI7yhYUDH7RBAc2ACWoU2qBooDtsc1CFyEE9sz2FHuSgABvUxhXXKxBGTZKo9iwz1ABuwJYz2+NTV6UI3QGFAh/pEc/20Cson81WV5GTKpowBgXYyXt7UIqryBN1ib1gR9AxQeFVbG/fvq4775wlv3tywgn1k9zf/KZ+dPuVr8x/8cWXSdsBVvQyPXr44Wnvec+S//SfVvz+9zP42HTnzmmDg8svvHCJ7PyNjHT98Idzjj9+9a23zva8cLbn+11bttTVyQsZomjfvq7bb6/TxH/4h/nPP98TyvYeemj6P/7jIWvXDlx//by9e+s09C1vWR5ke48+Ou2cc5ZdeOFiMUk5cuBPY3sJssaaGAJTGYEpz/bUkoNYqHpeMGTjQZiElOXwl59YimrPPw+GNijICg1plUplw4YNeECQf9gPKxY/x8aEgxf44DIJjfBXKIjrujjX4y1PRoMXbHQXgsWPW8mJNndEYyYivGCH0ugoTPj8F1uSrAJnlCIBPB5oKBBQr9heqBzZN1VbcVGxUCAw20NMOami2sM7sRDPdI4ad/Aebinl8e/tCWHCjjLHSzmitKurzPZCYWn62BE8Oe6McGz5VWxv//Fo95VXLnAcR9jerl31NyROPHHVX16GffHF7sce6x0amvO73824556Z118/b9eu3iefrB+nnn76it//fvo//dO8445bfdtts6vVaY8/3nvVVQuEgdVq3b/+9cy3vGX529++bOfOabfdFsn2nnmmx3UXHXHEmr/8tPKTT/Y8+ui0b33rkJNOWnXKKSvvvbdveLg7gu3Vm73+9QM33zznqad6vvGNOvPbz/bqP8UMk3bv7v3Slw496qg111zT/+yzPbVaz623zv73fz/opZe6N28+6MorF9xzz8x9+x6OhcsuGgKGwJRHYMqzveARbdRze3jVMZfLFYtFsL1CoYAHfUApZAnE0Sracz0WWqYdslhKRzRQlEhWTZBCnNg6jqMWXZGDlki3ID0SpoXu0hIu4+RaLdgQKAUcwMFytaKjPbuJY99QtoeNulBM5Gwd6iCfw5rJZMrlcqFQkKtY3Rl2Vs1sL0YOnI16JxdgKhDA9jgZOKli2rODyeOOlpIJnK7qkbt4iHCPIZZj65QdYTSUIyp51FWwPZbGsHA9Is5B5KRCg/ixw/cMjO1o5VfYHl5W2Lp1xt/8zcr161dt2dK3b1/9l002blwuSes4ztq1AzfffPAtt8w+5pj6e7Xyhuy11/a/8EL3b34z85RTVu5vs+ZnPzv4oYemvfvdS9Bx/fpV//f/zhoe7jrA9g4O/SbHgw9Ov+CCV3o5jnP88at/9KM5w8Pd+9le/6mn4rm97ssuW3jWWfXn9n73uxlvfesrRjqOI4fIyqRHH532d393GEw6/HDnS1869Lnneq65pv7e8fXXzxsefmg0xOy6IWAITG0EpjzbU/sxagWa2sGJtR6kJ7aVXTQEOhkBJouN+Fn/ctqDD07fsWMaPypXrfbed18fHrl77LHe739/7re+dcjtt8/asWP6yEjXyEjX738/41vfmve9783dvr1eIyehO3dOu+mmObffPuu55+onv0899fKbE9dfP+/BB6cLvXvmmZ7f/rZPvttx4PwUj83VC/v21V+YveWWg7///bm//W0fHyJXq73bts2QGmn2wAPT5b3gp5+u79X94z8e8qtfHbRt24ydO6eJOmVSrdbzs5/Nvu66Q372s9nbts2Q39vbtat3y5a+/Se8dpLbSPpYW0NgCiLQCWyP36JV5G8KRiSpyVEHskn7WztDYOojwGfcjXizM5RvpbjS2F4j6WNtDYEpiMCUZ3tyuoRDCj4AmoLhaMDk9OxiNgCKNU0TAqHPMyQDwNjeq7YVfd/YXrLEsVaGwJRFoBPY3pQF3ww3BAyBSUHA2J6xvUlJPFNqCEwaAsb2Jg16U2wIMAI7/Z3X+tfa/yYAgf1bWf/F9+1/QMD29ngsWtkQ6EAEjO11YFDNpamIwE5/Z5ffZf9rNQIZPzMV08NsNgQMAUNgPAgY2xsPetbXEGgaAsb2Ws3zRL6xvaalrAkyBAyBqYOAsb2pEyuztKMRMLZnbK+jE9ycMwQMgclEwNjeZKJvug0BIGBsz9geksEKhoAhYAg0FwFje83FM5G0dvhhZP7caiKj26YRf1OubYxq2JDgzyW2Idub7c1e5C6aGBLW5XdNjDo7yW04Wa2DIWAITH0EOoHt8SewHMcZ20/ulUolfCmr1WGddLbH3/5qnbMtgjTlbK+/1I9flxzIDPRV+lrHxhqiX+M3rCF1Y/ba2F7rhrxJNgQMgbZFoEPYHr7C3rZAs2GtZntj/Xgo2ziW8oSRSP7A61gMbYM+Y97b6y/195f6hevM9mavzK7srfaOmfrEd2yIfo3fsIbUxVsec9XYXhukv5lgCBgCE41Ae7G9xx577LOf/ewHPvCB6667LjkSY/1WZnINTW5pbG88gNreHthel9+1yF0025sdQ27Gc6kh+sVsb2yGNaRuzH4Z2xvP6LO+hoAhMEURaCO2t2/fvje96U04pfrUpz6VENMotlcoFDzPy2azfLxbqVQKhQIk4+NLvNfCR8PYRpKOrus6juO6LiT4vl8oFCqVCmrw7U6Ww8fEYHvKcs/zSqWSyGHjs9lstVotlUoCDtr4vl+tVsVBWMVKHcfxPE+2+srlsuM4Ior1sgSWDHd834dqPiVHR5HpeR5ihwKASugOGw/k2YBcLlcsFnEpqj2MT6gXvgBG3/cFN8/zMpkMoBPJcBYOcv6IwfFGqvZ+/Qd/E/3eXhSp6q32rsyuFORBB/sqfQsKC3DG2l/qRzO1KYg2fDrM9Kuv0jeQGRD5ofyyIcPkKT2RBo2ibpG7SHnR5XfBbMdx+FFCrmevYerS3NKeWg9TQ2N7GB1WMAQMgfQg0EZs7+abb5ZZHv995plnkkSCl3xerV3XBTvBSwnq87JYdFHg48hKpTI4OFitVn3fFy2hfAh9hSLk8/nK/n/oK8s/mEEStsfGC9mS7tVqdXBwUMhlrVbL5XJgFa7rinnqJFeaMd0E2+OWLJlhB3QCApxiL8rlslBP13VrtZp0Z2KdxJ0o5NkAoVniclR7Nj6J3hgYc7mccFmOIO4QfN8vl8sSC84BZntRRqr2Y2N7s73ZwmZ6aj2L3EVypNtb7V0+uFye5xOKJvRIiBGoVX+pH7QJcrr8rr5K3/LB5SIKbK+32rvIXSS0iRswi2K2B4ExhkFLX6VvcX5xT61ntjfbcRwhbexFT61naW4pKOYid5G04fqeWs/i/OK+Sp8yj90Ua43t8QCxsiFgCKQEgTZiez/60Y/A86SwZ8+eJGEAd1GNQUewTyO8TW2hha7WIoqpYZQWJRwURx04MkWAYUomG4Y2wrH4wURcUowBxII5HBNQ4KP0oh6SUcMISCX8ArlEYxggNYDC932WrLTzJYhivaoBDEDjUB/lKveN0hsDoxB3EQXvQmmxEjKqkaq97/tfKn1J5b/8iS0rISvYhHMcJ7hxJW1wvAsipeqF1QnHAk+SNl1+V3+pX6gV2B4udfldwfZytSHDYCFLVuqizAD1VO1hBnihbAouzS3lRxuN7fHAsbIhYAikBIE2YnvPPvvs+vXrseB9+MMfThgDtYqjF6/0TIBAvLgjr744p1NHwEy5oEUKOL2FUhSkQSh9YQN830/I9sAk2E7BTTbw2NlQJsR61c4odgphdi6XQ1CkgDay6YhdQ/Ah6ZuQ7cEdQQC6ZF+WcQPUMIARwD6uNJP/chTYa95+YyEKxlC2J5AKLNjr5fxh4aFOSSX2esXUsZ3kgi3xSavjOMJ4YtgeOJPskAF2KQTZnmy8yVVsEEK7cERFTOVqqGGNsj1lntDcULanJAe5qbE9HiBWNgQMgZQg0EZsz/f9rVu3fvjDHz7zzDM/97nPJQ+AWsXRkVd6RYDkkuIZsvryuSFTjSgtok6ubt++HUeZrF1OOXO5nGwu4pKSOQa2pxiDGKOcZS/Y2lqtxkfVagcOopjxSKX6LxAbJ9uDHMVQAZfoRdSi2rN53FehzXKiYGTflXeiBRucUWwvykjVfmwnuSBb6vgSjCch25MzUEhDAXQKJ7Pxe3tBthdlGCyEruDv7UXt7aELzENN8O2Q3mqv7e3xiLCyIWAIpBOB9mJ7Y4uBWsUhhFd6RYAqlYq7/5/QL95r4WVYntCXo94oLVBXKBSKxSJv9uCRLyFSoBQwjM8E1XOBaBM8yQVN4e7sgqJ36k8WyE6JAdg2g1+lUgmWQxRTHwjBpqn0bXRvLwp5/t0+2YcTI6Paw3LFX2GnNGgURrjMpBx7usybkxjJxos949nbY1Yne2nJ9/ZkWw7P8PFmGOgUCsLJku/tRRnGvx2DNqyFD5T5GT4mhfIkongKs1mykD9xTbYw+0v9trfHA8TKhoAhkBIEOoTtyVuTOO4RNsCESbE9eTAfJIapklAEEeW6Lt63VVwhmB9MDeUqHxGyLjYMbXK53NDQEMgit1GqQVPUO7k4URV3cAwNigabWSDet1Wvu6KxnEsqbKFCvawq0vDmL15/TuiOvPIsr9oAeRURdj+qPYxPqJffyQWMCjewPWUPdAFJ2fADbw41srlsT7iRxGhpbumhxUMbYnvcHafAzKuENon8Re6iBYUFwV915rc0eLMNz/OxYawR3DGK7al3cvlpRT4mxs4iHzozi12aW2psD+lqBUPAEEgVAp3A9lIVMHO2UxFIuLfHRMrKY0DA9vY6dQSZX4aAIRCDgLG9GHDskiEwcQgY2xsDdRtDF2N7E5fTpskQMATaBgFje20TCjMk3QgY2xsDdRtDF2N76R5n5r0hkFIEjO2lNPDmdrshYGxvDNRtDF2M7bVb5ps9hoAhMAEIGNubAJBNhSEwOgI7/Z3X+tfa/yYAgdGDYS0MAUPAEOgsBIztdVY8zRtDwBAwBAwBQ8AQMARejYCxvVfjYX8ZAoaAIWAIGAKGgCHQWQgY2+useJo3hoAhYAgYAoaAIWAIvBoBY3uvxsP+MgQMAUPAEDAEDAFDoLMQMLbXWfFskjfqMxJNkjrRYvjrFxOte78+/uzHpBgwFZXyh14m1358Fm9yzTDtoyLAHzMctXFMg2bJiVEhH0DC59TjW47zauum8dZJHqfL1j0GAWN7MeA05xJ/lYu/n6ak4/ta/HVd/kCZ4zj4GJd86xbfi8P31pTMMf/ZlMHseZ7yZcz2jK0j2J58KK8hlCRqDHijNqivBqO767oMi9gmHyXDR9vQGIWo9Iiqxxf5VNpAYNsW2oftRUWwbaFLrWFgaeMctpDTUiQxL7VUi+/7rZvG+YuUyb3AtyUzmYx8fV715clQpkSegaPmuqh6CFe3bTAe9gR1oW8nFYzttTaaPN5iOIe7/5+Y4nkeVn0mTNVqdXBwUAZJpVLZsGGDlEUsj4rxu8Rmj1/aZEmYsFk11MHgl3CFu+f2/6tWqzId53I50NBSqRR6PxCVHlH1UWkTame7VbYP25MPIjd3ZLUb2p1hT7NYWrPkxKM6YfNSW03jPB9WKpXBwUGZAxmrGIOj5rqoehbLbA9UT77/jrk3yiSWM9XLxvYaiOBNN910xhlnnHrqqZ///Ocb6EZNOeNRrQY/Z3yhUOB7IGStOiIMFQv5YyiwDWPo3iZdFLATbJWKkXA713XvvffeXC4nM12lUikUCjAsdDNJeYHQRNX7vh+VNlDUzoW2YnsTs/y3czimhG3NClOz5MSDpkZufOPxXMVcMR4hrehbq9Vc103O9hRi8CuqXtnM6ybonWJ7kKn6dtKfxvaSRvOOO+6Q/V7579gIX+hsEuRqkp3BtV8WwscffzyfzzMLDLYUr7DFjZ1qGWblctlxHDlP5INmjARJ/XK5LIfFvPEe2l4eRslms6JI5Khlm43BfonQHeyo884WK+J6NIa1HELuVS6X8XwM39JVKhUcgsMSz/OKxWIul3Mcp1QqqcEP47HtyofsbJ4Yo7pLpfA/DhamIbjAdkplVHpE1bN8kaACIZWFQkG2AJEJocAynnBTssjzPIGRD6bRHpVKOw+B0EBwez7ZSYi8esgB8VWZBmnKF051EcV0HGHiAg7NuS8qHcdJghsEqszh9YxDxrrQV4g+wqoO8dkkwAKEWSAqHcfheiiKAa1QKMi8gY6sNwoKCQdGGczjURblTjabLZfLMhso9DjBEHF4IQWYx3LUhAazo/rCWdkPlmmQNWJcOI7D81JUe1aEgcmzaxBnoAe9gkboNB6ll+0MncYBFye2GlxRcMGpqEMMFT60j5rrourRUQoyzQYnW67haUd175g/je0lDeVVV10lg03+e+qppybteaBdTCor4iJZyBO9yJCMfPzxx9WNUXCBlxsXjDpwCJnHeTqAKD4pVs1wMiizvNyTBdvLHA03efy4rgsfuaNMx2KnKIWQXC6HSR/dWWaiqIuPAAAgAElEQVSxWFR3h0EJ8BQIMKq8ey+zGDTCC0ES9bCEMS+Xy0y+sY3H5sFy7hjc/4OdB7LGZ3oklZIeUfXsIKdNrVaDTJnrsUTJciJR4OgwntIFa2oulwOf47kb9lcqlXK5LIQpn89DO8xmOzkQAIo1cj4zgEHkY8RmMhkkIWxWqc6WJHmgntvDcn4Yg70QXaG4ITSceMoA13URMqUC3fmpUA4l28n1WPCq1WqxWMTTBUh47ggtMaCxAXh0AdHH8FFQCFOR6LBGLrPZXC9zCDITd8LchvMHXkhy4khRyQmdf2L6SpLziFbOCqQKutD2rIUDjWBJUiGRouYopQvTeHx72ClIIqtjohk1jbMjolRWTyxMqoEYjHUWzTBpoH38HIhmUpD5DWMfVxWNRs6jQYcVjO0lDeiXv/xlZKHjOGeccUbSngfa8Vg9UFf//6hU5nVL2svAS8j2sO6yCrWWsBkyg6ihjgYsLVgZvMfiZT7oCKDgqYTtVAIhQc3gsEQKShp6sWvchdFQGvkSd0EzXnu4gZSZkUgNTlf5Es/10iyIc1R6RNWz1yJTwRJUpBrABjgrXSBZgYN6ZjbShdNAaoJmC8PgRVoWTmUV7jTikYfeKLHwRc7TlS8qVThYLBllYIWa4Ek6HFG6GDd0j2nDuoAGOkqB28j6KoucqkcUwHohRz1doACRZspIbqMUIe2lYxQUnGksXEljs3nxRj33VYMrNJSYiMQ8yGF7FOcGUMo21KMAIfBaLoXGXWY/8BsIYQs5NDHaoZfREIGhvdAeBWhX4zcqmspBwMhyuMy8k+tVGc/kBQUKLFH1Sk6pVCoWi5hhcJWxFaLZ2YTP2B5CP0phx44dxx9/PAjfTTfdNEqHV18OHUjSJHhJ5qng9CSjPTiGQ6cPnscxyIN95bYMfo3K9kLbB13gaULNBTyvqUsYvXxeILZhlw5nDcGRqcxgWICAaIe/vFnCUy0DFXXHiXpeeCSmKnbwS1YOPLfH0410VPMpY4WEkvRQzuJ+XamWQASPIxkQFQUsk1FRYHCCa6HcMSNeSjhDwfIRCLRXmYYTZ+w/yZk7YEEhXqw0A0rKFyYuKliQzwWGUeqDAqN0cX5CpurObVjXGNgecl4KSFqBCxtFoXmFxlE+wjYUFNuWjlFQKKUYBTidhPFiCWuRMSL1jJ5qw5eAtmqD5OQUEtXI56i+QEaeBpFeMqUo7zimmEO4PVSIa1DN04WyPFRO0GX0Cm2v7BQzMB6D0hBNtJEugJEdUWX2RV3CnwAqaFj8HAgJUhBdsBZXlQ1MptGmkwrG9hqI5o4dO7785S9fddVVd9xxRwPdfJ+JV7CjGioYVCigC7ITg1YuBQcDb5vzAxZKptoqg1jVDNsVUe1DDYBfKAQdUZcwTYQKRHes94rwKWmYLHgJ55MRdlNpxCWZFqFINROTcGQDC9ViHFy0hKkoacH5iEmzCIdhylnUowBjkDaoYUCCKpjtMQNGd6WCcUYb4Kzs5BBjGWOBaI8CZAYLQeShV7ENJQ02s2qRD6oRJLKhBiA35GpQIFSrS7CBxca0wfAU1/AMBnfnNrgBUOHm9ihjaKucDO2rjMT8oBoHm0VBoZQiBModWKtSGknFGlXf0MEVJUfZA71cUPKDkxKEwGvpjrgnmVuYd2K8BHHmc2foZTREtQAbpRcd2U0YH5SGSyhIR4SD5aiyQl5dlT8hFgWphyVR9UoadKn2qIe64F2xEjWl/zS21/LwqZSCPuxmy9jD3XOpVMKo5jL/6gr6yoKUzWZHXXJEL8aJ/MnZL1spIkdMghlYQaPay34b+qoHPpSD7AgL5Ht0dVqHaQhERM134o4yQ37rRJ4ZwtQMUaIOW0pcz0SBERNHcL/OIUM5FGephJHY22ODxSOwK5xiKPSQElH1ssYjdow2mwFAYtheVBQYE6ZEWMZYJguRHBOsGHB54UOefURKiINIbNTzWhIcXDFi+bk90ETRAriQ6oIVlDJ0XOaRiMaIERiAuByFGwuUNED70ByOZ3vYpQOBU1tEGDt8TwIypHKSHYSdMaBxXqlU5IxVUHDUmDuqcEA4W8VJxWK5jRpccITbsBxOWkEPAzOqbz6f5/fnxFnpxZAydGwtt4cKRIprpAwoeLJCvole1sU5EKVX2amm8ZhoIvPFNh6hsBwjTiYH9QtimBOkAEd4IOASxpc4GKyHUinwLMGZxvUiCksY/zCWkjZ1/zS219rYyfjBMQS/48YTjaRa6JEBniQFLxGL+Z4PKyI7I5MXVGPYqMcXID+XyxWLRaS767ry6i6foMmAh51oLwMYL7qKLp4C2EF2hNvIfIShy9BhMWY5aBnqdSaTkYGt2J5MoOKC67rYReBZQE2gQDKTyZTLZdz/YccuuBLETNNYVsVsdpPlgO1h4gPseOad0QBEIhZhZbQZKF4tVBSYUrN5UMGrBbM9iaDYCc7BlblcbmhoCIFjABEINoYdZIHckZ2SMl9VYvP5PEIvjcWXYrEYNFslJK8NrDQUalTycXMMbiwQmMfkMBM17uu6brFYDL5Kz1Fgkzi38aYRDFBjH4piQOO8kvZJoFCjD1GLMltNREgqhTBPkjy44EiUHNxFBwddaF+MMsaT5wqu53mJ67k9tHAs+JRG4RwqR5IkdBoPbT/qNM5wqSwKfRMLXig8ARcmt+CcoF7B5qkAExG6jxomyBcX5E/OTHZHdHEXdmTqlo3tTd3YxVmu7k3VJBjX0641CQG1gDVJqokZIwJMIllE/NDgNZVJMEtoqzIb3DrD4kFrnd60SRbawTfzExPftOGcEn+N7XVmoIMbSPgOR2c63H5eqRC0n4HpsmgMbI8jWKvVisUidlXbFruJYQPG9iYmARTOQfI3MWaYls5AwNheZ8QxxAs+xeCd85CmVtUaBKLO/lqjzaTGITAGtsfh8/b/i1PQHteM7bVHHJpmBY5c5bCS9/mapsMEpQMBY3vpiLN5aQgYAoaAIWAIGAJpRcDYXlojb34bAoaAIWAIGAKGQDoQMLaXjjibl4aAIWAIGAKGgCGQVgSM7aU18ua3IWAIGAKGgCFgCKQDAWN76YizeWkIGAKGgCFgCBgCaUXA2F5aI29+GwKGgCFgCBgChkA6EDC2l444m5eGgCFgCBgChoAhkFYEjO2lNfLmtyFgCBgChoAhYAikAwFje+mIs3lpCBgChoAhYAgYAmlFwNheWiNvfhsChoAhYAgYAoZAOhAwtpeOOJuXhoAhYAgYAoaAIZBWBIztpTXy5rchYAgYAoaAIWAIpAMBY3vpiLN5aQgYAoaAIWAIGAJpRcDYXlojb34bAoaAIWAIGAKGQDoQMLaXjjibl4aAIWAIGAKGgCGQVgSM7aU18ua3IWAIGAKGgCFgCKQDAWN76YizeWkIGAKGgCFgCBgCaUXA2F5aI29+GwKGgCFgCBgChkA6EDC2l444m5eGgCFgCBgChoAhkFYEjO2lNfLmtyFgCBgChoAhYAikAwFje+mIs3lpCBgChoAhYAgYAmlFwNheWiNvfhsChoAhYAgYAoZAOhAwtpeOOJuXhoAhYAgYAoaAIZBWBIztpTXy5rchYAgYAoaAIWAIpAMBY3vpiLN5aQgYAoaAIWAIGAJpRaAlbK9SqeTz+VqtllZUzW9DIF0I1Gq1fD5fqVTE7Y6ZAarVquu6CacyBUKnZsCkuzlh2eV5XqlUSh5H13U9z0vefqq0rNVqrutWq9UJMHjCgjsBvjRFRRMBaYDteZ7nHPiXy+ViZsAm2tcUvKKEeJ6XzWYnJomjbLB6Q6ADEFDr3FSZAUZF3theEKL2YXu1Wi2Xy8UQslKpFL9UBb3jGmN7gsaUY3vjjDvnwKSXmziXJmV7Cr7S/n9RQDTRvigVHVk/kYOqrQBsaE1tK8t935+ixpdKpdbtQ3TMDNBQcCedBk3M0Jh0N8eWXY1SN9/3G+2i7nmaG45GjWmi9olcmMYW3CY6226imghIIrbXqL5G27cbvpNlz0QOqsnyMVRvQ2tqqIRJrJyixhvbS5IzDQV30mlQEo/G32bS3Rzb+jIGttRoF2N748+usQV3/HrbVkITAUnE9mJ28qrVajablQNe7KiLfcViUep5L1323oP1wLpSqRQKhVKpBJlQoU5d0SaTyeCBIRmfruuiOyRDjuM4YqrCkY+qXdeVjsoe1MumTqjvhUJBDODGwSlSoVqpVDKZjJjtOI7su7BJ2ImJMSkK3kKhUC6XM/v/AStxUCEGm0ULO8IAopnv+wgEEiDGDDk9dxwHUWMfUQmZqEEcgwVWVywW8YiJ53nKTmAY5QsLD7UBHSUbQ43nSmhkyYVCATgg1r7vBzFn1wCFWlTgJjeOGnTyFFoul0OmASKMGjaJzYZf6CL7H0FRSUYWS+Ysgps8xNTYl76MA98pJRwgrIiNQYgdxymXy/zcXmhKoK8a4zyiORwQgvECCeyy0h7lrArBqPmmvB6DkeKmzCeO46jQIIvgsoTG8zyZ31R7+B4KC6RxTnJ2MSzIT/iIocFyxDCOMgcCQrLZbLlc5kssJBRnNgbuRPnLBmBARWHFqsV+z/OKxaIMZDESljNWPLJknErj/9/e2btIdmRZ/J9JT2ahP6DLXaeslpVInqDaGEvPHEE6jZx0xKyRIBkCpaBZwXYJwYyGNKRZkLEgCRJEI9A0cnbJ/XYaZq1c6LP8ONx479XL+ujqrD6NEFHxbtx77rk3Im5GvKzyuPf64ouJL6pT8s1dI0Paxa0Xw0jx0CvveNq47/d7dwQBjVqtVhDrgXb8Hhqx7UrIXm+U9YeJMA6mRBOFnu37/R7AJcrIjzQmVXuexK7LV9jdbnd2dqZKQlGBvu7lPw3suo5+ce0KteGdnJyIYpEOuS6/2Wwgcbvdnp2d6fU7ZbxMOCSFXGnNouw8ukJxKiXyRXiKEqoKN1R8d+9YehR1f6tdYs6nqMCv1kQLyWFrkpOpXdcNLTpijAlPgIoj7rsbcg6Xy6WigJIWBtF0wssJij/y4DqZ3nZz7qkTLiQkwHw+b112nUMYmAvb7Xa9Xrc3uQ7Yo+bKHaTLjHOOZudcsZAvzoNPFu8HfznbcxmHBOzdbjefzxXf9Xqtme4sDWXFkAyatfL2TmfQwraP4qkmFPNxZM563OHTdXqeqw0wd2RoLJO6CBAOjx3zBQAj1kec7V0l0Km49M6764BkPcE1n2KeDHKqVx6QvbQM5aQLQ4v7goCvAH5Q5yutZ3tRcnJywm41BAYXfCa6LecHYQ/0RK5cJyUOi5gjd488aTlf8PXWBwLPIalN+FzeDTHWXfNFoyxuQxiKGMXDiDz538bdwZQtdUqp4Dw4e8vlEn/bRnGBBLgUDNF0nTjlYLTvUHG5/Ej7WtVe0esTz7+TS8gdd1mgUVVk0KlQSS3lGqPYunx6++pT+jXQbS0WCz/04hENDSlTDgDgLPIIKDzsl714fA1SaD38mC4mhvpdG/AcDx5RFDrJrRUXY+755JfCMnAIhvejrbcOJrgt+MJqSapCMnpKv1uXiZEE80VfwmV4oZroOPgiwzpSqNNnxHagw2MIDVxQ9VP60QYbbcGqicM+pyG9K/uUWTMkAxJ3R51ga9lmVJkgnk7FZUIwxKfrLGMJ7ghIhrsMLuipr4FsTgykMWR9xNmSSziLzpGxVwPpbvYmj0wzy6bIt8sIzONI7zTBfRrIqyRi1eplRsKMxQQucHDgR7y9E6TwDIwSUzQDzDkc4argh97iAvqF3D1q8793vR1fVOGqGNKP7Vimfy8PGuVeFzEmDvoL5oIHVKK3dRn5QiBzofSThxRtjqS3PeTCdDCuFm0g4akHl86RxqRqb0SpyliuclSdgE+GCVgR5ozX8ZWxxKZMCb+KknWZLqEaCqEsYsuzrcXslatPueJOr+/umlef7hcyvmNp7YDYcgjfC6ngcXp7zcluYQxOaCBWwHDmwbk3DPiV9BAMd9bzWB+Aii1phihvFJyutrjmyVD044s0j2PQHQ1DHPxI1BxzCQfzq/hS8PseQx762F7ai05gwIaX+DxtTWuR9ZujKbNmRAZbB7HNqLK5etyLy3DVOgV7qC0yBHccpIa7syXE/qjMF0yX6sRXvBFn/WbHVwlX62CcKO8vm+gISPelgCwsaccdkXeQxWIJopPjj3CBhuv0aJIGEiirpVaYooQhblHDXTMWfbjHhbUCSb91VdQkM8IVYHoBuDlPg96zPY4GJcm5L/CKvyVnNIr/l4+FygHxydY/tMigBAzFtGtw0pB3zsFPdGjwiClfHrEeuhXBI3x6xDEnOktjyIVisaznXv27QrTR4GmrkEe9jUnVXmtGusoHMngv8qyYpb8XUJFBpy8rZUq4nuK/h7BlE1utQh7RkBWm3ETfHRsZ/9e//rV8UpSYT6qyvrueEUheBfoQp9H7fQ1VP58/Wistga6KSV4GuozDcGfJkLLl+Nihti8HGs6N3kHJ4PrbfPCnarOMOviRqLkG58E/AxTqCn5XLq+VSLpdLWMxN9TP1CAt/XcqsSaixxs6cmtZwhaNERkUtjI8ogHb9DgbJe5YlzBzdoRP1JaxBHcKSJcpIS5ZKsB+rSwAQ9ZHnC2GcMQbLuPzzvu1wHL5oOFMatfmbpZl2T2C7SF510kbi4UK3xr9ES7QQFVZ3EgDJbyfsDK2pD1D3KL0F0l1osfPpNuxBZgDHuEKMJKH3mLatZWqzqsW2sWihpd0HcmZYo7Epozjg3rhwWe0YyhiTMAheTh3JJBDg6fIl0esh6WfgTTK1k8/jREXyh46BAZVvjgXtT4jXH6kPana01pDfshM13VuXh+VFFq1KflJfWayAPlwIJZO6PBlBQAa5blSQkUI9cFR8JB3W/4rZoRT+F1Gk6ftL74PlVyaCefn58vlEnJwnKdcKHt++3I/BGmEXqfRLbIcwAzrdbFSLvLgGYZBOBGGryBlcfEzc4JVYPOjB0sY+Ozl01Ify+TmkC/oHEowlh6fhAX8UNRcub+35yBbzk9PT4VZkcI1ebpcLheLhTQP0d7yI4W+XRWZ7Xb74MED8lD6fbNh7JRZMyTjhPRGvJftoVGFUp+DIPdFoOVTml1GtLDu9YJ0PJ6r5Xd58vpRO19cw0Tr7uzEfCOLfN5dDaS76cuy94s67W3e7/LueEvLSE76NGFlc18QYJlSuNlrEdBEPjk5ET9FCe/tjYBxLwBDQ/OUFEJ4aAka4cp9Ke7oR7cCABqYLmP17Zky2Yu/B+Wbc+tGS7+74xiGioch+RIyTXyEfULJcZZQZASSDOwNjc+asuC7j2oPuTAdjOuEtxKU3lXaB7btqdWe9j8KdhKLbx7N5/Plcqk5o/MhzpaZY6Xwh3eHhW/q9GT11b/gYS0bCiGzWi60FVtRSDVW8LBzuHzx3Xcad01tz+zep0PfV50CSQkhH51ep7EY3Ww25+fn3IwPWdEyzXeQSQC3yFjvHILh8wcyESav/JtHJRY4olkkry8uLjjbQ+1sNtNHDvLEh+ALCtXoxcA5P1CxQg8yfPu7aO66brlc6uKVKwmvIJF3nOjXU/+MoZ4h2l0Jk5FORc3HOiSQaN8SySjBd59WrSPOJEnimosewgSTxffWX497yROfs3jtLxgUJCJW01DrCaee7gggGV62asAr/VrMvVQMWfcAubPaw8T/SL6Btsy7K4Asbvqy7ODX67U+iozIO3XtEuQue056fH1lIzoI+3aANmUvwr56ex7O5/OLiwtixHBfn8GvBmA8zcrXuhniMixBI1wBQPjdNen0UALbrXge+u7Mq3VgK6v9ofkGt86VRw26WE/AMFI8DGHGXG/cnQFfRgqBVHvFd0LjuU1xTMSdOnl6fn6OdzydCAb5spaSA06sC4+3D6j2xhXl6UQGuCqdKH/bYiXpb9vcdfRPoa5sZtcxd3tje9eIQ835Lnvo2MgfBQMJ8VGE6bUFqeKAQl8f2PzH20BeDpvbIu82jN6VTopUB/Daupxqz8P0Kto3stPfINAjqvb4xR8j7r851R7XqSNs5NFRM5Bq76jDd+fgy0lhW/zdBsKyoZTi7zYs3pXO3W7X+6tYUu3dVUReL7uXXvm/erhlcr56ABMtDk2tMvwNqfbKOl5IyI/3g4FUe/cjjnfoBfePulW87YM9ecqV62w24yb0Dkm4JdNDpw+p9m6J8KgNA2EgDISBMBAGwkAYGGMgN7lj7ORZGAgDYSAMhIEwEAaOnYFUe8ceweAPA2EgDISBMBAGwsAYA6n2xtjJszAQBsJAGAgDYSAMHDsDqfaOPYLBHwbCQBgIA2EgDISBMQZS7Y2xk2dhIAyEgTAQBsJAGDh2Bl67am/Kr5Z4TX7Lhv/uktftt+i9mry81a+a+y8373XnBq17KHttHWnnlF/hMUXmIPdvMC6ye2kmHAQvwmEgDISBN5CBVHtXD7qXCKn2/M+hXp1TG3npHn9TVcVN6THsr0vTK7mhALnMjeC+cT7JBP3doYm/M2zI3xvxMUqOlAH9hmH+sNiRehHYYeAKDKTauwJp/z8k1d6N7+seDPZ47/T2rVp3Q6+yfbO11xRtU2QOYuDG43JpJgjeFRy5wpCDqHhlwvfGkVfGWAyFgTeNgVR7V494qr0b39c9GJfu8bdq3ZG8yvbNbttTtE2ROYiBG4/LpZkgeFdw5ApDDqLilQnfG0deGWMxFAbeNAamVnubzUZ/euX09HS9XuskvLxjV1ac1WqlIScnJ9vttmVW9zKS6bpOAkUno3QCL+Hlctl13W6309NeQyg/PT1tJb1zsVis1+uTl/+2261eClyv17PZDDH/UzBcJA1Ve/7Haob+bkwvn+WvVpfXE3vdhJ/9fo8A9xROWi+S1tmhIfA5m83Q7/u6s9ErjMuz2QwOHb+7MJ/Pl8slYr1jZX25XCor3MEhL0qsRXg7HFQ4Qibs9/shMIvFQnlCMrd6ZrOZnpY8X61WehlAYGazGbNmxBwRd4tgns1m6/W667oXL14INmJDMsU75HFEDaaDc46MZ4Uz7HEnQLjJcDVwzTPBScMFhcZZgkPwLxaLzWZzeno6RCwwXA/DPTNJfgBrEm02m5OTE9e/3+/bfGv1F7rcRxdmLniMBNvFcGRoFULYvcMXWB1JHrEBHhR6fFG43+/Reekk8lEtdaQEPkqe/qFUEQYmgr910wt+u92Wuexk4rjEsN7Lp3uUdhi4WwYmVXvb7fbs7Ew1k/L+0mrP/xayD8dbLffMnK7renUij4D2DxaOIUNM6e12u16vtUSyUmtzlfKu69C23+8FzLcxN73b7c7OzlS8en3j5uBKy2K7CjghzudItTfkJvz4nrFcLhUsR+4uM2rcWYZ43ekMuFHY8MiydbnLrgEkChC0axVWegyNbamD6iHHS6z90MiHgMrDqiyaCAYNZFSb6qhyGstHJmS0Y5F78l3+FsLn87lsleAOBWj+8h8VISFQNjJl8OhS0twdZ9Xjvnr5T061f1ncs90zgXTymcIEb6lbLBaC3XUdJYIrL0P8kbvvHjG5IKTw7CEr+TaknzTb7/fYcj1OnfcjXBxxGV+F/O90t3/ls00kkoHkkdfkgBtykJDTG6mJo3xZdup8uPcPpcpQted6HHxZWJxbHzI0B933tMPA68PApGqPpVm4N5tNb2XGrPBFWUNYHfC8LB8jYzVX5/M5R3QUHyOGfJvBKA1WSV+M9LToBBhjYcNdYL0unvry2mpQD3wWMFPcRKcvQ+p0H1Vz+IGoZIqzU4Y4SJeHDRpg8yHqdJcRg0P1wGTpZ6xb9yQp/dDYwsC0ak2KRfrbLJoIBg2tZs+ozWZz/vIfh9/+tAU85PtQv2sjLoUfl1ksFiDxysPd8TY6vRP9rlkCzB0+SPhA2oVkMsHTtQ1NMaejF+l0hZ4PZciQ++3kAqpm1vn5ufOGORqSH9LvNDKEhsYS4tKvp8URGOOp1k+vafTI/0/gGMV5mCP0s70CBpCuto3UxFF8QPK4SzMOFlX0lyHOD0NoSCfgCw/ui6stYgx3+bTDwOvDwKRqb2hWeOr75yd9RuQ+RQ2mrpz3I3QJ6HNk0SnhMq9Yr8cN6Yydj6faO0FFf/GuACimffP2FRAlNIS8aFNnkfFlwh9NdFM6xb/uqkS1Pnrir19MM6TAGxlSHmHi/PycYyFVS04Lhrj7A085NCpIyo7CKDU0toSGwrpAdcedXk7dUN5We4Ixm808W5AfAYPjSpgyBG3KSafCt6WSsSPmSKFCvmvjEQ2BRKYNAZS6O2XStaQRFxoMd9NaAfz8RmItjKEtvExwHJGeQ6u91q67z3VkWcemV3sj+pnpbnFoypQclrPF9yLjpgmfZ52UeHR8PfdFT5JEZAikxPh/idSUUe4CmH0ebTYb96sAK4+cHzQPwejNW0xzSFzEmIN4nUYYeK0YmFTt8Ylc0EnroRlV+nsdLisLMr1jfRH0Y6peYVSBVpurf8T0icrkl3zR6ZISgA13ASU0JFyQFw36ET7LWQ57QIGkUUP/18q42Wxa5O2QonloSDnbwEeXhw0abo4h3lnaRcZ3lHaLbU+eWNAd1YgJiJJML2yGc2FUQCIwYnRE82q1Wi6XfjKEF9I80RwpVGC4NmAMyZRkaBmmPiYc6IQHH1UMqXQuRUZJrV6vyYQWoQoRTXB3VjD8JhfMTKtS0LTKW/wlZ4S2HcgZnoevFXP9WlWIY1kKnF7XSX/xvcj0rkK+HkqP4ynklEATkWIIPL2NSyeRj3LNLXVIuph/RCxDnB+G0ECbGoUHYJfKvhUruV3U5scwcLcMTKr29IJz+96en0xoHeTQwm9qysSTw+VOgdWkV1jKmUv+NkyvIZ/bzEmf213XAdX7y3xme8P0drt98ODByHt7zpX4aQ8/XEYHUeh3dy5101OH9Zd9ouxM8OCjCttDQ3ysAGvv9H4iqFMQCaDfV0wQOhKt1ATFX8EZGluoY/ca8qLYBRbwJ5YAABIvSURBVBtRLpHqzaIRMBxzFr+GUh32vOIpG/NEc1QJhfzyTp4cHJHx31FXJp2cupQ0r/aKBuZOqbf8JQ1ZcRieCVjvDU2hbuLZnlt3uw6+nVweYkl66tIua8uQfkjruo4b4aHQl9VDWVd8dxlfhciT3sp7JDE8RT0iQyDhpzdSl44qU1VomZ6kwciiIQ1aV0uACMoQDCamvGBl00eLS8/2PHPgIY0wcOcMTKr2NKl0lD2fzy8uLqhOtEDom2iaFbrX8yGXflfLb8p8Jjs7GJrNZhcXF/4KGt+KckNakvwWzzX4dxWZ/DLXAtDslftM9XK74UowzRcw3RG1wVz4dFtT3ESzDyQ63tlembWlLXWPnPUhDphvy/qy6Gui36UCxmmhE/xqcLei0o3zmN6x2s59CNqGHPcwaYvle5Tr9ZqjIPRg16mgc+jryQyn4bmnUmCoBGTiYHGKOd/FIf/k5MSnZG+AigzWlQC9YXL9vaR5VnggfO64Euob6NJWLQyeCT43oQWiAK+eKdVeGcKPxX33ouVEqPhuuOMp+TakX477R1D14KNnmitxSjVDse5jqZMKsU642h4XTx436hHRMii6CkiUgwRsU0aNU8fKUDzyupxJV5LcNYPNwXsCywtfZDi4LWLMQWVLmycQkkYYuBMGplZ7Do609s60r8xA+LwydRkYBu6cAa9BrwPGK5Xr6LmpsX4sd1M6b1vP68bhbfsb/WFgOgOp9qZzdVuSqfZui9noDQO3z8CNVHvlKvb2UV9uIdXe5RxFIgwcDwOp9u4+Vqn27j4GQRAGrsrAjVR7fs9+VSA3PC7V3g0TGnVh4E4ZuEq1d6eAYzwMhIEwEAbCQBgIA2HgAAZS7R1AVkTDQBgIA2EgDISBMHB0DKTaO7qQBXAYCANhIAyEgTAQBg5gINXeAWRFNAyEgTAQBsJAGAgDR8dAqr2jC1kAh4EwEAbCQBgIA2HgAAZS7R1AVkTDQBgIA2EgDISBMHB0DKTaO7qQBXAYCANhIAyEgTAQBg5gINXeAWRFNAyEgTAQBsJAGAgDR8dAqr2jC1kAh4EwEAbCQBgIA2HgAAZS7R1AVkTDQBgIA2EgDISBMHB0DKTaO7qQBXAYCANhIAyEgTAQBg5gINXeAWRFNAyEgTAQBsJAGAgDR8dAqr2jC1kAh4EwEAbCQBgIA2HgAAZS7R1AVkTDQBgIA2EgDISBMHB0DKTaO7qQBXAYCANhIAyEgTAQBg5gINXeAWRFNAyEgTAQBsJAGAgDR8dAqr2jC1kAh4EwEAbCQBgIA2HgAAZS7R1AVkTDQBgIA2EgDISBMHB0DKTaO7qQBXAYCANhIAyEgTAQBg5gINXeAWRFNAyEgTAQBsJAGAgDR8dAqr2jC1kAh4EwEAbCQBgIA2HgAAYur/b+8z/+Pf+FgaNj4H/++78OmAcRDQNhIAyEgTBwfxmYVO399vzX/BcGjouBVHv3d9WKZ2EgDISBMHAYA6n2UsjeTwZS7R22EkQ6DISBMBAG7i8DqfbuZ61zXOdwt4E21d79XbXiWRgIA2EgDBzGQKq9VHv3k4FUe4etBJEOA2EgDISB+8tAqr0jrnWePfvlvQ+//Oa7H2/jbOxudX7x1fcffbK5DoZXXO29ePGi67rdbnd/14oDPAsbI2S9ePHi/Px8u92OyLyGjzabzWq1mghsu92en5+/ePFionzEwkAYuG0GDq72vvjq+7feWfHf2+9+WqqNR4+f8vStd1aPHj89dM/+6JPNw+7Js2e/HDrwmvJffPV96841dV5h+EefbETgg/c/++Gnn0c03Hi198NPPz94/7Mvvvp+xOj0R9989+Pb7356NW2p9m575t+q/lR7I/Sm2hshJ4/CQBi4JQYOqPaePfvlYfek1GHtjv7o8dOrbfDTy4hbkvxg+fV7H355zSOla2L74qvvqY8vrXhupNr76JPNLcXro082jx4/xZ2DmLnU90u15WzvlpaMKWrvR7V30GnWFFokk2pvClf3I4WmeBqZMPBqGDig2nv0+GlvJfTNdz/+3e/WnEIdabX3zXc/vvfhl//4539+78MvX/2xIrXLQbXX61zt/fDTzw+7J3/+y48PuyfkBm5e2ki192rm/y1ZuR9bdao9T4+D2Lj+Te79SCEnMO0wcLcMTK32vvjqe53q6YTvrXdWD7sn73345RdffV9qjqFqjwtKSsYPll9/8dX3D97/TBeXnDBxvvXs2S/S9va7n771zqrcbPqdMgdIWHF5OosGrzkosz5Yfs3ddAEgBriqBvBvz3/tNfHB8uuPP//27Xc/5YK4F7PDECFteaQ7VhGFs2JeJt56Z4WV357/6vIQTuwkyY9+8+5Khpwiai7sXvz2/FfKNYiVgAe9DIecB+9/9vHn3wq2QvDx59/2BtQ14LKiXM72drvd6enp7OU/f/1otVqp0x9tNpvlcjmfz2ezmYQROz095eW8Fy9eSGY2my2XS39vb7PZoHaz2WiSd11H53w+11tNrWZXe3Jy0vuC12Kx2Gw28kiQ0OPeuddd17VrjbZwgCFTzp92u13XdQLs8PBiv997f2EDbM4eFGHU4TlyPNputycnJ+LQTV+HDVUVm81GmkEIJ7PZTLaGIC0WCwm3jvgQnhZu8dqF5fJ2u10sFi4wn893L/+1yTzkSAmNwyB7nUzM7fd7YnR6erperwmEx7p3bKn2nEymA0raJPdAz2YzDQEMPfv9XhSRYKvVChoJpTwCgwP2ge642qiazWbOW9d1bcKU4T6WaPq7jF49LxaL9Xp98vLfdrtlrLvgnLgLxW5+DANDDEyt9qjhOOHzusQrJIohrz90cqYzsw///k+qZh49fkr59cNPP//d79Yqs7zae9g9QUY3gyoaqD71I6ioOVBC2aGajFIJyd+e/6qSQqgYqH4HINdUhfiJ5pAJd1AFkN+Dt5gFSTWWS6oso7hkoPqRJCLujhP70Scbgf/hp58//Ps/YQ7Nvz3/lVCOOEWNVaLglKLHQ//b818fPX7aO9z51OsBVHvl/QE36qNI0W+++/Hjz7/1as/PCXa73dnZmUqozWbDurl6+U/zRPsK25Kvy6vVinW/6zr2v67rWJq32+3Z2ZmKQjfHJMSWA9hsNqqo5vM5pl0Vw/f7fdd17JHasYTKzWk3RZWjRVXxFJlSkXi1h8x+v5/CRi97u91Ohct+v1+v16WideQgKVQU01dmQ7aInat15EMppD2YNIBYaqyWfzwqwnxaIIhFkgxpJTHX64iHTJWKUgjY7jWonPDipiscGktl48K4puQRgN1ut1wusauGE66qrndOCRjJf3p66pnAVF2tVm0gvCRdLpd8igOAz0S8GEkYXBhKYDhRJQ3/vnooNEK73W7X63Vxv8w7jKYRBsYZmFTtcXqn6zlVReziPNVmz6bre7/vyvQXSWoR6q2i+Yeffn70+KlKRooJaQNM749YLGLe/8Hya/3oPhYAAFMh2Pt9WDdRHBzHDBg1VPOp4nG7OrcTDwWeaikv3aQKGF4uY649e+NoE5khp7ysRNgRtkQBphTZRF96qDWLj+VHVfBymSJYGrzaK3OADY+qi0MCSWpbLaP0IzuE1yvaa9mD0Y82lnWt8tqEyl6Ofj/O8aXf8bgJIEmAR8ULr9hQVWRQVbAxFgFpYEseYQNbIlkbnu/6LqB2QaVO37D3+71bxGU3oVE8KjrxaMjTsh8XkKgthLjYRIs+hDb6veJcLBalLPb0GHKkF2HpJI4A8GpMnSCZMhYZeEYzk663TESsQIKQcTAuBgZ0MlYT0MvZIuPzVI9wZIhn11BCr0cFD3x6ECVJZYnOkeRHJo0wMM7A1Grv0eOnP/z08zff/UhVRAni5dFQweF3i5QjvvFr2y7FTdnaqfZKv5Tzflj71I8bOQnz6sQF/Fq5qMJljfXqzTVgwh0sqgpmB0MbYrni5MpVJlqdWNTxGPJwLlUcl3q1dDWnlBhgVoMrYAAosiU9vFgEuTSMVHsPuyeoVQPv/Fi0VHt+D8JNkB+tsQm1C72W43IJW9Zu35y4M2II1Z7XKGXb0ERt9wkHxmQe2dXYGPzmS0g4yERPMYdTBRtbXaFxNpvpMImB0uxs9LLHWRR35UDq5b/dER3hddhwPSoiubP2/Vh1JPfIpFBxvHhBAjj/xSJDCrc63SFh3FCvZFHrIfMjJZkrGogjYFrCYWPKWNDSQLOnnFKU80hkysenkkIiU3Oq6PdMgAFPNo3lzI87U07+wDA0fYZ4ZuBQAheo8NlSrVKbVwhagYLBTacdBoYYmFTtUXZwxqN3pLSFlxOjsm2XOsAvJYskh0wUVaWaGan2AFbqCf1IqeFiAMM7eihqCwCASZJqz0+V3IQ7WFT99vxXl8S0NxhS7CKDAD2CVE5SHYYkXQDa9ehQp9pqr0VF4Ep0vNq78tkevtPQVe+//Ou/kfTlQzxbgi/oXgn5hqSllnKNJZttWFa8vkE/AJDxX7TWu2QX0+1CL1VuAkh65NUeu1pBwo/FHC+KFWxsnMUWesbZaNljYKFX/QWVOt3l6Wd7l7Ix5Kn2bEfOTaIHZYiQoS1flYengbwbSlFs4ciQ5JAjvQh7Oz0o08/2yijcUYnZGmo/vRSPpMEnFCS0top+TxKS1u9Ve+NSBGSlNwnb8GHFsfWOLVDHqz0waF1yv0ryu920w8AIA5OqPfZv3ut/8P5nf/7Lj/qCBUdZ2m7b2qIcICHgr7V5/UFxg11p9qLBfyefUJVzQfZ+zKnUKGj9+wQMwS4NPQKYfvTCiOOlR4+fYsJNiwQeOebWLuYk7+/eCbDePpQSdPJCm9eR/IocL628wC1l1kFOuU68oFamx4s858SH89Kh6uC33/1UAS0hEI28fMlTzw25X6o9jjd0MqGP8mUNZZ6UxdrFuq7T+qsdgmrA37zxI0PfqNp9brVaUWXKqA4bOGnQVzHKG0Wus727pCwot6XFKTmrelfmyp7HdZL63WvgsYGNsNHLnm91LS1OAkVMoaJ7+U9euAkg6dGlbKBf8r55O2Ou1lPI+6WB/w/xXyxK3vW4fsVXzioNhiSLWhxpQ7PZbEqsXSf4nXBBUrZPGYvCYn273T548GC73XoxVz4qCEBxZ2hOYUijPBOcAcpr4dGnIHKjTCipmhg+rMCbqrHT01Omlay7QuezWHeFeOexkLxcKPQ6hrTDQGFgUrVXtljfxdu232nqq7vPnv1CmfjWOytO2h49fvr7P/xR37flzf1Szfi7cb6jCxI3eq6TTunkq5pvvbP6+PNvefMP5NQ39Ej5R59sKCb0aKjaGzLhlY00+BUnmN2u38BSxvk9OJTy3pu+r+pfWXVyHnZPfv+HP6oYRbmzDXjhgQ36C2/ulJdreFEOCwt1I8Mh52H35JN/+CfhKSFoaaTO5r679zu5fPluPp8vl0stxNzjlPsd3+ZZuyWzXq+56fPhFxcXvLen8wPJc1OpdZlObq+49qXH1dJZ5q3vamwJkvE9zFVRVrqqzWZzfn7OdzMpXt3rk5MTEdJ+J9fhuS1nw/udPRzvPYDUdii6QOVnsT7qOmyUqsL3WkJGcSA8nkKFfOfWOfRbuWKRIb0pyi2k+9srWdS6Ix4C9OBd7zUuuYTLFxcXBOLSsU6LC/MVCr8Z907YYBLx1KMPEjc0XjbpFv7k5GS9XuvVWAeGQgfgvDF9Rnj2seMJPJ/PnU9PYBwvcXH3SxB7wTuYtMPAfr+fWu1p7/f6g939yg3f+K+sJAPDQC8D5b29drZrreeYqmwVrfy97Cl17b30MU6FgTAQBsLA1GpPGyqnLzo/8yOi3h13vDPV3jg/eXodBqZUe9zvcILixd+bsDqk2nsTohwfw0AYCAOHVXvX2X3bsan2Wk7Sc1MMXFrt+V2SrqvetFKv9431rIlhIAyEgTBw/xi4y2rvpvb16AkDLQNTqr37N5/jURgIA2EgDISBloHLq73//dvf8l8YOEYG2nRPTxgIA2EgDISBN5CBy6u9N5CUuBwGwkAYCANhIAyEgXvDQKq9exPKOBIGwkAYCANhIAyEgR4GUu31kJKuMBAGwkAYCANhIAzcGwZS7d2bUMaRMBAGwkAYCANhIAz0MJBqr4eUdIWBMBAGwkAYCANh4N4wkGrv3oQyjoSBMBAGwkAYCANhoIeBVHs9pKQrDISBMBAGwkAYCAP3hoFUe/cmlHEkDISBMBAGwkAYCAM9DFDt/R/L/LyC4BZqbQAAAABJRU5ErkJggg==;" parent="1" vertex="1">
          <mxGeometry x="61" y="470" width="847" height="292" as="geometry" />
        </mxCell>
        <mxCell id="HlJCmr9RVTCrGqRUd0Zp-19" value="" style="shape=image;verticalLabelPosition=bottom;labelBackgroundColor=default;verticalAlign=top;aspect=fixed;imageAspect=0;image=data:image/png,iVBORw0KGgoAAAANSUhEUgAABD4AAAFGCAIAAAANfMiJAAAgAElEQVR4Aey9f3BVVZr3a925daveuvX+d/+5/9y/Tt3onaQiOcYgQSDRiARsERkQYqQZoFqYkR8yfRhp1DaTnnZUMgVtO3h8waJiJ0y/DY0m3UqbY4eMcaAz0tKnCdLEKD8kHJImCBwJnnjWtflOf+d519575ZxDQhLyUJa1zt5rP+tZn+dZaz3P3mvv3GL0nxJQAkpACSgBJaAElIASUAJKYMwTuGXMa6gKKgEloASUgBJQAkpACSgBJaAEjKYu6gRKQAkoASWgBJSAElACSkAJjAMCmrqMAyOpikpACSgBJaAElIASUAJKQAlo6qI+oASUgBJQAkpACSgBJaAElMA4IOCTuqT1nxJQAkpACSgBJaAElIASUAJKYIwR+K/UJZ1Of/3114PX/qX0nxJQAkpACSgBJaAElIASUAJKYCwR+FPqgqQllUoNDAwkk8mLFy9+of+UgBJQAkpACSgBJaAElIASUAJjicAtyFu++uqry5cvJ5PJVCo1Dra5qYpKQAkoASWgBJSAElACSkAJTDACf0pdvvrqq0uXLl25cmWC9V27qwSUgBJQAkpACSgBJaAElMC4IXDL4OBgMpm8dOnSuFFZFVUCSkAJKAEloASUgBJQAkpg4hG45erVq1988YU+cpl4ptceKwEloASUgBJQAkpACSiB8UTgloGBgT/+8Y8DAwPjSWvVVQkoASWgBJSAElACSkAJKIEJRuCWK1eunDt3TlOXCWZ37a4SUAJKQAkoASWgBJSAEhhnBG758ssvE4mEbhgbZ3ZTdZWAElACSkAJKAEloASUwAQjcEsymTx79qymLhPM7tpdJaAElIASUAJKQAkoASUwzgjccvnyZU1dxpnRVF0loASUgBJQAkpACSgBJTDxCPwpdenp6dGnLhPP9NpjJaAElIASUAJKQAkoASUwngho6jKerKW6KgEloASUgBJQAkpACSiBCUtAU5cJa3rtuBJQAkpACSgBJaAElIASGE8ENHUZT9ZSXZWAElACSkAJKAEloASUwIQloKnLhDW9dlwJKAEloASUgBJQAkpACYwnApq6jCdrqa5KQAkoASWgBJSAElACSmDCEtDUZcKaXjuuBJSAElACSkAJKAEloATGEwFNXcaTtVRXJaAElIASUAJKQAkoASUwYQnciNTl8tWvey8PnryQ6j7/Vdcfr37anzp9MdWXHBxIpScsd+24ElACSkAJKAEloASUgBJQAlkRGKnUJfnV1yf6v/rw8yvvdiV3H7n0r/GL3v/2HLnY+umXh88OfH4xlfpa05isDKeVlYASUAJKQAkoASWgBJTAxCIw/KnLH78c/N3ZgX3Hk95cxXGk5ZPk0d6rl69+PbHwa2+VgBJQAkpACSgBJaAElIASyIzAcKYuFwe+jp8d+MUfLjtSFPepX3Ulj/VevTo4nE9gkslkdXV16M//qqurk8lkZnDGQa1EIlFeXv7nzoUikcg4UNqYSCQSjUZzVhU2hYR4PB4Oh3OQFo1GyS0UunHoYLJYLJZz9/VCJaAElIASUAJKQAlMTALDlrqcvJB6r/tLd2aS4dn2E18mLg8Oiz28cW1dXV0ikchceCKRmDt3bjwez/ySG1YzFouFQiEGwclksq6ublwkZsOYuuRAG5mPTGITiUQkErkx6DR1ycFkeokSUAJKQAkoASWgBIwxw5C6fJ02neeu/rzT/4WWDNMVq9o7xy9/cv6r67TQsMSIYzZ1icfjZWVlYzOnGtJwo5u6RK79G1LJEaowLG45QrqpWCWgBJSAElACSkAJjGUC15u6XB1M//bMFSvxGJafu49c+rj3urKXaDQq76xbZpAbycrLy/EoBgfr6uqqq6vD4fCOHTu4p4h1IpEIDobDYZk54AlPKBQKh8MNDQ1z587l4x2eCoVC3NoUi8XKy8tjsVg4HA6FQpRvjPHVzdLfHX/jgQz0ZIsImhsaGsqv/fvss8+qq6vZ2Xg8HtQuLoQ0uSfNFwUPyidCXuWplTwl1ebTJG/r0BMSrEzAV4JsIpOUT9pLuhA86q233gIKnpKN4hSUl3LIzVJY9k76gNRZy0pACSgBJaAElIASUALX+9Ql9XX6tz0Dw5Ko+Aq5zuzFfWs/Ho83NDTACZgGICaWOYn11CWRSNTV1eEqmRohSEXACiEMQ2WsLMNWxLsIf3EJo1tf3aS/oj6De3kKZe6L87ZOxbyd9W0X1ZAnJJNJCY2x+4EDB5j5yF6Ew2FfJX1Ng1wO+R7V9m1dHrSQsneUYMGJxWJU2zqFn0gmmZRGIhHWx+sx6CDa9SZg9CVjTENDA+RIJWVZuo0xJhqNUn9f3fSgElACSkAJKAEloATGFIF0Ot157V86/Z8vq1+6dKmtre3SpUvQ01vhevS/rqcuv09c9U05hvHg7iOXcts5lkqlqqurfeNmLy+Gs4iJGXwbY6zURV4bj8f5aEUGrMYY65QMcKPRKORbITJ1kE0YY3yPO7SyLkePwMGKtr2dldeyXSmBFWQHeVDmHjjIzrIOCt7UxdsK6niP86mU9dTFW9PbCtIDaV++rI+cAUKkvSRqK7Xw9s5LgB2nMjJ1sdzG2wVergUloASUgBJQAkpACYxBAgcOHMi/9u/AgQPGmIGBgVWrVoVCoVWrVg0MDBhjrArX2YXcU5fu81/tPuLz11qGMW+BqHeOX87hrX2kLjIG9ZKS+3zk0w95lYxcIUHuAgqKdxnZIxjFJiL+H21ZYa73p1Vf6i/DX3mcZatdmbownfOG6ciUvO0ivufDByQA8ifalY+hcIT5DxVDgXE8j6NHbBoF5Bje1qXmROGQwFaCNKe9KI2XoC1Aszpo/fRea659S42d8s21pLOhvnWEmmhBCSgBJaAElIASUAJjjYCVmYzR1KX/y8FfdWX3l1uuJ6VpP/FlDl9Mtm5pW5aORCLcnMMIW8bEqG+lLtFolNvJGO/K6BZXWad8g1FvrkJ9fHWT+nv1lGeRXKFRqZsVW3uFuNvFSywQ633g4H2gEfTIyDdAt3ST3UFZti4154UseK+VR2ga34OWufmEJ5PUxfI36MMnPMzWqKc0DZVhNR7RghJQAkpACSgBJaAExiwB736wsbhh7NCZEXzFxTfJOdZ7NVubBb3t4N0GlmHqYsWaMgi2wlaZllin2AtZB1E+UhcreqZuvBAF63J5VuYVUmcGzagsEwAHEymZXfZt3XtQaiLleAN0SxlZmWW2LiuzU/IgL/EWfKv5Ssa10hzWYxb509t3y3DsMhVGCsfcxkqTvJrrESWgBJSAElACSkAJTHACuWwY67k0eGO2iskc5lddyctXv87WWthrxC1Sxhi8vy7jV4SSjg1j+A4YmmYeAgl8TiJfXIFAnrJexY5d+ydzFUhm7Bukm7fvkUiEj4AQ+OLvulAUnoTwS18yaGagzCdCQe3KLxNQMioz7A56TT/o882M42WnJEO+4+5oHZrLTvlKkE2gDItQeevdJEsILe7dbMbURerA5mTmjK2JXoUt36BACtGCElACSkAJKAEloASUAAnkkrp0nB6RryHLRMW3fDT7By+ISvH1YbxywEgdUSO+StzQ0BCUujD65yMR/PV67xeQ+eYMUh2+wR/0AgnTABhD/vTVjTaTBTaK3jFJ4xeK8e1jHLcibJmrQKZvu6gG+czHmPlYx2VlmVZJna03QEKhEF+b4Uvz/PP2UiBbl5pbnfJKsJrGTynWQmfZS2Y4VmrBn6QNUfwENpVB/uNNXSz/JAdfnfWgElACSkAJKAEloAQmOIGsU5f+K4N7jw7nX5/0zVJ8D7Z8kkx9/Z+fXRvjZrM2C41xbVU9JaAElIASUAJKQAkoASUw9glknbp83DviH0T2zVtw8POLqbHPFM8B+Hhn7CusGioBJaAElIASUAJKQAkogbFPIOvU5d9OfOlILUb61OGzf/o+9Bj8F7RxawyqqiopASWgBJSAElACSkAJKIHxSCC71OXy1a9z3i32yr+dvmfTrv/+re/fcs+Gv6h46v9dtnXrr09km+q0fvrleKSsOisBJaAElIASUAJKQAkoASVwnQSyS13OXkplm2yg/oZ/PfR/PvDsX1Q8lb/yX+7dtKv8e415y3/0T2//IVtpe45cHEiNj9ddrtMwerkSUAJKQAkoASWgBJSAElACkkB2qUvXH7/KNtn41/jFLe+d+L/m/+D/fuSf6lq6c7jcuqQvOSg7oGUloASUgBJQAkpACSgBJaAEJgKB7FKX3ydyeUd//ou/+N/v2/jUTz+ykpDcfp4eD2/qTwTX0T4qASWgBJSAElACSkAJKIEbSSC71OXQmYFs8403Dp0vWv3a/1O9+X/8+9lsr/Wt/2n/OPjI2I00obalBJSAElACSkAJKAEloAQmAoHsUpf/+Dzr1GXnf/wxf+W/5K/8l53/8UffVCTbg11/vDoRDKN9VAJKQAkoASWgBJSAElACSkASyC51+TD7py5IXULLtuw4eC7bLMW3fvf5r2QHtKwElIASUAJKQAkoASWgBJTARCCQXeoSz+ldl1nP/ey/zX76H5qO+qYi2R48eUE3jE0Ez9Q+KgEloASUgBJQAkpACSiB/4VAdqnL8b5cvjD23Ju//2+zn/7/vvPKq+1nsk1UvPV7L+sXxv4XE+oPJaAElIASUAJKQAkoASUwEQhkl7p8fjGXv+uy63dfVG351f9271P/x/2bitfuuJ6/67L7yKXLV7+eCIbRPioBJaAElIASUAJKQAkoASUgCWSXuly6+vX//P1F75OQIY/s+t0X39/7+7zlP/qLiqduuWfDf//W90uefH1b9g9h3u1KSu21rASUgBJQAkpACSgBJaAElMAEIZBd6mKMaf30yyETlZGr8OHnVyaIYbSbSkAJKAEloASUgBJQAkpACUgCWacuuf1VyuFKZk706+fFpPm0rASUgBJQAkpACSgBJaAEJgqBrFOXc5cHdx/JZc/Y9Wcv+45f/jKVniiW0X4qASWgBJSAElACSkAJKAElIAhknboYYz44MTp7xn53dkBorkUloASUgBJQAkpACSgBJaAEJhCBXFKXExdy+c7YdT51+cWxy3/8Uj+LPIFcU7uqBJSAElACSkAJKAEloAQkgVxSl7QxB05duc5UJNvL49k/cjl69OgDDzxQ/ud/q1evTiZvxAfKBgYGqqurQ+JfNBo1xkQikfLy8kQiIQ0wNsuxWIzqj5zOyWTSAnWdbSUSifLy8kgk4qCKRmERb7VYLFZdXX1j/MTbetARaY5QKOTuYJCQaDR6w7oWi8W8poR1YrGYr4aOs8NilGFh6Ku570FfAr41rYPXOUtEIpEg37Ya0p9KQAkoASWgBMYjgVxSF2PM2cuDzccuZ5t+5Fz/ve7kFwNZ/zmXo0ePLlu2rLe3F4apra29MdkLUpegEG3se0k0GpVxZ0NDQzweHwm1kUVIUNFoNBQKySPD3u44TV2YdUD/HLKXG5m6+OYh7mje9xJYf7hSl+tnmLk3ujsbJCeRSMydO7esrCznIaCpSxBbPa4ElIASUAI3B4EcUxdjzNHeqzmnIlld+PPOSycvpHLAbaUuvb29y5YtO3r0aA6isrpkXKcu7sg+Kw5DVvamLsaY3GK+IdtiBXcHhyVKZlvDVbC0isfjc+fOzfbx3Y1MXfCM0cqvItf+BTG5kamLMSY3hkHKe4/n5saxWAy5h4XOKz/oiKYuQWT0uBJQAkrAItDb27to0aLa2lrrOPbstLW1Wccz+VlfX4+9PpbY+vr6Bx54wBuCHj169KmnnsJeD7RbX1/PhqBheXm599re3t7Vq1f39vbKHUZS59raWmhCgZRWXl7Og2yrvr5+0aJFvN3P4yjU1tZ6z/oe/FOCIDY9Sc2TyeTq1astrayGMvmZe+ry1WD6Pz4fyCoJya1y57mrmfTEW8ebuixatAh2bWtr+/M+sv+yX1tb26JFi/bs2VNeXg6fk/TphW1tbdIS3naDUhcrdoxEItiUhZAO2zysAM4K7vETV/EWMi5paGhAjxDRxuPxcDhs1TTGSAny0YrshSPEpM7hcJiPYtCvt956y9uc3KXjvZFs9Q46WAd9W0RcGIvF0Ed2BNdyw4zsLHFZdWTHkTixJgJcX4zocl1dXSgUQnOyrbq6uurqavZXnqJwKE+GlhrWT2/qUlZWFo/HpWRCwLXSARAHO8yETAPms+TgORhOsUdSOHvk1VmKko4tvYLGkhVgCOrT0NAgW5Gt83KJQlamVtkylCaGlaFhKBSSzm85CfWRqYvUTTKhbixEIpFYLBaPx2FfHs/QdnImQaNwRSosydOa0vqsyaa1oASUgBK4WQngjrb3pjaCfpkGZEigra0Nu3sQoyM9QMJQV1fnbcgYU3/tnzEGO4OeeuopJhUQwqjVyhza2toQl7766qvIN44ePfrII48gO6qvr8dZtA4he/bswVl5EF3DEasJnEIk/Oqrr8p9TL4HSUnmYzwou8ODuRVyT12MMZe/Sn9wcmS/NvbbM1e+zvV7yFbqIo3qa2nkM0xRjDG+ZpZyfKFnkrpEIhEGWIgnEPRYARziDwQZKDM2YoKBS2RIZIXFsq14PN7Q0AC1KcHqBUJDqseziUSirq4OPxFL4T4BolvEx1AGSsoILB6PHzhwgKJQkL2Tp3jnOKhFEIOGEILWJSJZlg8BrOOyXSt1cWBEl2kLqYMxRm57s5ojcwnH0sH70wq7GRYHWRMWpNvA4kFmknCgPE0vtw7Sgg4sUnPLk6mzMaauro4JNmN0WV82geNUSXKTlxCsMaahocH7tlK2DKWJ4W8M660BFdQFDskgM0lc8kGQ5TP0KO8Qg+0IR84kEEKdreeZFkbfcW2ppz+VgBJQAjcZATy4qKurY7aAJwZPXfuHcB8xvfWgoLa2tq6ubtGiRdZrCN/kPEx4mMYAmu/GHz45Idja2loqIxMAK+5PJpNPPfWU9QyHdayzTGPYCjIlNoSfVnIiKwOLTF1w1gqzqTzTKimkra1NtihPZVu+rtTFGNN/ZXDkspff9gxcHcw1cbn2xIqgYVGZloAULW2McT9OoUmGRIzUBfeM5T1ahvsyboA0GayXl5fzhijiD/y0Yi/ueEEAZ4XR/GmMwQZ67w1+S6DsF9p1vBHO1hFXMUrDT8RYso4UzrLsHQ9akTSPS2kytJX5BgSi71bveLmsQ+Es8CpvNYlRxvRWUMhHW26rscVMCtQK1iwvL5f2hQRZh+4khVs6S2+U28/YTRakEDcWWdOyo69KkAZQzEO8TTi6Fo1G4Wy+8qU+Uog1ZFhN1iEfGpTM6UvoI49L55epGuVLX5UHUWZfIIcJiXuIMXGCEHIARsBhFzixeDXH5bJrXg31iBJQAkrgZiKAzOHjjz/Gzit0DcEek5BvbmojG5G3rX03SlkJgxXW+6Yu3hBfhprWWXlKZjW0CBMhFnDKSqKwIsjMBw1ZClMsCr5nrYPUEE8CkO8xl6utrX311Vfx9SzfxztWi46f15u64NnLsO8c+9mRi79PXE3l/MDlWo/ldi9rYx8yFu4ZA1lsGLP2+XGzoCXBwXTIpy7esIYBBwM4yJexHW4DMyNiUmRdYv30Ri24NQs5Mjzy9giiZFoi9+rwuAzyZNQF5bmlyitf9k6eJQ1rNw5btADyJwQilAzCJevIRlFm8OrGGNRlCJH9ClLD27TjiDSZ9RkDeQrW9GoOyUE6Swn0rti1fwRO3bzCZWdZDQXaxcqCcIlsiylZLBbzNkGjWBdKH0YvvApTJaubMoiXpzgiJC6rj4zv3fpIZXyboG7eQWrd3ZDKyCFGwhTFsQPdmFaBKpmjwMTGd1xTphaUgBJQAjclAYb4jLnlEcbc6LvMTFhfYrGSE4pCHeusN39ANSnZelpSf+0fq3nVW716NR5rWBmFN8+pvfYPoliZBRy3/u971vegvJD5HqJuPqSyuiYvyaQ8DKmLMearwfTR3qvD9c2xX3Vd7j7/VSbau+sEMUVKAwNbT11kIoinhHxQI/3J3W4mqQsjJIhiwGHFbTJmssIX6mBdYoWJVlQkP73KiJCivAUZAEWjUe4/YfQmAylcbukJ9XihbEL2jsdld4JatCI2/rS0tSCjCVmHjbJAJm6MVh/l/XILuFWTDWVVoFbWVb7W9GqOqyxN+JP0LOG+jXqF+xoRomhKKQpRMkJqeS0re5vg5W7bwRWDHhVSiNVNX4aWV0s93Tu7KFxSDWqCla0UnQkGEw8aC5fwp7dTnEksVsQrG6U0Dk85rr019YgSUAJK4GYiwOyCwT3TAz51kXe6+Z6zb0AocxvvDitv6sJGJVIpOeipC9XmhcwQcMSqIJ+6WG+5SJ2DYmbI9D3re5BaoQCkMtj2wrEuGfLn8KQuaObs5cHr/Hsvu49cPHRm4MKVrL+D7NvPIKYy25M0racu0tjefYG+LeLgkKmLdUtVBhlWkCQDDhkMydZlHcbNDHrkhjErKPTGPVIsywiGLMVkiMNACpdYP3mQt3gp2ZLJmkg5rLOyRQsFf+IS9J0H2RwKso51Sgas3mqSntVHqy1pEeuUt8VMjvhaSuojdyJ5NUcTls78aXkj9fE97hVuqcHLUYj8+R8dUqZ5kDbkhjGqam1Cs9rCzyB9smIoPYFjig9qpCuif15NaHdLH1810Jw1QCjBUkb+tGwkrSPL7AKtQIWlCWRWxgpaUAJKQAncrARkiF9bW7tnzx7uHEPqIkNEGeXLBINwZGW8g8CHDMYYb+qCmJ6XoyAlyyhUCrdSGm8KZLXFoFf2F83JnV3YiMT0zFLMN6L2PWhdyB4xGxxbqYsxJm3MiQupD05+ufvIxay+J7b36KWO01d6LuXyEWQLE38GMZUpCj5j57thTGaxsC6fxPEbDmxLFoZMXRAuMFKRLwQjOOPjAnxfCzGTdRVfYZeBMtSwXgVhdCWjGVzFhqh/MpmMRCL88K6MjSw53A8jI0sZV2HTESTzWjbEcIoRIfpOsTJOheY8JaM6+aqJ7GAQLllHKuPVJwij7CMkACbjwkysJsNfSw3vT994V3bEsqbUPJlM8jV9aW5pNfneeTKZrKurw2vu8rjjNX16sldzPGPhTX1pLGDk/jfpxvK1HEig5vhJn4GPSZ2lx0p9smUo+QA1G5W289VHdtNhJqon++57UCoj3Q/CyV/OJLJdyJRegY8Z4P03jk1cwlFGTbSgBJSAErgpCchQHmGe3GjT1tYmcwAZEzIct7Aw2ZCZBupIUchkmCZJIVKyFCIly9dUZEIl5ch0hV82k8mDrIxyUMzsOGtdQuWDPoXFnU1yx5pXkyGPDOdTF9nYucuDvz93tfXTL//n7105zN6jl/7txJcf917tvzIoLx+WssVUyvzGfsgvX3311W8+Mu2buuCjdagGysOVujBKxs4Q3Idm4Is4Bqfeeust+ZldeYrhoG/cI/fWM7KR+1LKy8utb86SD79HzNdpcIqth8PhhoYGvtsdFFchqrN21bMVCwJRyApBLWaSuvD1CUgmLm9IJ2vSClAjCKPVZSkhFAplYjXfSFr2XZaDKpOw15pSc3TK0ln+BBOAYi4BBegMBIi4nJWld0mdUYZkJh6WTPkVacuN+Y5QdXU1ePKjYbJrlOyrp9QnW4ZePr6pi0WD+kgXdZgJGsrKUmcmFVIZmbpYg0jOJL5+TqpyW13QKJOaaFkJKAElcPMRkKmLlQMwyudziWXLlq1evRof9WKM7mXC8BIRIytYqYv15ITVLMl8Z5tBv/WMRX4AjfEqlgb+BRWEuEiEUAf/lw+FhnwS4htRWwepPCFYz3CC/ugNu59hYaRSFzZ/6erXn19MHe/7Kp64+uGZgf/4fODQmYHfJ652/fGrs5dSl68Oz94wNjceCwgyGBiNxy6ozpKAtUdInmI5eu0ff2pBCSgBJaAElIASmAgErDQpqy4zp8rqqpus8oinLjcZr5HojtweMxLyVeYNJiD3WQU1XVNT4/1cdVBlPa4ElIASUAJKQAncHASsJyeZd0o+Jsr8qpuvpqYuo2BTa38ON5mMgira5HAQ4JYbbKNy76EajgZVhhJQAkpACSgBJaAEJiIBTV0motW1z0pACSgBJaAElIASUAJKYNwR0NRl3JlMFVYCSkAJKAEloASUgBJQAhORgKYuE9Hq2mcloASUgBJQAkpACSgBJTDuCGjqMu5MpgorASWgBJSAElACSkAJKIGJSEBTl4lode2zElACSkAJKAEloASUgBIYdwQ0dRl3JlOFlYASUAJKQAkoASWgBJTARCSgqctEtLr2WQkoASWgBJSAElACSkAJjDsCmrqMO5OpwkpACSgBJaAElIASUAJKYCIS0NRlIlpd+6wElIASUAJKQAkoASWgBMYdAU1dxp3JVGEloASUgBJQAkpACSgBJTARCWjqMhGtrn1WAkpACSgBJaAElIASUALjjoCmLuPOZKqwElACSkAJKAEloASUgBKYiAQ0dZmIVtc+KwEloASUgBJQAkpACSiBcUdAU5dxZzJVWAkoASWgBJSAElACSkAJTEQCN3/qkkwmV69eXf7nf6tXr04mkzR1fX39n8+UP/DAA0ePHuWpTAqRSKS8vDyRSGRS2VEnFouFQqFIJJJMJuvq6qSGjquSyWR1dXXI8y8WiwVdFYvFslU4FotVV1dnqJJs11IvSEg0Gg2Hw/F4XF4bVE4kEuXl5ZFIJKhCDsezUsArPxKJRKNR7/GROxKPx8PhsC8EnLrB+gxXTzEK6M4ONx6yRfje9UhgE9LlUPaKRXO+IwungpyfrbgLUgd3zQzPDgwMVFdXezvCy6PRqG93WGG4CtLoI9piJBKha4VCITlGhmsat5jkPHNacuRPa1JFL+Soz2GGl/JR9h0+8Xi8rKwsw4naK1MeyW3KxSigETEBBg1J2VzmZTmZ5+wV1zlafeFn3oURqtnW1sZIqby8vL6+frgaYoQ2jDKHSzeVM2YJ3OSpy9WCUo0AACAASURBVNGjRx944AE5JF599dXe3l5jDAaMzGS+GZxtbW2ZmyqRSMydO7esrMwRAWQora6uLpFIRKNRa03N8PLMJ7scFrbcFmC5mqIX6GOGPZLVotGob5gu6+RcTiaTq1atKisrk6FMVtLkapfVhTlXBlvffA/x2ZB9yc2mOSucyYVWoBCPxxsaGjK50LdO5iPC9/Kgg0FxEprzHbwIzXNIXUbU7d2pSywWG7kRJ9laCVJDQ8OQkXHOlpXjFHYccphIVXMoD/sos9ROJBJ1dXWWYjnM8JYELI7ezHYYUxdvi0MewTjiUst7fEFDckiBvhWkk/hWyORgLBYrKyubO3dubvc0c/bwTHTLuY6VugxX9oIwbNGiRYjKclZPL5xoBG7m1KW3t3fRokVB2UjttX/XY28s8CMaYWSoXuaTXQ4LWw4L8PAuJyNKOB6Pr1q16q233sohuIR1hmW1y9DQqBaPx+fOnVtdXW3FXsylreNe4TnY1CtkGI9Eo9Gc+fuqkfmI8L086GCQY6O5SCTi7UUkEnnwwQe9x4Oa4PERdXt36tLd3U01Rq4AaEP6qqVAzpa1xumI4oXOwz7KMpm9M6ljIfX+9IU8iqmLo+mgIentVCZHLCfJ5BJvnUgkggWFiZa3juOIL3xH/Rt8ig9Jamtrr7/pZDKpScv1Y5yAEm7m1KW+vl4+VJHWPXr06COPPOK7PQwjM5NhGYlEYrGY76yK++J4tI37l5Fr/6gDF06u39zPINdyuZtCHqccFLyTHSZ0KCC3YVgLm5Qv51keLy8vb2hokIGX7Jo8LlVyRKJQta6urrq6Gs8NpEpSbWyfkzviotEocaE5QpOPICAwFouFw+FQKCS7L5VEOXrtn3f9QxfeeustMLR6ynZhVpjG2zVjjMRFC6KmlIxq0gReVXkEqUtDQ4PVNTiVXH1lQ6xM5bFH0Rjjdk5pLF+BxhgHLknA916+Fz57igIVllZGi3V1dXzWIXWDzuQpT9GUaBcY6Sd48kkyvAMN2wWpCvkQxUZh/blz51ojyLc7cNqGhoZQKPTkk0863B46IDaCC7FF39zJgomfjtSFBAhWQqDylil5nG4GPaEh/m9d4nU8qaq8nDKlL0lnYOuhUIg0pDS0xQEIj6U+1nwlCUCabJdXwehydBhjsp05IYQyLZ2tn75rjTFGuiWnUxYgxKpDu0gmbA5aWSSt1lEHcnzHVHl5+erVq2XXqBILdC3IoaGpCQrWBCXPyn7ByhBluYdUg4svheMSOZlzTuNO6Ux8DLaorq7GHgpiYTfRNJqT5CVMOXehd5hYCIc+Jr0dNdkRuGI4HP7ss88kLqucSqWwnZ4BD56uOB6DMHWRm1koFvtcHnjggba2tm9uHJeXl0MUd+azIcrBPjTZonzCs2jRokuXLlG+FpQACNzMqUttba3v6DLGtLW1BWU1xphMHsggfEwkEph05DQkw9BkMol9L9bky9mTcxbWCQTc3DXBTVbWsmG5L4RwpZEKYAqWs55vWcqXOmBC5BQsT2Gd4Cmpkoye5XHO4HJd4TImSZKbFWTIOnK/hAw+MLNDMdSX65bUB48pQNtrIMavgEATywARbeEU2pJdk1QhBDaSbTU0NCSTSXlWauhbhu91d3fLTR1onU8CcaHcdiUbte4Hy1MSuG+PuI9LXoVoD5wtXNwFFNRHDiXfzgZZGS3SKJahcRa0cYo1qTb0wXBAHVpcjiB5eVAXUCcWi3Fcoy/4KWkHdQeOJB1VivLqQDeTe67kKPCFyYNBqYv0bWlH8pFIqS2RegM+tMgxTgVQAGfvHCL5WzMYUUMCflIT60LZnJyU5MC0dJY84/H4gQMHjDG+PoymaQgGi5hPQI9dc8yckp5U2LeMAJpTPepItyRqeRC6UZkhlxULMlqR0FDBPabQKJcbmT1SSaT3vlMKu++rDM/KbgYNLouwHFnS4eVkLr0CCmTiY7gKNSUuLnxMNqQ/WPLl3IXeSYYWOrx9JM3BpRMKuFMXYwySCmYOtbW1QZvBmH6Ul5czA6EhUEDqIt+K8ZaxEQabYuRZhGQyb0Hmo6mLBVl/GmNu2tQFtxOCdovV19cHjb0M3UJOf1bEINdISguaPa1pCz+tlYkTn/c45FtXWW3Js5z45EEIgdo4zjVJrnneUzL0Z0+9knmKHeEyIJe3oAslaq8OEC7DX7kqSP2lGijLmJJkcEpGMI4FSa7H0E12zfIEdsQ67lXMfYSdtfRHaBIk3LcyGrIchnp6eyQVkwKDcMn6kpU8LuXI494yOw6LBK3odDOMF0s+hcigR/oh2iVG6XLWJdQQdWKxmBwRLFsK8CpqgtZlECxdjt3BqIQOHKFshWIzKfimLlawJceO1xM4XmQvcNd57ty5vPliPRPw6gbJTBpRwXJI4iUKzoRUg5LpvTxCmbgnHQqFGMTjFCfwTGBajsHxDiVpFy89eSqThiz9+RMRtvQW6ZYSiMRItSnHC5OnaBQSQ4GNWi5NH/A6Z3l5OYwluyyVZKOSmDwoL5THUZZ9l2epEqYdmkmOLK/DS0r0Cq+2QT7mdVQaHaeohqxpyZenLJ7yFDoLhb3HJQp3mSlEW1sbykHfK5KpC1MdSzhTF9w1RiIEgWzIe0OZz2qOHj2KVhx3lq0W9efEJHCTpy7eQQIzO/aSZeIH1kwhZ8CgmVSuInL2hChrgrN+cv3ggm0pKfWxBKImZ2TOktCTklGIRCJe/blKeU/JdqmSrwKOs1QJWHwDC2vGJx/cZIXyDGSlQCyHPEU1LCzeAIvrFmrypyVchuNWx/HTIoyYCcFHkFaWkt6fXJXlok4Ts4AL0RbUYMRGm6JOhs7pEEg+qGP9lHstaDvUdBsIdXytbDVh/ZSeibuY0hCIwCx/9jKBqtKs1iXsgmyO/CmQBUd3vH4lwyOHDkEqUTffgm/q4tWBniYVYC/wIrJ0MEKWM5XlXb76oBcYEd62vKOM8i27B4W/UoL3yQyFeAlQW68PW3p6DUG7e0/hWvaCrWRekE8dpXzZBZblRMGMxddYUMBXPbnMZTimZNpAGt4hL12IcxRRyN7xIAvWWd+5wvJAjizyoTQOXixGUIbuwWqyLzzIDaJ8O19eaHmL/Cmr0TrwDat3+EnDoYDFERbx0pPqBZWRYHzzfzzxcKcN3OjlW00mIXykg5q8kFEZ2uWDF2Q48qlLUIIU1BE9PnEI3LSpi3vfFzZi5vx+mJwfOY8g0LEWCXpS0OwppzBOWxCFVmT8FLTUyZVGlmXrkMPJ2poTWdOrP6dp7ynftuRyRbEsWP31LmO4XO6z50pj8ZFf2GSM5RXILlMHFBzLgFy3UJmrC2lQGlc7q2vWT9ZnAYsNszIeH7IgOws48gj1AUkmSFJzWfbai8C9XZDfAZNCyAfK8ycgs49SN3ZThkQ8yEKQldkEW2Qr9BOMF6smJVtDQHYHTOTQQ9m6hKIACs3BFnI7n5Qc1B2vl9IK7I6vDkEqUTffQlDqYoU+9CuvJ/CUV3PZovusrMkmJExWoOdYZyUlVJa0ebk0qHeKoIf4Xhvkw1QYrXinR0rznrJ6IfXMvEy20gd4UD4BoyZ8+076tndZ8VVPjlMSs7SVmuAUm6YFLf5BUwolW5x5HAXZYtDgClp8qRtlSiXZx8x9LCijs4aw9dOSL+HL3nnvr1FtFpBgw7g8OGQB+caiRYvw3kvQXhXKQXbhm1dknrrwGU5bW5t1FZ/PlJf/6U9W9PT0sGktKAEQuJlTlyHfxWf2n603WHONnIuD5lnrEk6mVn35U14ipzOvttZZCkdNeZYLm2xICvQe5wzuPeVdkiFKLnJSuDVl4xRVkjUZGMknVPJy2Snrdpcl0PrJVrzrllSbvUZ9/pR1pD5WGVdZhmDTLAQBZAXfgoSDck1NDQN3rr6WcNlfWbYIy0zGsrhDIPlAYf60GqJuVr+CQDmszCYgyrKyXPKtU2xa1sEQloE7VZUQrEsoSuqJcl1dHb+OSgiymttpLaM4dAhSibr5FnxTF8u3JROpAASyU96r2GK2upG55Q+SmyzLiZeNymmTB63UxeoOfcm3L+wppFFJS4j1U97+8J6yhpLUM/My5wHJ2fJ2aIsvykCy5APFckhdrFaos9QEB9FTMOTjCF5ucbBQUyzr8wgLbNHqC+FYQ0nOb5a5LTPRK7ytS4bUxFIAx+nJlnD505LPHnlzFXkV27UKsuPWKcdPPgDxTUisC1H5Op+6QAhiMORC1kY1JjDHjx+3FNCfSuBmTl34vFLeReDfdUGiL994+Wb8oKb7Nf0LFy5w/y4dSE438l0LvjMnD+L5OGJNazKSP+WMhts53jUGCuAqnrV2RHAKtlZ6qZJ8FVW+twBRDOmsSzgvkwMLXoXxbqjsICqzm/IlSx6UEYCVHrB1yJSPF1i2ukz1vGpYwiU0qQMuZJ6AbspbmPKOl2WI2LV//IsECF7xnqW1hFNP34K1OEUiEe5BlyGa7CP8U9rRQkQJGTqnJTAIlwwOIFnyYe8saSBjfd/CsrLVIiRQuHyb2TIZ3QyXcNRYYZNvhGpdQv3RhBQlHxtKyRk6rXQ5yzMtHeRP34iKSsqCb+oC56GTSMnoIJ1EnrKuku7NzsqmWU4mk9ihiiPSVayBI20NTWhoy7hSCBtCgQbFTzmVSfnyvW28pi9lSh+2NIHJOKwynzktxSy15U98B4JHiFeaQ86cGEcPPvggs2hrPvTO0hCOrtGfcVBysLAHjSlcGI1GH3zwQc6ZUgfJEL2g+7GbKFizHN1M9p1AIJa2kLb2zm9UTE7mcgBanZUcpJIWeZziQdlT3xFNl5Zzl+wdBXIYctUmf8kWy8SFCxekkkFlJA+O9++Z23B/l++dX+v5iXxxxdow5hWI1IVPY9CQPnUJMtkEP36Tpy7GGIwl3/HGsYSzvIvgTl0OHz7MOVF6D+dNTB/WRjIs8NycyiDDMaPJS+QHE2WjKEOIXGmwcKI5uRhwJsWFmKypFSXzeHV1tfU3TzD1ey/htSxIHRjJWf2VUy1OQbIkjOkbEuTlPB4OhxsaGrg8W320fkK9oOWHQQwLqC9/Sj1hR6w6UjdCkLhoCO6b5yJkZSO83LdgVbb+gKCMhGgC6yPX7AKXbaqEy3Hc26MggZKPXPVRprdI3bxdow78VDHvO4ZCIcvKVouyZigUsv6uAl0FcuQ3oDhqZIKBoec1qzeSQC8AiqISiQQ+kIqzUjI1sbrj9VLWtL4Jbukgf7rxSuBIXWAXWgcVpBXYI3QQsxDqM9JiHEZpuEp6Pk7R/6mJbItjAWfpad6X3yCZ9enM0rhsggULDq6CSpYvUSs2wfkQk7zXMdgKa2Y4c1qeQzm+BclEfthA+oDlSJDPYQ6x7GDQsuKrlTVn0j8ldqkJuwC16Utyzkdyxa/YW58RpwQULI+CQNkiVbIGl1xJ5fxmua6czK1JDEDgxvQKSz0ZAPAU1YMEjhrrJzW35i5eToFyRqUPSPW4dGLaGRgYkNcGlRkmyfu8srKVaQRVyzx14UMV/PG9B67942v6zFt8/4KFVEzLE5PAzZ+6TEy7aq/HFwEr/Rhfyqu2Y4FAMplctWqV/LTXMGplRVrDKHmCi7Ky3AlOQ7s/jATwJ8syFCgfj2R4iVZTAqNIQFOXUYSvTSuB/yQQjUblXUnlogSyJZBIJPBXXLO9MJP6mrpkQimHOvF4vKamJocL9RIl4CZQU1OTyY0M+Tgl6FmKuyE9qwRuPAFNXW48c21RCSgBJTCeCGjqMp6spboqgYwJMHXRvCVjZlpx9Alo6jL6NlANlIASUAJKQAkoASWgBJSAEhiSgKYuQyLSCkpACSgBJaAElIASUAJKQAmMPgFNXUbfBqqBElACSkAJKAEloASUgBJQAkMS0NRlSERaQQkoASWgBJSAElACSkAJKIHRJ6Cpy+jbQDVQAkpACSgBJaAElIASUAJKYEgCmroMiUgrKAEloASUgBJQAkpACSgBJTD6BDR1GX0bqAZKQAkoASWgBJSAElACSkAJDElAU5chEWkFJaAElIASUAJKQAkoASWgBEafgKYuo28D1UAJKAEloASUgBJQAkpACSiBIQlo6jIkIq2gBJSAElACSkAJKAEloASUwOgT0NRl9G2gGigBJaAElIASUAJKQAkoASUwJAFNXYZEpBWUgBJQAkpACSgBJaAElIASGH0CmrqMvg1UAyWgBJSAElACSkAJKAEloASGJKCpy5CItIISUAJKQAkoASWgBJSAElACo09AU5fRt4FqoASUgBJQAkpACSgBJaAElMCQBDR1GRKRVlACSkAJKAEloASUgBJQAkpg9Alo6jL6NlANlIASUAJKQAkoASWgBJSAEhiSgKYuQyLSCkpACSgBJaAElIASUAJKQAmMPgFNXUbfBqqBElACSkAJKAEloASUgBJQAkMS0NRlSERaQQkoASWgBJSAElACSkAJKIHRJ6Cpy+jbQDVQAkpACSgBJaAElIASUAJKYEgCmroMiUgrKAEloASUgBJQAkpACSgBJTD6BDR1GX0bqAZKQAkoASWgBJSAElACSkAJDElAU5chEWkFJaAElIASUAJKQAkoASWgBEafgKYuo28D1UAJKAEloASUgBJQAkpACSiBIQlo6jIkIq2gBMY9gUQi8fTTT//mN7/JuSddXV1PPfVUV1dXzhIm7IVvvvnmSy+9lEwmJywBb8ePHj36/e9/v6enx3vKOpIhvSAPT6fTH374YVtb29WrVy3JE+RnEJkJ0n3tppuAuoebj54dmwSyTl2i0Wg4HI7H41Z/YrGY73GrmjEm85ry2kgkEhL/CgsLv/e97507d07WGdFyJBKprq7OJP6Ix+PhcDgajUIf62cymay+9s8rKhqNii7+ZzHDRke07yp8vBM4cuTI5MmTf/rTn+bckZaWlnA4fODAgZwlXP+FGEqxWOz6Rd0wCYODg88888yDDz7Y399/wxrNpCFMRJFIJJPKQXUyn8wvXry4fv36vLy88vLyRCLxs5/9rKio6ODBg0GScTxzekEe3tHRUVZW1t7e7m7oJj4bROYm7vIY6dq4mK/GhXtkPs+Mlumj0ShmtpFQYOx3fyR67ZY5nlKX6dOnd3Z2JhKJY8eO7dix484775wzZ05fX5+7h8N19sakLgUFBdFo9G3x78CBA4ODg8PVC5UzJIERnYOGbH1cVBiWqDeHno6LUCCHfo3KJcNixMzX1NbW1qKiol/+8pd9fX03bEI7ffr0X/3VX/36178eFcJjs9Hhmt+GS87YpDQsWul8NSwYc77f7W098/nKe637yIgOh5FT292psXx2PKUuVlK7f//+22677c0337wxfG9M6pLhk6sb0+WJ2cqIzkE3B9JhiXpzQKGhQA7Qgi4ZFiNmvqbqsAoyxA0+PlyGGC45N7j7N7I5na+Gi3bm84y7xeGS421lRIfDyKnt7ch4OTJSqUsymXzxxRdLSkpCoVBJSclrr7125coVQLHMkEqltm/fPnXq1FAolJ+fv3btWt9tYJFIxEpdPv/88+nTp2NfVnd396OPPpqfnx8KhaZPn97c3JxOp9FcJBL57ne/+8EHH1RWVoZCodLS0tbW1kuXLtXW1hYWFubl5S1fvpwtDg4O7tq1a/r06aFQqKioaOvWrVTbSl3OnTu3bt26wsJCdHD79u2pVAotYsLKbcNYUOqSTqebm5vvueeevGv/qqqquru7jTH19fV33333yZMn6XCHDh0qLi7ev3+/Maajo2PhwoW85Pjx46wGLM3NzaWlpVSV+peVlX3wwQc1NTX5+fl5eXlVVVVyV3qQ2HQ6/c4778yaNSsvLy8/P3/lypWnTp1iiyygL4AMi585c4Zng4QbY4bLlNFotLq6+re//S3g5Ofnv/TSS6lUCsEc9+zRFkHelXl/JZa1a9fK/rLjQVqhgtWWFJJKperr68GzsLDw6aef9u5NSiQS5eXl3GplkSwqKvrJT36STqcd7hSPx8vKyuLX/oXDYVLChsYg/zTGZKKeMcYxoIjICgUcjVq4fF0RTJqammpra6dMmYJNsKdOnVq5ciXcfv78+UeOHEHrVtPWjUDACRoysCw3iJ47d+573/sepo7p06c3NTXxKYTbB/r7+59++mlceN9997W2tnKW6+7uXrFiBdSeNWuWPEV6ctyh3aqqKm4Yc0x9lAAzrV27Nv/av/Xr1+/evZvDxBjjq6E1rDCNy1UgW3pQAFM96Vke7liA3M3JziaTyR/84Aec5OUqZjmYHI/QpLm5+bXXXisqKgqFQpWVlXQkKd+x9kHJ9957b82aNRUVFYlEApVLSkry8vLmzJnz61//evbs2Zi6vVkodMBZkrEMQcMF+bwxxpeAr5xMBoi3O+51H5q/884727dvLyoqysvLW7hwIRY+YHRMGtYC55grIOrKlSvLli174oknOBiNMVu2bKmsrOzt7XWMDozZ9957r7KykqMJMr1MRm4pgcMcPHiwtrYW88CaNWsY2MiR6x44OTt2Op1ubW3l6r9p0yYuQ5ksAW5by+nCGOOwpmN0Wy8dYDX0nbJgPsfwNMZ0d3dXVVXl5eUVFha+9NJLW7duZYDqUM/C67swSWPl5+dnOM1C54nz/1xSF++mprfffvuFF17gVJhKpdasWVNWVrZ///5EItHc3FxSUvLMM89gUrC88Jv9USUlJc3Nzclk8siRI7Nnz3788ceZMNAS3tTl3//93wsKChobG8+cOTNz5sy1a9eeOnXqwoULP/7xjydNmvT+++/j2kgkEg6HFyxYsH///q6urqqqqnA4PHPmzLq6uu7ubui2ZcsWVN6+ffsdd9yxZ8+eRCJx4MCBiooKqi1TF8zdjzzyyMcff5xMJnfv3j1p0qSGhgYIsSYs66d3mWEfo9FoUVFRW1tbQvwbGBgwxuzbt2/SpEk7d+68cOHCZ599tnz5cmyWO3bsWElJiXz0tGXLltmzZ58/f76jo6OoqOjZZ589ffp0d3f32rVrS0pKuIICy/33379z507r3et4PD558uTS0tLa2loieu655xAnOcQia3rjjTfOnz+Pgb1gwYKLFy+ygyg0NDQUFBRs27atp6cnHo8/9NBD8+fPxzTnEI7UZVhMGY1GJ02aVFFRsXv37hMnTjz//PP5+fn79+9Pp9Pnz5+vq6vD1sTe3t5UKuXwrgz7u3fvXva3s7PzkUceqayslKkgsARphbMOIU1NTcXFxS0tLf39/YcPH66oqFi3bp1cgI0xDF8gDdafN2/eu+++S984du1fkDthSYjH46lU6sSJEwsXLly9enUikTh//nw6nQ7yT2NMJuq5BxR0NsZYQ8nRaCamAZPS0tKlS5c2Nzf39/f39PRUVlauXLmyq6vr9OnTzz///OTJkzFkrKa9qYtjyMjUpb+/f/78+Q899FA8Hu/p6dm5c2dBQcH27duH9IFkMrl06VJ5YTgcbmlpMcZcvHhxwYIFa9asOXPmTF9fX11dXVFR0aFDh8gNhZaWloKCAkwI8Xh83rx5t956K4Mtx9RHOdABE3tPT8+2bdsmTZrEaT9IQ2tYYcOYXAXcE46k19fXN2fOHELYtm1bQUHB3r17LQ93L0Du5tjZK1euPP7441zF9uzZEw6H6+rqMA06xiP9at26dZ2dnVhHli1b5l3UHGsflCwpKfnud78bi8WuXLmyfft2TiP79u2799578/LyskpdLENgfnP4fBCBr7/+2jtPZjJAZHccfacJQHLmzJmbNm3q7u62Jk/3pGEtcI65gs1ZN24wrGpqaowxjtGBeXvatGkvv/zyRx99RGne+WpEl5J4PD516tR77rln69atp0+fhtctXboUd0wyHDjGmJwdGy9DYlmHpdh6JkuA29ZyunCEQ2AeNBV/8cUXe/bsYYg1MDAQNGXBiA4XxajBRHT69Olnn302Pz+fqYvD2TJZmHKbZqXjTYRyLqkLb7haBa5h7e3thYWFuPEPiHv37i0uLsZ9TemFyWRyyZIl69ev5+3DxsZGeoA0QCQSKSkp2bVrF14DwbsuCAFbW1vvuOOOw4cPo/43UTtvRyHeraqqYgDd3t5+22237d69G5XT6fT69etx5xgXcnEyxrS0tEyZMgWRvUxdOjs7i4uL9+3bByEDAwMrVqxgEIBByDvc1k+oxMqyj76v6UPOxo0bFy9efPnyZdRvb2+fPHlyPB5H07xXhNl28+bNOC7XS8RMGzZsAOpIJLJ48WLeF5FqYNVsbm7mQbbuFhuLxYqLizs7O6nk3Llz5aMeYwwgMxHCo6GSkpKOjg638GE0ZTQaraio4BOh3t7eioqKV155BWpbT34d3pVbfz/77LNp06Yh5iBhY4xDKy80KSQajc6cOTORSEBaQ0NDdXX1+fPnpXDLCSORiBwU9Ocgd8KSgKcuuBdbXV0tfZgegkbpn+jXkOpRAVwONaR8HLfCI0ejmZgGTF5++WWmeY2NjdOmTfvss8/QHGIjxC5W076pi++QAQF+bKOxsbGkpOTYsWNoIp1O19XV3XPPPWfPnnX7QHt7e3FxcUdHBy/csGHDihUrBgYG0JHXX38dp/r6+hYvXmx9ksE7uE6dOlVRUQHI7qkPYo0x1sSeTqe3bdsmp/0gDdE1ObHLVcAx4bjpDQ4OPnHt3+DgoPRwS08EZFyA3M0FddYYs3nz5ocffvjChQvu8QhNtm3bxkVtx44dM2bMsO5WuNc+KNnU1AQh3hY/+ugjfgzGezsMOlhPXdA1a35z+LwXIwl4DZrJAGF33H2nCdCLTZs2cUcDbtU1NjYaY9yThrXAOeYKNtfV1XXXXXfxPuChQ4fuuuuujo4O9+jAvP3pp59SDgsWkxFdSuLxeHFxcTQapdft37+/sLAQH6iwpp2ggeN1M7nQOBwb08uaNWtoKTgwWs98hQqytZwujDEOa7pHtyXHMam6XdTimUqlNmzYwPnNoV4mC5M1ogDFPwAAIABJREFU7rKaZul7N30hl9SFa5WkI30iGo1aMzUmBcw4siYlJJNJvH//wgsv0AN4FmGrzJTwhTG58WZwcLCvr6+np6elpWXWrFkMDSPX/lGUNZtAMgILDP7W1lbfyjJ1QQXcxMLzGbn1IpFI3HPPPZRj/USLGzduZCssBH29jRUQpnR3d2OLHVLBpqamadOmYc/YoUOHSktLDx06hFmG4Tgk1NTU4IEMdPCGhqjG++tsl6udW+zJkyfLyspKS0tffvnlrq4uRoSUwxtRzPrkKbdwr845m1Lex/UG4uys1M3Xu3LrL2Z5BJ2yCYdW6KmEJoV0dHSEw+H77rvvjTfeOHXqFJcuKRxsmU5bgwJnMWR83WnI1AVt+fpnJurh8qABxY54LW6M8W00E9NYTOBgS5Ys4c4uHOHkEA6HCdCbujCvg7bSi6RlEVHxHgTzAa7xTHIsz0SE1NvbSxpsIpVKPfnkk/n5+ZFIpL29Hc9pWQ0FaWIckfGue+qjKLbII3Iyd2jojXTlhY4Jx0pdvPSoibSmewFyN0eBXiE85R6PUhNcIjtLISz4rn2Wkl7PlwaVpoRYedbSxzJiJBIJ8nkHAa9BvRrKXlvdcfedZy3NjTEXLlx4+OGH5eoZNGlYUxxk+s4VbG5wcHDdunW8D7hlyxbsGnCPDjm6KQoFLxNjzAgtJV7CJ0+evPvuu3fs2IF5TN76lHpKyDk7NoSgLQjHEawpmSwBUg1IkLaWvkTlfa3p5SAd3pLjnrLQkO/w9EaDshVc6KteJguTV5RUOxOdiegmLoxU6mKlH9KPpRmMMQcPHqysrCwsLJw1a1YkElm6dKl1Leh7N4zRKslksra2tqCgoLS0dMmSJRs2bJgyZUpuqYvcxM9MCfGKdFZsgiwqKpo8efKCBQs2bdp07733MhO4fPnyd77zHX4/2vppjHnllVeoHnuBxcA3LcTGyoULFxYUFNx7773fvA60atUqPHUxxpw6dWrGjBlICzdv3ozZVgJnE3JI+M7sqOkY/EOKTSQSP/zhD/GO05133ilfOqJwKwSkekMKt3T2Lgy0EU7RgizAlNZiYy38khLCR4d35dZf6sm+WyGaFbZ6eyqjamPMJ598smHDBr4F4f3mLNgy8rZISvK+7jRk6tLd3R3kn5mo5x5QpGRxcDc6pGksJkBKV2Fh2FMXmZwwmR/SM30fyXKqvHLlyp49e7DRPC8vr6amRiZg3E8lpx3p9u7xQv7W0LDyN7eG1rVyFXBMONa48B04UE9a02rL6r67OUdnecryQxynblITnJKdpRD32mcpGY/HZ8yYwZ0FVo+kKSFfjmhLHwuO9QIA3B4uatWUml9/6pLJum9pbs2K7knDmuLccwW71tTUhH0WiJuxk9w9OqzVhKKsoT3SS4nlMJaH0DmleihLyDk7NoRwzmSBE062K5Rla2sEOazp5SDd2JLjnrIcLurlKVtxqAe7uGMkKQo2kmq7dfba92Y9MlKpS4ZPXRAnbdy4kfuAY7EY12MJ3ZG6bNmypaSk5MMPP0R9zOMcM9YU5h2c9MLOzs4pU6YE/QUAVsP2/YKCAhmXy1bS6XR/fz+fnFo/MSatwAKaBz11wTawxx57jPu75PhMp9PYOpJIJB5++GF0HFPJDX7qIu115syZTZs2effcg798gMCrstU5Z1Nai4218FsTh9u7qHzm/ZUPTHi5FaJZE7cXmq+QdDp9/PjxFStWzJgxg9vh0IRcnxCjM9O2Fjlfd3KnLm7/ZB8d6jU1NTkGFCVIi2fYqDEmyDQWE+xD8D4NQ+uyaRyRy4kcjzgrvUj6m/e5AbYHDPnUZceOHXxkSiDeQjKZ3LVrVzgc5vt7qIPOcla0HMw99bEV2SkclBDcGlrXyguvhx51k9b0Pi6Qj/3dzVGgVwhPucej1MRLiULca5+lpNf9pEGtGcwa0ZY+liE2btwY5PMOAteZurj7TkSW5tZTF/ekIVfkzOeKs2fPfvMtnMbGxo6OjqlTp+L+o3t0yNFNzVGwrDaiS4nlMMaYG/nUBZuucf/UgiB/OpYAt63ldOG2ppeDdHgpxxjjmLLcLiqjQXSQrbjVkzSCFiaKYmWptkNn1p8IhRFJXay9eoj1GcVKM8Tj8dLSUt4kxq6+bFOXSCSyatUqpgrYw81FWk5h3hsh8u61vNEC23d3d8+bNw9RhXTWaDQ6d+5cJhIXL16UG8asXMX6mUPqglHN93OMMc3NzXzqYozZv3//tGnTGhoaZsyYgW30CG3luy4YUXyB28Iifd0x+N1ia2pq5FNpa+JGE97dtIcPH77jjjtaW1vdwr0Bt1c+beQ2pbXYWAv/jh07pAc6vCu3/mJOtCJLd+rihUYhgCbfFpPji2a1FgbL+jjLIeN1J2/qsmTJEiY/Dv/MUD33gGIvpMUdjRpjMjGNxcQY8+abb1pZ3z//8z+vXbs2mUxiYz33wVv7jx1DxrKstUkaXzFiow7P7OjouOuuu+TL9z//+c8XL17c19fX3t5eUlLCW/KWP4Oed3DJd13c44X8rYndguDQ0BvpSi/NmR7eVFxybY+ftKalp7UAuZsL6iyelldUVPT29jrGI9MGPuG0nk1Rvnvts5REaPjCCy9wO6j1rsuSJUu408kYI89KMgjX5Pzm8HkvxldeeQUEvHKyGiDuvhMRNJdvDR06dOj222/HMHRPGnKKgxzHAsoW0+n0c889t2LFih/84AdcPd2jwxqzFOUNNkZ0KfG+49HU1HT77bfj7Thr2gkaODk7Nl6eYXSBjw1++9vfbmhoyHAJcNtaThdua1oDx5p5Wltb+c4b3rMNmlTdLmrxlO+6uNXLZGGyxl1W06x0v5u7PCKpi/Vlkl/84hdTpkzhC1iHDh0qKip6/fXXv/jiC0Rg69evx1ewnnnmmbvvvltOrKQ/5FOX9957L5FI7Nu371vf+takSZMYh8kpzDubyNTFGPPWW28VFRXt2rUrkUjgy0szZ87EGzVbtmwpLS3tuPY2Oe73NDY2JhKJjo4OfLWMkdxPf/rTvLw87se1fn7yySdTp07lAsAOYoz5bhhD1lFVVYUPH/3oRz+aNm2aTF0w49xxxx2cbY0x77//Pj8o1N3d/eSTT06ePJnxjYVFquEe/A6x77//fjgc3rZt27lr/+rq6qZOnfqHP/xBCjfG4Atj+BAKvjDGPy3qEJ5V6uI2pbXYWKEeJo7du3fjCzy4VebrXVn1l59eefTRR++///5vPktiYXFrJT/L1tnZKYU0NDTgs3jnz58/c+bM+vXryZNNYD5lOGVZH2c5ZHzdyfKKmpqaioqKI0eOnD9//osvvliwYEGQf2ainntAsReYLv7hH/6hr6/P3WgmprGYYLldtGjRkiVLurq6+GlEYMEYrKioePvtt2Ox2Lp160pLSzlaLTjWeikta33qp76+HpMVQlJZ03owghdaKisrP/roI37/cOPGjdg6P2fOnJUrV37yySf9/f3vvffe5MmT+cFD0tu7d++tt976/PPPnz59uqOjw/rCmGPqowR86qOiouLAgQOnT5/eunWr/MKYQ0MLiBXN50Cvo6MDnzgrKChAT6U13QuQuzl2lkL27duXSCTwhbHa2lpYyjEepSaQJgMvynevfZaS+JxDfn7+zp07e3p6fvGLX9x99938whgS4Pz8/FdffbW9vf1HP/rRjBkz8vPz4bqWPtb81t/fH+TzbgKWnKwGiLvvRATNJ02axK9mVVZWcnJzTxpyihtyAWWLfPessLCwvr6exx2jwxqzvIR7uTFfpdPpEV1K8ELOnXfeuWvXLnjIlClT+LFWTjvugcPV2Xe1shzJGsUdHR133nnn1q1be3p68HlGJgmZLAFuW8ug0W1Na+BYMw+evm7dujWRSAwMDDimLLeL4usFjzzySGdnZ3d396ZNm/iFMbd6mSxM1zPNSve7ucsjkrpg0X3xxRfxVXvr77qkUqmXXnoJL5UaY1pbW/EnKUpLS+vr6995551sU5eLFy/+3d/9Hb5lvnz58ng8Xl1dzThMTmFDpi7yTx/k5+c/+uij/Ip8T08PPuMdi8VSqdTmzZvxZ2Hmz5/f0dEhW2lvb580aRI/eGr97OvrmzdvHr8bKN0raMOYMebIkSNz5szJy8srKip68cUXDx48aL0WvHnz5lAoZD2x7ejomD9/ftDfdWGuJXWw7q/jlPUEM0is/GZ5Xl7eQw89xOdpsgkLsvyTCLgRkqHO8h485POpCz/9zr8eI01pLTZW6kL/RGDq8K7M+/vOO+988xo9/3KR/LwEybi1Qlu+QuRX8y2npXBr1ZHuyvvEHDL4mJLlTtaSwOGAbfEO/8xEPfeAYi/S6fRPfvKToqKiIRvNxDQWE7Ry7tw5/tmQqVOnyr/XdOTIEfxtqKKiotdee625uTmH1AXf7H/qqaf4R6j4l0mwyso3YSzPlH9k44477vjBD37Afaf8uy6hUMhSm/QGBwfr6+vxHlplZWV7e/uTTz7JScAalXK8UAKiscceewx/uKmmpub999+fMWMG3+tzaGjNITKat1zLijascSENJP8qjmXN5LU/LOa7ALmbk52V3bFWMcd4tDSxIjwp37H2eZW8cuXKSy+9hEVn4cKFBw4cKC8v55i9ePHi+vXrMdWvWbPm8OHDPGvpY81vcMggn3cQ8MrJaoA4+k5E0Hz37t0IDfPy8h5//HFuhXVPGtYU55ig2BwKeMZy1113yb8Z4Bgdln9KadZ8NaJLCRzm7bfffvzxxzE85V9WsazsGDjX49gHDx5ElGKt/pksAUPaWgaNDmt6B46ceWiRUCiEG3nSw61J1e2ihw8fZkj2zV9weuuttxi4OtTLZGG6nmlWut/NXc46dbm5cWjvlIASUAJKQAmMcQII9Zi6jHFtc1PPSrpyEzJBrvKG7OOr42rr8WWvUddWU5dRN4EqoASUgBJQAkogCwKaumQBawJU1dRlAhhZu/hfBDR1+S8WWlICSkAJKAElMPYJaOoy9m10IzXU1OVG0ta2Rp2Api6jbgJVQAkoASWgBJSAElACSkAJKIGhCWjqMjQjraEElIASUAJKQAkoASWgBJTAqBPQ1GXUTaAKKAEloASUgBJQAkpACSgBJTA0AU1dhmakNZSAElACSkAJKAEloASUgBIYdQKauoy6CVQBJaAElIASUAJKQAkoASWgBIYmoKnL0Iy0hhJQAkpACSgBJaAElIASUAKjTkBTl1E3wRhV4M0333zppZf457rHqJaqlhJQAkpACSgBJaAElMCEITCcqUssFguHw/F4/CamNzb7GLn2bxixDw4OPvPMMw8++GB/f/8wih0VUfgDCPfff//p06elAslksrq6OhKJyINB5WEkfOjQodtvv33BggUXL15Ecy0tLbfeemtra6tsvbGxMRQKbd68WR6Mx+PhcPjNN980xnR0dCxatCg/Pz8UCpWUlLzwwguXLl2SlSdCORKJhMS/wsLCZcuW/eY3v0mn08Pe/Wg0msP8Nux/JTrnKej48ePf+c53CgsLQ6FQfn7+X//1X48QqOEin9UIDWo0Z1xBAvW4EjDGqF9l6wZYvGKx2JAXXs/fLLoJltdoNFpeXp5IJIYElVWFm8xjNXXJyvpjdMIaxsA6OxzjoTbmwVAotGHDhlQqRZWzCoyGkfCWLVv+8i//MhwOHzp0CMqcPHny7rvvllnKwMDAihUrQqGQzHCMMY2NjXfddVdXV1dHR8ftt9/+2GOPxWKxzs7OHTt23HnnnfPmzevr62MHJ0IhEomUlJTs2rXr7Wv/3njjjTlz5uTl5T3//PPS1kEosprNx2/qkk6n6+vr8/PzH3rood27dx87duyXv/zl0qVLb7vttu3bt19nmnc9cUaQXXA8qxEaJCpzE49QxBCk2Lg+njnVsdbN4dJ8uORkxWesuWhWI/TGpC43wfI6QlYeFY/Nyr2zqqypS1a4RjZ1OXfu3Nq1a++///5sE+5hDKyzwzEeaiO0uvfee/Pz85ubm6lyVtPucBE+f/787Nmza2pqFixYwFwFiUp1dTW35508eXLatGlPP/305MmT+RhzcHDwiSeeQLWampp77rnn7Nmz7M7+/ftvu+22ffv28chEKEQiEesG1eDg4LZt22699da9e/cOSSCr2Xz8pi64E7lp0yaZzqVSqU2bNuXwHMmiqqmLBWQi/Mxq4IwpIMOl+XDJyQrOCAW1WekgK2e1ht6A1OXmWF5HyMqj4rHSW4a3nHXqkk6nm5ub77nnnrxr/6qqqrq7u6GThSYajVZXV//2t79duHBhXl5eUVHRT37yky+//PK1114rKSnJy8t76KGHurq6cK1DrDEGMT32xkyfPr2pqWlwcBAX9vf3P/3009gFcd9997W2tvImYiQS+e53v/vBBx9UVlaGQiEowLPnzp1bt24dLiwpKdm+fTvXdVzY3NxcWloajUYlcauPDrVTqVR9ff306dNDoVBhYeHTTz/tu/nq4MGDuE+cn59fXFz8T//0TydOnBgcHAS99957r7KyEpuauru7H330UUJobm5mX6yelpaWyrOOnkJ/KJmfn7927dozZ86gv1CAwfS5c+e+973vAZdlAsvQ+fn5L730EmEODg7u2rULTRQVFW3duvXKlStooru7e8WKFfn5+Xl5ebNmzZK2I/N0Ot3a2jpr1qy8vLz8/PxNmzYRYzweLysr++CDD2pqaiCkqqqqp6eH16KA0Orll19es2ZNRUXFqVOncNyadiORiEwevGelL1mEHX20lNm/f39xcfGhQ4e2bNlSWVnZ29uLCvX19Xicgp8tLS3Tpk3r6Oj4ZqA1Njbi4NmzZ++55x4kPBs3brRSl1Qq1dvbS3sZY3p7eysrK5kgGWMGBwfXrVu3bNmyK1eupFKp7du3T506FduH1q5de+7cOUtbY0yQjRx2wVVBviqbOHXq1MqVK2G7+fPnHzlyBGdhsubm5tdee62oqCgUClVWVvKslOBNXYwxFy9eXLBgAa0ZNEitzWbYyeDA4khdgpowxqAv3CZx+PDhyZMnR6PRdDrtmLtkHzn75efnr1+/fvfu3TLfCGJICel0esOGDTNmzKDn81RnZ+fs2bN/+tOf4kiQKIc5YrGY2K8XwkzlnbuSyeSLL75YUlKCzY2vvfYaJwEqY4yR0xEmmaqqKm7pzHCUuXH5ToYY7OwI8TomPevUrl27uCTJHnV0dGD5y8vLq6qqOn78uDzLcg7keS0K1hIgFztvyGitYkF+mE6n33nnHc69K1euhAv5Dhxr0XSMCEtzroAWIktJY4wM6Rzzj2Nd8NXc1yUsJWUQku0wxG2vgwcPIg6x1g5H6xLpj3/84+rqaq+LZhUVtLa2Xrp0qba2trCwMC8vb/ny5ZzzHYMraH2HX1ElzrdBKnn9kJAx6yIsnDNnzrvvvlteXs7QK8g/eTkLN3J5RaM5cKO2LHR3d1dVVeXl5RUWFr700ktbt26V9+OsqUZGv0GmgWT3TJg5Veo5pgpZpy779u2bNGnSzp07L1y48Nlnny1fvnzOnDnYpmLNNdFodNKkSbNmzWpqajpx4sT69evz8/Pvv//+v//7vz927NiBAwcqKirWrVuHGd8htq+vb86cOQ899FA8Hu/p6dm2bVtBQQFuqSaTyaVLl/LUzp07w+FwS0sLEEcikXA4PG/evHfffbe7u3vt2rUlJSXHjh0zxmCteuSRRz7++ONkMrl79+5JkyY1NDTIC++///6dO3cyucIpq48OtZuamoqLi1taWvr7+w8fPiw7Sw/4wx/+MHXq1FdeeSWVSvX19T322GOPP/44FnXQmzZt2ssvv/zRRx+dOXNm5syZa9euPXXq1IULF3784x9PmjTp/ffflwovWLCgo6Pj9OnTzz//fEFBATi4e9rQ0FBQULBt27aenp54PP7QQw/Nnz8fuQFGBULh/v7++fPnS84FBQXbt29H61C1oqJi9+7dJ06ceP755/Pz8/fv34+z27dvv+OOO/bs2ZNIJGD0Z555ZnBwEPHlmjVrzpw509fXV1dXV1RUxD1URNTS0hIOh6FhZ2fnI488snTpUmgVj8cnT55cWlpaW1vb3d3d3NxcUlLy3HPPMaODEARe0Wj0s88+mzZt2po1a5BWeZMTTr70EIZN8CVfwsaYoD6yFyggiMQesI6OjnA4TEqY1vESizGmpqZmxYoVyWTyiWv/MEba29sLCwvb29uNMS0tLdj/8+677w4MDFgN8WdNTc3s2bPPnz+PI6dOnZoxYwZyoWg0WlJS0tzcnEwmjxw5Mnv2bPoeL3fYyGEXt69SeE9PT2Vl5cqVK7u6uuC0kydPRn4Ck5WWlq5bt66zsxNug4yLl6Pgm7oYYzZv3sxUMGiQfvHFF3v27CkqKmpra0skEsDowOJIXYKasFIX5C3PPPNMKpVyz13sJqqVlZXt378fs9+kSZMYWzsYUgLuRD7xxBO+sTWrOUQ5zDEwMNDZ2Tl9+vS6urpEIvHFF18gxJw0aRLnrlQqtWbNGnQhkUhgnGISYOsotLS0FBQUPPvss6dPn47H4/Pmzbv11ls5BjMZZW5cQZNhOp0+f/58XV3d9OnTOzs7e3t7v9HZMenhFsA36fEnn3zS39/f2NhYUFDQ1NRkdaejo6OoqAjd4QLkzcBzI2+15VjsvCGjXMUcfnjo0KHi4uI33njj/PnziK4wd/kOHCjARdMxIqTm77//Pi3e1dW1cuXKadOmffbZZ74vk8jUxTH/ONYFr+ZBLiGVxHKwdOnS3IZhJBIpLS1dvHhxtquzRHr8+HGvi7pnWq5Z+/fv7+rqqqqqCofDM2fOrKur43K5ZcsW9NQxuILW91QqdeLEiYULF65evTqRSJw/fz6dTjtU8vohIW/fvp1xyP79+++99968vDykLg7/5OUo3Pjl1b30B3Gz1MbwR3D1zeu4zz77bH5+PlMXxyzEmdY39BpyJnREzpaGY/Nn1qnLxo0bFy9efPnyZfSnvb2de1rkhAis8iZ3V1fXXXfd9cILLzCyfOWVV2ghh9jGxkamHLhzzHiuvb29uLi4o6MDysB3V6xYgSgkEolUVVXxZejOzs7i4mLsqJFlYwx27HCNjEQiixcv5t19aTmrjw61o9HozJkzufWroaGhurqaQSRkNjY2VlRU8NZ7LBa7++67T548SXqffvopara2tt5xxx2HDx/GT4QjvC0RiUTka+iYjsHB0VMIkbF+R0dHSUkJeMrUxTJBOp2uq6vjXf9oNCoN3dvbW1FR8corrxhj0ERdXR2N3tLSMmXKlG9WKcRDr7/+OnrU19e3ePFi3gDGQdiFyYYxBssSwneU5R4wyxwQwtTFGNPc3Jyfn8+8V76mP+RTlyDCjj5CAf4fmQNWiwsXLjz88MMbNmwAGfzcuHGjMQZlGLexsVFyZh6Cm47l5eWhUCgvL+/hhx/eu3evfOSCRhF8MEFqamoqKys7depUMplcsmTJ+vXraZfGxkYORiocZCO3Xdy+SuGNjY0MU5gr1tTUMNzftm0b1duxY8eMGTO8j9SCUheZZlhe4Ziy3FikTPYCBUcTYBiLxU6fPn3//fdz15Z77qJ85Ku0YDqd3rZtG1MXB0NKgAKc3HjcKjhEQUKQOXCWc5F37rK6YIzZu3dvcXExd0JCEziVTFBPnTpVUVEBzTMcZVZbFi7HZAi15RBwTHqYYDdt2gT/TCaTa9eufeGFFyRSb3cQhXDIs3LO5CnBGONY7Lwho1zFHH4Yi8WKi4s7OzvRUHt7+9y5c/HgSErAWWvRdIwIqu1FhLf+cAfH2wRTF/f8414XLLFul6Cqbr9yWBCmkWvHlStXli1bNuTqjAutOIQEoJh7prVcor29/bbbbtu9ezeuTafT69evx9069+ByrO8YCHJucajk9UNogtZlHPLRRx+Fw2FMKQ7/pHVQuPHLa87cpObWPJNKpTZs2MCJyDqbeejl9tjMqUpVx1Q569QF2g8MDCQSie7ubuw5wSJkTQoy9mU4Yq1wtJBDLOZEJksSHwYVQ39r+bHeT/AusbjZhqcBcmeCdaFs0eqjQ23cVr/vvvveeOONU6dOMQiT0qzUZd++fTJ1kQ8BcNXg4GBfX19PT09LS8usWbMI06vw5s2bZVLk21NMJUFvR0jzeU2AgYEUQtZkDIrpLB6PFxcXy29ncf5KpVJPPvlkfn5+JBJpb2/3fXQAk+3YsYPQpBGxMUAGQNbMjqvkJZgXpkyZ8oc//MGadodMXeQEjfv6IOzoI9VGoampST5Z2rx5s9zGU1NT8/DDD3+Tt8Tj8alTpyKBPHbs2NSpU8FnxYoVVtyTTqdPnToVjUaxqaOsrMy6p4s+YlXArWI+54RKyWQykUgcO3bshRdesAajMSbIRm67QHKQr5JJJBJZsmSJTLdoAsjnJivfW7CQk0nqgpqZTFnUzReLI3VxNIG+7Ny5c86cOcuXL+edFPfcRU28Li2nIAdDSoAClvfyLAsOUW5z4CznIkzCcu6KRqNW2onbWNwJCR28cuQIzXCUuXGhId/J0Fo7GDjKdYeTXjqd3rJly2233bZ8+fJYLEabEibXO9zB4XHrKSiO50yeYqGtNLGEySmX9aULOfzw5MmTZWVlpaWlL7/8cldXl3xqJyWwF1IBHPQddFQDSlqIeNbbBI2LC3NbF7xisVPx/Pnz3kiAyrBpHpFyHBb0mkauHZAW5JDeZd2rBm7mZhIVeN2A8617cDnWdzlCSSZIJa8CuMR7XHqvwz9li8aYG7+85sxNak4r8KC0cs6hlxQCydJjM6dKrcZaIevUpbu7e+HChQUFBffee+83++NXrVrleOoiFzDpjqAg4TrEek1LiNFolFstWWAEZo18qQD2VhYVFU2ePHnBggWbNm269957OfNaF7I5bwjlUNsY88knn2zYsIHv4Rw8eFCKMsbIDWNnzpypqqriEwbvfFFbW1ukjayGAAAgAElEQVRQUFBaWrpkyZINGzZMmTKF4YJXYbJ19NQ7ZUj1pAJeE8hrZU1v6hIOh2kaFhCVXrlyZc+ePQi78/LyampqZCDL5Z9XsYCO55C6GGNw8/vxxx/v6+vL6qkL3QOUSBgoqBsLMvLmk73p06f/7Gc/w+ewtmzZcuutt3KTWEtLC25FNzY28ukK1obNmzfL+5HSTCx/+OGHJSUlVmZijKmvr8dzm7Nnz1ZUVHA7JfZeFxYWzpo1KxKJLF26lAOHMo0xvjbCUGJPWYBdksmkw1cp3Np3DiGYMSBfApTTLiUgLPBVW24YcwxSr1gHFkfq4mgCfVm4cKH1lQj33MU+0s14ROrsYMj6uDU45IYxhyi3OXCWc5Fv6mLZyHsJB7uUIwOjDEeZG5djMvRNXeT6hUe+4XAYbjk4OPjrX/+a77H8zd/8DV8bAHnfPnrVgw9zBLGQw0CQE5RsXc7V0E26kNsPE4nED3/4Q7ykdOedd/IVSikBMq01yDEi6JlSSR5kwdsE6eFCsmIhk3XBEut2CSrDpnlEynGMHd/UhdLcrVtIvS7qnmmty71uwGXdPbgc67scoSDjUMmrAC7xHpeO4fZPmgMP4m7w8pozN6oN97DmGbqH71mJy2EaKQTNSY/NkKrUc6yVs0tdsPf9scce42YqGT5KNN4FTLojKBCuW6w37yTEHTt2MMjjQRasoSsVaGpqKigo4ERszS/WhRRopS5utXlVOp0+fvz4ihUr5C12nE0mk88991xxcTHeQV+/fj3BWk65ZcuWkpKSDz/8kBdWV1dzmfcqzKcujp5iDIzoU5fOzs4pU6bg4QyBeAvJZHLXrl3hcJhbb1EHe8+su7O8XPoeDtKjWMc3JHrnnXcKCgpAmOs953Fca03KDsIZ9vHYsWOIALjQosD9jXjeXV9f/8QTT8inK5s3b66urn7zzTex0c4Yg811//iP/yi7KTcAyOP4WFlTU1NLS8vs2bPxiBJtbdy4kW9Lx2IxK76UQpCR0kZuu7h9lWI3btzIvvMgChiqOacuGJhYD9yD1Jqy3FiCUhd3E+jLO++8s2XLlsmTJ3MIu+cuAvG6tNTZwZASsI3WO/kwFsfda4cotznkvIpGrblrWJ66ZDjK3Lgck6E3LvSuO3zqQrZ4MvmrX/2qrKzMumsALNYjBd+nLjmTl2pYE5Q0iox1cIl0oQz98MyZM5s2beJDYykBMqUC7hFBtX0R8ay3CRrXPf+41wVLrNslqAyb5hEpx2FBK7TA5Zmszr4XWmq4Z1ppEQ52OalyyXMPLms4y5VRltE1h0peP8Ql3uPSezP0z1FZXnPmRi/yTU6kld2zkMM0Ugiakx6bIVWp51grZ5e6wKW4XRIvD1z/Uxe3WO9uv/Xr12OrSUdHx1133SXf7f75z3++ePFifDbAGrpyPESj0blz5zJPuHjxYg4bxhxq4x6AfJdA+g2dYMeOHcuXL7ceNeCs5ZSRSGTVqlX8bBd2gcvURb7Vg03VuM/q6Kl3j+nhw4fvuOMO7O+SClgmMMZs2bKFwZCsaT11wWsbMiHp7u6eN29e+7V/JSUlfHvHOwnyvSYZE/T393/729/GBxXcSxQhS7vjID4LW1BQMGnSJKYuGzduxH4t1JH77DG/BBF29JE6IDC6/fbbpa8CI9/jwreP582bN23aND6KMca0t7dPmzZt8eLFvDcDVvygAlqB0b3JAPaJ/e3f/u369evxJgmWsdLSUj4GxCsB3tSlvb3d10ZQNcgubl8lkzfffJMuhIP//M//vHbtWmzWKi8vl6us7/CBXSy1rY8jOwapMaa1tVW+dBGPxx1YglIXdxM4G4vF4HXk6Z67SMm9ZdnBkBLw10tvv/12vmaDU9QHXy5xiGIXKFOaA3Ek5yLvTSurC96tHRDrffNBjsEMR5nVlvWui2MyNMbs2LFD+pJj0sOGN3nTh1EgEXm7g4BejhpUzpk82/KGuTAZjILXOTilWEwcflhTUyPfa5UhpjVwLAXcI4JqexH19PTMmDEDuXRra+vtt9/OF1nlOwDu+ce9Lliau12Cqrr9ymFB79oBNxhydbaQQhPLRd0zrRX/SPNBGp3WPbgc6zteDuQaCp2DAhWvAlDDG4fId10c/knrjNbymjM3qbk1z0g/x19yY4SAqzIMvdwemyFVqedYK2eXumDUVVVV4aNAP/rRj6ZNm8bU5dChQ0VFRa+//jq/M8Ngy/fmN/NCt1h+Yayjo4NfGEPwir34lZWVH330ET9gtXHjRuzKtYaunM1xr6WxsTGRSHR0dODjGxyB1oXSZrKPbrUbGhrwZa3z58+fOXNm/fr1/BQbBf7ud7+bMmUKb8MXFhZ+5zvfwcemrfkCNzPee++9RCKxb9++b33rW5MmTWK4EIlEbr311scff7yzs7O7u/vJJ5/8Zkcfvj/m7im+MLZ161Z80uehhx6iklIBmgAfeauvr0freIFH1rRSF2PMW2+9VVRUtGvXLrwctXbt2pkzZ+KrYnPmzFm5ciW+0vPee+9NnjyZH3kjoo6OjjvvvHPr1q09PT34DhVjTfcSRQnS7jyIbWOh0H9+zhXh1K233lpTU3PgwIGdO3dWVFTIxMZB2NFHNgdXka8g4xTuFdXX1+NnY2NjKBTi+044iG8ih0IhmtsY887/3977P0V1ZXv/n7/k/tRVrVVNId1gIw0CYke+WBMxXDQgEitYUedmAEnaBImpMGTGQWUGYhymLUwRolDewmiaJJjQBlKSgumJkemBGyMyURg7rQwopgNVze3z+HE9rtrPPvS2IWgaefNDcuyzz95rvdbea+919pfT2UknjJ0+fbqvr+/06dO5ubkmk4nXg3HRmqb19PSYTCbxI5g0vVBRUTE2NjYyMnLgwIGUlBRx3EaPk93ntJHCLuq6yoJNTk4+//zzxcXFdGYDHTxFOpLJIgxd1J+kVDdSGoM2NDTQCWNqLE6nkybraL0f/ffy5cvqIkRdpqamiouLac+u2neJlPLy8ux2e19f39jYWENDg3jCmIIh50BL+VsefpLy9OnTn3766blz56RPUiqyElWgbMXQhQagBQUF169fn9PzT09P79q1i08Y+/jjj5OSkqQ4irI9e/bsihUrDh48ODY25vF4pBPGwnkSUVMK4MPhUjtD6uzb29vphDGF0yON6FCgO3fuXL582W6319TUSBsaxeOzyC0nJibyyxoWe8HkOQf9MFd0elQ/7Xb7p59+6na7y8vLbTYbn/SgqIcXL16k0x1vPfirq6tLTk7+7rvvNE2TGo4kgLpFiGIToqqqqvsn6tIJY7QRUdM0aoxbt2794osvPvnkkxdeeCExMZF9lML/qPsFSXJ1lWBR1fVKYUEis7DeWT8Okaqo2tNKj+sjBw5d1F2Yun+vrq622+2Dg4N0wphCJDLob3/72/HxcbGlhB6c+mMymZqbm30+3/nz58UTxhT1k61D9e0X6V4VTknNjYWng0+3bt1Kg7eqqirxhDGFF9K/JBLf/6prbCRUWcLovJhf6KJp2uDgIH2HxGw2Hzp0qL+/Pz09nbZKB4PBw4cP08ZrPVbRmRILDl3U2YpHqhsMBumjIoFA4O2336b9JPHx8W+//TZPYkhNVxQgGAweOXKETjfPy8vzeDxiYvFaMpuko5oGf9fFZDJt27aNP4DDeZ48eTIzM/N+2E3DoObm5pSUFIr3pHo/NTX1yiuv0BcwSkpKvF6vtGCsoqKira3NZrMZDAbx+zZqTcUPKTzyuy6vv/46f1VGf7g4Yxfbj/StBokDfzPEYDAkJyeLn9ZhRJqmiQf/5+bm8lyBuoviHES78498vjDHq2xZo9G4ZcuWb775RtoJE46wWkcq0ePxrFq1Sn98Kp02Q0eO8py+NHNCrxhjYmL4BSTl+fe///2ll16imk9Bb7ivRtAHXrgUery7u5s+tmOz2VpaWjo7O3lYIFJS2CicXdR1VcycD56XKgCZLMLQhSN/+oDSiy+++Ne//lXsGhWNNBQKnTx5kj4dQ8UpsMy5Ppjqj6IISReKmYuLi6emphS+S6Q0Ojq6fft2WlNaXV198eLFtLQ0Pp0iHEMxB7q+evUqVxiTyfT8889LoMJlJakgrZsl703frCAaku+i1xmHDh0izlarNdx3XWZnZ1taWmhdZXZ2dm9v7969e7mFSs5qTo9KQ95wuNTOkD0AD+tv3boVzumJH1uQ+h2RvMfjycvL42+ghWuhCybPZUl9luT0BgcH+eNmx48f7+joYB3JOnP2oeJ3Xeg7bOx79Q1HEkDRIlhmuhDdiPTpm+7uburR7sdaLpfrz3/+s+ijxAcj7xckydVVQhR1wc3Q4XCE6zvUpUtIaXUiDbHIfGpPKz2uDl0UjUtqzlL/7vP56JskvEA33ECFyYtvtInw9PT04cOHaTy2ZcuWS5cuFRQU8Ku6R/rJX7B7XTA3sWoNDAzwoPr+p8w++ugjsZ4rvJDaNOoa+0iqooRReD3v0CUKdViiIpELkBZD609+WKLaQezoIUChC8/tRI9gkAQEQAAEnm4CUgjxdCsL7UDgyRBA6PJkOM9RCm1CyMnJ+cc//hEMBmdmZmjhwZwfa5vjefwEAo8iEAwG//Wvf1VVVUm7Sh71HO6DAAiAAAgsAgGELosAEVmAwP9LAKHL/8vjyf7r3r17NTU18fHx9GHBjIyM999/nw99erKyoLSnkAAtErDZbOKndZ5CPaESCIAACEQlAYQuUWkWCLW0CSB0Wdr2g/QgAAIgAAIgAAIgAAIgsEwIIHRZJoaGmiAAAiAAAiAAAiAAAiCwtAkgdFna9oP0IAACIAACIAACIAACILBMCCB0WSaGhpogAAIgAAIgAAIgAAIgsLQJIHRZ2vaD9CAAAiAAAiAAAiAAAiCwTAggdFkmhoaaIAACIAACIAACIAACILC0CSB0Wdr2e/LSz87OHj9+/L333pudnX3ypaNEENAT8Pl8v/vd7z777DPpFuqqBGQR/zk8PPz6668PDw8vYp7IKkICwWCwt7fX4/HACUdIDMlAAASeJgIIXZ4maz4JXQKBwI4dO/bs2TMzM/MkykMZ0UGAPhHjdrt/cXHcbrfFYvF6vSRJMBisqqp65ZVXAoGAJNuTr6vRQ0lE4XQ6i4qK9HzENPO97urqslgsfX19831wSaf3+/3r1q1zOp2/oBahUMjpdGZnZ4+Njf2CYmia5nQ6161b5/f7f1kxllDpku9SSB55Ss7E6XQahL/Y2Nj9+/ffvHmTEzgcDuH+/70ULXjv3r3a2trk5GT60FxWVtYHH3wgfmhuZGTkpZdeio2NNRgM+vy5IFyAwOMmEKWhywLa7eMmhfznJLBYllqsfOYUcjn/uFhgo2dQLmnU3t6+b9++qakpTdOkW0/e7tFDSdT9cYQuYv7L5zoaQpfLly//53/+5/fffx8h9scXYDy+nMOpFg38JdnmJVLkDirylCyP0+k0m81ffvml3+8fGBg4ceLE6tWrN27cOD4+TmkcDofVam1ra/tU+Ovu7qbgZHBwMD09ffXq1UePHh0YGOjr66uuro6NjS0pKSHv+v33369du3bjxo1nz569cuXKf//3fz/zzDMpKSmYemUT4OKJEUDo8sRQP50FLcDDzglisfKZM/Pl/ONigY2eQblCI8WtJ1MHHiulYDDY1NRktVrnO/eF0GWxrD+vcepiFfoz83l8AcbjyzmcylHIf14iRe6gIk/JrJxOpzgdrWnauXPnVq5c2dvbS2kcDoc4x8IPapo2NTWVn5+fmZkpTeV1dnaaTCaaZmxtbZXyv3LlitVqPXbsmJgVrkHgCRCYd+hCveA333yzZcsWo9FoNptPnjz5008/HT9+3Gq1Go3G3NxcjsJDoVBHR0dGRobxwV9hYeHIyAhp5fV609PTv/rqq+rqapPJZDQaCwsLfT6fpmnStCb107Ozs21tbampqQaDwWw2NzQ08DymJJLJZDp8+HAwGKSCIn9QrYumaR6Ph7Qmaa9evUpFhEKhzs7OrKwso9FoMpl27949OjoqGS8QCBQVFTkcDv5ddHl03dHRcfz4cbPZbDAYsrOzBwcHOfHIyMi2bdtMJpPBYEhNTe3o6AiFQnyXLhS0KX+Xy1VTU5OUlOT1eikx8UxNTf3kk09KSkpYPIfDIa4wkYR3PPgLZ6nJyck33niD5pSfeeaZ7u5uFlUs1GQylZWV0XS23uJSiZqm6XHp1ZmzpomUqKp4vV6uvU1NTVxVaGhI0+Uk3q1bt+hxevDChQvZ2dlE6datW+Xl5aSm1WoV8+ESg8FgS0sLQY6NjX3jjTcmJyfZWGKdYRSsaWdnZ1NTk9lsNhqNW7Zs4YajadqtW7f2799PRaemprpcLl7yLsmpB0uPh5NcepwV0TRNGpQrKpv4lCKZwgNomqZ4UOrUSeZAIDCnslxXSar+/v6NGzeyOxKbcDhPRQ9OT0+/+OKLL7/8MqPWNK2+vj47O/v27dusskRJ07RwLTcSp0HGKisrIw+ZkJCwffv2r7/+emZmhuhduHChtLTUbrf7/X5FhSREotMWq6ui2muaFo4YCcDL9gKBwKFDh6xWq8FgsFqtx48fZ//8SEN3d3ez86yqquI2ItXztrY2ET4x/zlNTOFv2aAcLhqNxo0bN37++efigjGFr+McNE0LBAJvv/02+woRjsJqDofj1Vdf7ejosNlsNHYMV5fCFUFelNcI8bhTIba+UFGRkZGRwsJCo9EYGxt7+PDhhoYGHgqHQqFwdqQK0N/fX1NTQzW5tLSUXauipUvd1okTJ1gXg8FAfljxuL7iVVRU3Llz56uvviInYLVaP/zwQ+6eRkdHd+/eTRLm5eVx/6vond1u97xEknyXyPbWrVvU0k0mU0VFRXt7O9tL07Rwsok56EOX9vb2hISEoaEhSqYIXbq6ulasWOFyucQMqV795je/qaio+Omnn06cOCGKpGna7Ozs+Pj43bt3pafwTxB43AQWErrExcVlZWW5XK7r169XVFSYTKbMzMzXXnvtypUrfX19dru9vLyc+pjz58/HxcU1NzffuXPn+++/Lykp4elLr9ebmJhos9lqampGRkY6OjqsVutbb70VCoXu3r175swZnvqkPRVNTU3x8fFnzpzx+/1UyoEDB6gUp9MZFxdnt9vb29uvX79+8OBBk8nU09ND7B75YIS6eDwes9n85ptvjo2NjYyMlJWVWa1W8m6XLl1KSEj44IMPJiYmyLnn5+fTHCvbL5KxuM1mKy8vHxoaIgVffPFF6v5v3ry5YcOGsrKy0dHRO3fuvPvuu3FxcRcvXuTM6UJBm5yvzWbbsWNHR0fH5ORkV1dXTEwMqePxeDZv3rxixYr5hi56S9HugtzcXK/X6/P5mpubLRZLV1cXSXjq1KmYmJjGxkafz+f1enNzc/Py8iYnJ+fM55GRnqiOQneRktPpXLNmzcaNG8+fP0/ixcTENDU1URqn02m1Wjs6OgKBwODgYE5Ozq5du8gEVMfWrl179OjRy5cvkzW3bt367bffBgKB9vb2uLi4U6dOiWVpmuZyuRISErq6uiYnJwcGBsSmcfbsWUYxNDS0devW7OxsCt3JWBs2bKiqqhoZGZHuTk5O5uXliYQlFeLi4ljOcGDDSS6pKaojDcojBK5IpvAAmqYpHpS6fw5d9MpSdM21+uLFi1znh4eHd+/evXbtWlp4oyiOIbS2tq5Zs4bfy9B7yurqak6gD/AULTcSpzE9Pb1r167t27ePj48Hg8Fjx44lJyd/9913VFBiYqLVan311Vfdbve///3voqIitVmzsrLmW+0VxMTQJRgMlpaWpqen9/T0+P1+cubsn9WGpj0z5BOoqu/YsSMQCMzOzt53hvn5+deuXZucnGxtbY2JidEPrX5OEwvnb0WDNjU1cTvt6elZv3690WikQELt6zgTMiLDOXPmjMViqaurC4VCajficDju7ybKzMxsbm4eHh5W1KVwRfzv//7vxMREXV1damrq0NDQ7du3g8GgWmypUNZC0zSfz5ednU2e5/67+TfffNNkMnHoEs6OVFeTk5MzMjIaGhrGxsaodyMrq1u61G35/f6hoaHU1NS6ujq/308jZkXL5YpXV1c3MjLS2tpqMpk2bNiQn5/f09NDnXhaWhq9ZyTtdu/ePTw8PDY2dvDgwcTEROrfWQx97zwzMzMvkSTfxXjJKFRJfD5fY2NjXFwcxwkK2TgH2nrEo6aRkZHm5ub4+Pja2loO+B0OB9UEv/BHW+Cqq6tTUlJu3LghZihdDw4OWq3WdevWtbe3S8MbKSX+CQKPm8BCQhe73c6zCsPDw2vWrKmtreVXF8eOHWN3VllZWVBQ8OOPP5Iavb29iYmJ9KKO3EpHRwdrKCaWWvjExEROTg65e0rf1dWVlJREwwin0ymKdPv2bbvdTpOY83pQocvMzMzOnTs5ltA0jUaQ+/btC4VCbrdbfLfR29u7adMmfqFLAkcSujQ2NjLGEydOpKWl0Vi2u7s7Pj5+YGCAsiKlqPtkepqmiQA1TRNpk/M9evQoeTG9OqOjo3a7nQd5Ec666HcX9Pb2JiQkeDweEiwUCu3bt2/nzp0zMzMkNkWndNfj8VitVkosWTwSXKyOWncREQUnTDIUCr311ls5OTkTExOBQKC4uLiiooJN0NrayjWZ6tg///lPym1oaCghIeH8+fP0T+LJ9LhEp9O5YcMG3sZ66tSpoqKiiQd/OTk5IgpaRkw2JWNVVVXxdBDNy7e2tmqa1traarVar1y5QqWEQqG6urqMjIwffviBei+73c5y6g2kllxSkxXRD8oVlU18SpFM7QEUD0pVhUMXvbJi6KKv8zdu3EhJSTl37lyE9Wd0dDQtLa2lpYUUvHTpks1mu3TpkqivFOApWm4kTmN4eDgpKam7u5uKoIpBAhM9l8tF1fWRZrVarWK137dv3yOrvZqYGLr09vbGxsby2yJN086ePZuQkPBIV09FlJaWclUnvXp7e8kDVFVVkYKBQKCsrKy2tlakTRV+wU0snL/lIvQu6/LlyxaLhdqpwtdxDuSHJThHjhx57rnn7ty5o7aaw+EoKCjgOShFXdLz5yL0m+nVYkuFiopInicYDO7bt488pMKO5DoSEhKcTie71p6entjYWFrIpGjpUrfFM9Ji36d4XPIwJOTmzZsnJiZIr4GBAbPZTMs6Wltb+UUGzTYUFRXRiwkSI1xtobsRiiT5LsYrWTAUCjU2NnLoopCNcyBDi1NABoNh/fr1nZ2dYugiJTAYDCS5YkJGLGJwcDA3N5c38Tc1NXH9FJPhGgQeN4GFhC7iUiJ9u9Wvf52ZmfH7/SMjI01NTcnJydyfpaen83oDycNKLdzr9SYkJHAXLg2kxLELOx0aR87rQYUudEta01ldXU3d/40bN9LT020229GjR4eHh9lTiMaLZCwuLmGXCPDkrM/n6+rqysrKEn2lWNCctEl+zl+vqSTegkMXGvuKS2i4PtCojof7osz6Qackj9RpSepwVnPqznepjom1l1YDi2En1R+/33/lypXa2loxdJEepEVNExMTNA1YWFioD108Ho/FYnnmmWc++OCD0dFR7rn1KKhbpRhPr92dO3eee+65yspKGouLrwN4bETjAKkt6MESjVAoNKfk+seZnjQop98fCVyRTBz7UjKuKlzonPlLTUOUWbolhi5EVWrCXJBCTk5DcTi/v6ivr9dPrs5JiZZVSC03EqchhS4+ny8tLY1DF8l/KiqkiIjUOXfu3COrvZqYaD6n08nvWSh/eg1EwbaYku6yoamIEydOMGT6hYa59fX1K1euLCkpcbvd4d7yLlYT09ccqZchCVk8ciZ2u31OX8fqUDIJjnhXYTXHgz8p8Zx1Sc9ffIpp048KFy22FzEHupY6BbHLVtiRMEp1ld4aiHafs6VTttxtSb2AKOGcj+srnqSC2FodDkdxcbF4Ch8n1osh1haxSjxSJPFBMbFkI8lvK2STMuFoR9O0mZkZmqvkZQWK+ERxSyyCrm/fvn369OnnnnvOaDRaLJYvvvhCnwa/gMBjJfB4Q5eRkZEtW7bExMSsX7++rKxsz5494qyL5M7E1iu1cHIx+hcG5NSkjlkc9c7rQb0PYpH0t0THTS7197//PS31Xr16tX4viigVWVTMk65FHy0SCAQCNTU1MTExNputuLh43759SUlJ+tBFQVvKn/4pRhGSeOy1SVT9XR6mi3ISE72ZKAAQ+wl9nZbykUqUOi1JHdpREK6miWVJVUXqIfr7+7Ozs2NjY7OyshwOx44dO8KFLrQC3mw2JyYm5ufnV1VVrV+/npmIJV67dm3fvn2886e/v3/OIRENGig60msn0pBMI+WmVlDTNLXk+sdZF8l8isrGj6jtoh9YcHNTPyhVFVFm6ZY4FCOq+lZD0kaoTk9PD3kwsog+N4mSuuX6/X610xAXjE1PT//pT39KS0ujFW4SvfmaVQQVrtqriYkCiIYjnuKzYkq6y+kpmd5jENjZ2dkvvviCtxf++te/5g0SYh1blCYmAuHMJWtKXkg6i5a0YI/BmbCy/AtfqK0mhS6KuqQoQuqn1C5abC8sJF/oPQ+Xq7ajvgKI1UPR9CiZ2C2KD5Jgisf15UoqiPaVdsqRNcM5ZLG2zEsk8UEGq7eR1DEpZJMyEUMXiop5WQEZV18/KYdIFoyJZdH1999/n5mZqX+Do0+JX0BgcQk8xtCF1oJv376dpxRFVyJek0rsB6V2q2na0NBQUlISH5QhIRDHLtKsy7we1PsgFoluSa9sedZFlOfmzZtVVVVms1laSSKOPim9WBxdiz5a9HH19fVWq/Xrr7+mB+ccNqlpS/mLRYt58uBbcvGS8GKfKsqpadqJEydoJkpkQtfUT4jxkphGykcqURo0SOqodRdLkaqKOOtCy4EqKyt5e7Hb7WZHLz3ocrliYmLEAFVkIpZI16FQ6J833G8AACAASURBVOrVqzt37qSl1XoUT2zWRS25pKaoiNjNRwhcnUzhAdQPSlVFlFm6JQ7FqM5ITZgUVBcnQqDpr/r6eq/Xa7fbedkepxEp0T7+R7ZcTdPCOQ3agpySkkJbhzdu3MiLviR68zUrz7ooqr2CmPQqXf/WP8JZF1rcS5MzzFB/EQwGP/vss/T0dN5FqU/zM5uYvuZILwWoRNFzKnydKJ4eDt9VW01yKYpeQFGEflisFlsqlEWlpiTNPHP/qLajVFc1TeNZF3XTk/y81AvwuViRjzGkfk1srZWVlTTpLapM13oxxNoiVolHiiQ+KBbEJPlHMaVCNk5PhpZCF03TxAX8iqkVxTb9oqKi4uLi27dvlz34EyempPxFYXANAo+VwGMMXahJt7e3swIdHR0Rzrp0d3fzUmlN03jEwFmNjIxs3rx5zkUy4qh3Xg9KPkh0+jSy5LUi7KGoK62urhbX8IgOkQWmrRTiCUXismm1c3Q4HHv27OHl4LQvRXrjq6Yt5U/C6PPk0KWyspJWY5P8+p0wnFKylMfjWbNmjRi2ffjhhwUFBePj4/qF4wMDA/Hx8bQOUMpnXrjUurMJyKDitijaCkyaer1em81GsyL0vqqxsTFc6OJ0Ojdt2sQx+dTUlH7BGNUZcfMM90Z6FDSCrK+v5+5ZXFp96dKlVatW0UohacU5jY95s6k4jifFJbBqyfWPMz2xVkcIXJ1MP6Dh/lv9IGMk2USZJWXF0EXfhGn91YkTJ9TFMQG6uB+3PPfcc3/4wx/mHOiIlKh0fSujlhuJ0xgaGsrKyuKTjkRJJHqPNKtY7WlX/SOrvYKYFLpIK/XpgAp+fSOJKvrV2dnZl19+WQxIJicnX3jhhVOnTlHwI77pkMadtCRm586dC25i4V4VMWd9OxWdtsLXcQ68nlPcCHTs2DFaaaa2mhRFKHoBPX8ugl4nsR+jczLDuWixvYgq0LXkecS9Lgo7UlVJTEwU97W6XK5Vq1Z5PB5106O7opkoRuK+T/24vuJJVUhsrefOnWMvSvr+8Y9/LCsrCwQCejFEFzQvkcQHRcKSBaW9LgrZxEz0J4zRuYjclStCF9q7G+5w5JaWFlouK24Hojn80tJSfll59+5dKbARxcM1CCwigccYutALlcLCQjqy45133lm7dm2EoQv1Ww0NDX6/n04Y++ijj8xmc1tbG22bKSsr27BhAx2tK45dpFkXTdMif5A8FLtFsYvVNE08bGdkZGTv3r2JiYn0EvTixYsWi6WxsfHWg7+6ujo+CEg0VX19vclk+stf/tLb2/vOO++kpaXxielq50jv2y5cuOD3+8+fP/+rX/0qLi5OlJNDqXC09fmfPXt2xYoVBw8epCNfcnJyxBPGXC7XihUrqqur+/r6mpub7XZ7XFwchytinypZKhgM7t27Nzs7+/Lly3wWXGVlJe3/oRPG6JwZOmGMT5yT8qEReYS41DVNNIHT6VyxYsXmzZs9Hs/Y2NihQ4dWrlxJJ4NR8FBRUUEnyB04cCAlJYW7fKmO0evS1tZWv9/v8XgKCwstFgvz4RJPnTpFx+JNTEzcvHmzoqKC9RUPWxsaGtq2bRt3G2SsuLg4PpAnOzubHxwfH7//9p1PGGtpaaHKQBtpJDk1TZPAqiXXP866EJ/f/va3dBpmfn5+uMrGj6jtoh9YcOiifvDSpUtms/m9996jI4ZEmSVlpaEYNWE6t41OGEtKSvruu+/UxbE6dHHlypU1a9asXLlSf9oVnWGalpZGlEKhkKLlRuI0pqamSkpKeD0Vnc/b2dkZCoUkeo8068KqfThiUuginXD18ccfJyUl8TkTkqiSX/V4PKtXr25oaPD5fHSyE720ojypnt+5c+fy5ct2u72mpoY3jJE5fk4TE8fEc44pQw/OwDCZTM3NzT6f7/z58+IJY2pfx9WG4Zw/f97v99MJY6SI2mqim+UZvDl7AUURHDu1t7fTCWNqsaVCWQtN0+goka1btw4NDY2MjFRVVYknjIWzI1WVhISE1atXt7W1+Xw+qh50eKO66em7LQqnCwoKrl+/fvfuXfXj+oqnCF0mJyeff/754uLi+56BT8mjTlYvhlhb5iWS5LsYL0UOdru9r69vbGysoaFBPGFMIRvnQM0qJibm/lE09MHJc+fObd++3Wg08tGXkX+SknKQPkk5MDBAJ4zdHxL09vZ2dHTs2LFjxYoVtJfm2rVrycnJzz77LL/RE2XDNQgsLoHHGLpomjY4OEgHqJvN5kOHDvX39/P+Fr1b4YELvfM+efIkfeGEOhhaO0GfyDCZTNu2beMvXYhjF33oEvmD5KHEkEAUid5X5eXlzflRCP5GB33Zhl/ei9aampqqqKigx0tLSwcGBvgTAWrnODU19corr9CikZKSEq/XW1RUJMpJpSho6/OfnZ1taWmhzTnZ2dkXLlwQDyMOBoOHDx+mErds2fLNN9+Id8XuLRQKSZYSP2IQHx//9ttv85sYyRbix0z0+cwLl0J30QROp7OwsLCjo+P+1nmDwWCz2cSPRXR3d1MFs9lsLS0tnZ2d4UKXYDB45MiR2NhYo9GYl5fn8XhEJlyi+NEJqdLSZz1IDPETNzzr0t7eToMDo9G4a9cuPtOPvvXx+uuv80d+9N91YeD6pqSWXGpKrIiYDy0aiRC4IpnaAyge5MpJsaIos74WSXYJ95USRXEiBE3T6EWm9IKW07AAREnRcsXvuoRzGt9++21mZubhw4fFsQitCZHoPdKsC6v28/2uC3nsOb/rEu5EFqmI3Nxcdp7id10kT8LAf04Te2ToQuY+fPgwtfQtW7ZcunSpoKCAfa/C17GE1CXN+V0XtdWkqquoS4oi6NU4OXNeTaQQWypU1ELTtIGBAe7Q73+C7KOPPmIPqbAj1dVPP/10165d9Okz8es9iqan77ZoUJGdnc3fdVE8LrURepEhrnkTZ13Ir9KXVQwGQ3JyMn/7SC+GGLrMSyTJd4l4R0dHKdIwmUzV1dUXL15MS0vjVsNffZFkE3OQNl+Jbzoo2Zx7ZkQL3rt3r7a2lr5sZjQaMzIy3n//fV5BrWna9evX9+3bFx8fbzAYTCbT888//9e//pXeJvh8vmeffbakpETsfUTxcA0Ci0hg3qHLIpaNrKKHgLjKLnqkWnRJxGHuome+WBnqe8rFyhn5/HwCFLqIB1v//DzD5eB0OsWVqPwCWzxrMdyz+B0EooSAPoSIEsEgBgiAwBIlgNBliRpukcVG6LLIQH9Gdghdfga8x/jo7Oys3+9/9913ExISxN1cj69Il8sVFxfX3t5On2ikNYf86dLHVy5yBoFFJIDQZRFhIisQAAFN0xC6oBr8/wQQukRPPUDoEj22ECUhu5jN5pMnT0o7LsRki3g9OzvrcrkyMjKMRqPBYIiPj9+/fz9t8FvEUpAVCDxWAghdHiteZA4Cy5AAQpdlaHSoDAIgAAIgAAIgAAIgAAJLjwBCl6VnM0gMAiAAAiAAAiAAAiAAAsuQAEKXZWh0qAwCIAACIAACIAACIAACS48AQpelZzNIDAIgAAIgAAIgAAIgAALLkABCl2VodKgMAiAAAiAAAiAAAiAAAkuPAEKXpWczSAwCIAACIAACIAACIAACy5DAIocu586dO3z48DL8nOrw8PDrr78+PDy8DOvQU6NyKBQ6d+7coUOH/v3vfz81Si2WIpHXcEXKZesfFssKyAcEHgeB2dnZ48ePv/fee7Ozs48j/2WSp8L1RUgAhogQlJTsf/7nf9566y3957b8fv8bb7zx17/+VUqPfy51AvMOXYLBYEtLC31qwGg0ZmVlffzxx+TvZmdnDxw48Oyzz05OTj4+Lk6nc926dX6///EVsYCcu7q6LBZLX1/fAp59mh7xeDzPP/+8yWQyGAxWq7W2tvbevXtRoiB9l8PpdIaTZ2BgIDMzs7e3N1yCJ/+71+u1WCxut/vJFy2VKNZw9ZdnxJSi/I/0Dwtu2m6322KxeL1eSWbpn4vy8aJH1iKp0Cf5T0lBh8NRVFQUJS+SpqamKioqjEZjFHrvJ2mj6CwrEAjs2LFjz549MzMzegmleqVPgF+IgOj6FsZEbQjOU+2BOdnTeiE5/KmpqRdeeKG+vj4YDEoqDw4OJiYmnj59Wvod/1zqBOYXuoRCobq6OpPJVF1dfX+c19fXt3///pUrV/7+979/Mt9o0zRtweObpW6qOeWPqoGUx+NZtWrV9u3b3W730NDQiRMnVq9evXnz5vHxcU3TxO/rmUymbdu2Xb16Va+U5JX0CRb8i5rV+Pj4nj17uru7F5z/43hQHPo/jvwXlmfkHee85F9w046wzizKCExdixbGc7GekhSMqtClu7vbbDZ/8skn4+Pji/tqP0LrLxbkZZiPVK+WIYFoU1ntgZ/6FiEqODs7W19ff+TIEYpbxFvRZjXIs4gE5he6TExM5OTk7Nu3jwOVUCj01ltvpaWl+Xy+RRRLkdWCxzeKPH+pW6FQqKOjIzU1VTEVoJYtqgZS1dXVGRkZP/zwA8vc09OzcuXK8+fPa5p26tSplStX7t+//8qVKz09PXl5eWvXrv3+++85MV08PtcTVawkrcP9c15D/3CZLPrv6o5TLG5e8i+4aUdYZxZlBBbNtUhSMKpClwUbV6xOc15HaP05n8WPkRCQ6lUkjyxumlu3bpWVlWVmZkbbaovFVVOdWzAYbGpqslqtbrdb7YGf+hahUFBxS40Xd5cWgfmFLrdv37bb7WLoomlaIBC4ffs2hbxOp3POJQqOB3/9/f3Z2dkGg8Fms3V0dHD8EwgEDh06ZLVaaZXR8ePHp6enmePIyEhhYaHRaIyNjT18+HBDQ4O45GB0dHT37t0mk8loNObl5Q0ODtKD1LY7OjqOHz9uNpuNRmNhYaHP57t69Srn9uc//5lnGBUy3Lp1a//+/bGxsQaDITU1ta2tTf/W0Ov1pqen05IVqWiDwZCdnc2CBQKBt99+m3JLSEjIycnp6emhRR2Tk5NvvPEG3XrmmWe6u7sZ0cjIyM6dO0nNrKwsuuV2uw3Cn8Ph0DSNHFxycrLBYDCZTGVlZbdu3SImZJ0LFy5kZ2dTYoasaZqidIfD8eqrr3711VdkPrPZfPLkSZaNM6msrJRCl2AwePv27cCDv+Li4pdffpnRzTmodTgcgkIGWig1Ozvb1taWmppqMBjMZnNDQwNXD9Lom2++2bJli9FoNJlMhw8fZpuyrzcajRs3bvz888/XrVtHUSLZyOVy1dTUJCUleb1eqTO4detWeXk52cJqtTY1NXG2Eg2bzdbd3X3v3r2amprY2Fij0VhSUsLMQ6FQZ2dnVlYWiVdWVnbz5k0iJt3avXv36Ogow6QLPaWRkZFt27bRkrzU1FSxHfGzVBv7+/tramqozpSWlrJImqZ5PB4iRu1CnP6as6Zpmqao4UajccuWLSMjIywztwVJfsk/qJu2QlMaypge/FVUVLS3t8+5YIxfDVDLdblchYWFXPMV9YpJcoOyWq36WqRuNeFIklS85rawsJDR6aslYb9w4UJpaandbqehWzjzSUNMKXRZmGeQLKhpmjg4IPG++uqr6upqqmnkZkWAJBW3a/Leel+k8MCKUub0GFw6PRiuIczLEAp6XJymaWKVI/fL7V3d7iSvIvpYWqRNDjA2NvaNN96gJdmSuTVNo/rDL8KkPNWeivpo0oUe7OjosNlsTqdTX5CibYar9pTz7du3s7Ozjxw5wtBmZ2fLy8tffPFF9up0q7+/f+PGjeQ2ExIS/vCHP1y/fn32wd/CugNFe9fXxkf6f4bDiqidpDQMUAwqREOwozMajQkJCdu3b//6669nZmbI0Dy8ETP/OS1C07RwltW7pghbhCJZJN33nCMZ0QVpmsbE9LqT2LziWtE8Fd5ANDGuo4TA/EIXWq1uNBpfffXVb7/9loehrIw0NOHfHQ6HzWYrKCjweDxjY2MHDx6MiYnp6uqikUFpaWl6enpPT4/f7+/o6LBarQcOHKDMfT5fdnZ2bm6u1+sdGxt78803TSYThy50d/fu3cPDw5RtYmIiBQlUZW0222uvvXblypULFy5Yrda0tLRf/epXLpfr+vXrBw8eNJvNtK8rGAyGk4Eca35+/rVr1yYnJ1tbW2NiYlwuF6tGF9RHiqGLzWYrLy8fGhrq6+uz2+3kmkOhUE1NTWZm5rVr12gBlcViuXjxIkWAO3bsIE19Pl9zc7PFYiFEU1NT+fn5paWlN2/eHB8fr6urI8lnZmaGhoZSU1Pr6ur8fv/du3dpQZ3Vau3o6AgEAoODgzk5Obt27aJewel0xsXFrV279ujRo5cvXxZVoCW2c5ZOrsFisWzevPnzzz8fGRkpKyuzWq1XrlwRc9A0raury2Qy5ebmfv7553OumRbTezwei8UibSy5e/fumTNnzGbzl19+6ff7KZOmpqb4+PgzZ874/X6CydWDNLLb7e3t7WRTk8nU09NDBTU1NcXExDQ2Nvp8vp6envXr1xuNRjF0sdlsO3bs6OjomJycFH0cddVbt2799ttvA4FAe3t7XFzcqVOnKFuHw2GxWPLz83t6eoaHhwsLCy0Wy4YNG+rq6kZGRqgC19fXU+KzZ8+yDENDQ1u3bs3OzqYpykuXLiUkJHzwwQcTExM0iM/Pz5+amhIpSQPHmzdvbtiwoaysbHR09M6dO++++25cXBzVH+mp5OTkjIyMhoaGsbExgrZjxw6KkD0ej9lsfvPNN8fGxtia1GrC1bQ5e2WbzVZVVTUyMiLpJbYFSX7RP6ibtkJTqqvkMXw+X2NjY1xc3JyhS1dXV0xMDGnq9Xo3b968YsUKDl0U9UqEqahFilajIHn+/Pm4uLjm5uY7d+58//33JSUlGzdupEWV7LW4Wnq93sTERKvV+uqrr7rd7unpaYX5pCGmFLo4nc4FeAbJgvrQJTEx0Waz1dTUcOV/6623xPcaoVBoYmKirq4uNTV1aGiIFoxJvkjhganuhStlTo/B5vN6vYqGMC9DKOhxcTS3zO3d6/Xm5ubm5eVRpKEwnNrHulyuhISErq6uycnJgYEBu91eXl4+OzsrmXvO0CVyT8XjPxYmMzOzubl5eHhYKkjRNhXVnilVV1fn5ORMTEzQL6Ojo2lpaa2trZxA07TvvvsuOTn52LFjwWBwfHx8+/bt3Ispmu0juwN1P8I9YyT+n+GIYouuj9uyfhigHlSwIaanp3ft2rV9+/bx8fFgMHjs2LHk5OTvvvuODT3nGOPntAiFZVkddk0RtghFMrW9FA+GC130uovdurp5KryBaGJcRwmB+YUumqZNT0//6U9/orfRsbGxZWVlf/vb3ziGEYcmooYOhyMzM/N+7EE/Tk9Pv/jiizt37pyZment7Y2NjeXhpqZpZ8+eTUhIoDCgtbVVHCUHg8F9+/Zx6NLa2iouOiKPU11dzW27sbGRO9Hq6mqbzfbPf/6TZPD5fGlpaTSQVchAeVZVVVE+gUCgrKystrZW1G7OgZ1Y9IkTJ2hNHa24O3HiBD1OmdMrqN7e3vuTMB6Ph26FQqF9+/YRImp+7733Ht0aHx8vKCignWd0i1+zBQKB4uLiiooK1rq1tZVxOZ1Ou93OBEQVFKVTT1ZYWMij6qGhoYSEBFoGJmYSCoW6u7vXrVtnMBiMRuNzzz139uxZaZfw7Ozs+Ph4T0/P5s2bDxw4wFMZnI/klYhYXV0da9TV1ZWUlESHuZFGPFlBs4LHjh3TNI0eFEdRly9ftlgsYuhy9OhRrrqij5MUnJmZ2blzJw95HQ6HSKO3t3flypXt7e2kQigUqqiooLlHvQzff//92rVrSQa3252QkDA0NEQP9vb2btq0SZwAoXolbtPv7u6Oj48fGBigRyh/tj4z9Hq9CQkJTqeTofX09MTGxvb29pIu4jvOycnJvLw8mkpV1DR9r1xVVcXmowEujT/ElNLAV/QP6qat0FRqraFQqLGxUR+66DUdHR212+1kR3W9YpJ6C4q1SNFqFCQrKysLCgp+/PFHtntiYqL41kOslhS6uFwuMqVeKdF85E/Eispz4Av2DJIF5wxdOjo6mJikHf8uLRiTfJFkU6kXIAjhSpE8BpdIzSdcQ9A0TRK1t7c3nCHU9LhEfW3xeDxWq9Xj8agNp/axTqdzw4YNvFbq1KlTRUVFExMTkrm512OHELmnIgHEmlNQUMDH7UgFKdqmotozJXplwz2+y+VKT09nH07JWltb7Xb77du36Z9utzslJeXGjRvqZvvI7kDdj3DP+Ej/L8JhvSIfBhDPcIMKDl2Gh4eTkpJ4+yWxPXfuHBt6zjGG1EJF8R7ZIh5pWXZNEbYIdTKFvdQPSk2eiel1J2g066JonmpvIDHEP6OBwLxDFxI6GAx+8803b7zxBq3y+s1vfkPjWnFoIqon1i36/ciRI+SbnE6ntFVmeHh4zZo1NAySXhxK2/QdDkdxcbE4OOb0YpWlEqW+kxKQl1fIEAqF6uvrV65cWVJS4na7efguajenz+I5SrE5UePh0OXHH38sKCig0IWaMTtrUdNgMLh3716TyeRwOGj0yaWLWvCPNIfj9/uvXLlSW1srhi48lBETU1liVyGWLvVq7De5g5SyCoVCo6OjTqeTVkmlp6fzYjl+1mAwFBUVXbp0icfWnInklWgUzu6bUPNoXqpvYherH3KJrPTVQ/8LvS2mqR5xoZFUmfUFcSWkW2KMRyMYikhv3LiRnp5us9mOHj06PDzMQRSjkJTl3yn88/l8XV1dWVlZekOIwQM9dePGjZSUlBMnTpCaFN1xhvweVFHTxDz1rO7cufPcc89VVlZKbUGCI9qLKbEYUgulox3Gx8clTfXJpDpDGZKQIhypeiQkJISrVyySJD9XYPYb4VqNgiRlTqs+RkZGmpqakpOTxdBFdB0idi49nPlEBanZ6tt7IBCYl2fQExBpS+JJfoMx6n8XawLdVfQC6lJEecQSpapIt7ghcMoIDUHp56THWenbO99Stzu1j6UJ6meeeeaDDz4YHR1lnymZm6sH1/nIPZUkgPSgvqBwbfOR1Z76pqKiInqpRPMPNInErDRNk0KX8+fPU+jyc7oDRXuXaiNJEqH/F8UWK6reSXJFVQ8qGL4UutDLVjF0ER0FZy6ON0TZ6FqUkH7Rt4g5+xe9OvS4ukWwAHMmk7DPWc3mfFBUVqq60i1RbEXzZDnn9AZ8FxfRQ2CBoQsrMDs729jYuGLFClpDJdVFTsatkX/h8Qdf8C2qbeR/1eMbaWkjLaem3lqsspSzVJBYinRL6gNmZ2e/+OIL3hvw61//Wtw2QJmLHkFfNDcnacHY6dOn6Z0cdd68HJwvOOqYnp4+c+YMBQNGo7G6upoCNlELkoQ2FMXGxmZlZTkcjh07dnAm4azzyNIl8+kLZdtJF19//bXVatX3TDMzM62trRaLpbOzU3qEWdHv5G4YCF+Q15Y0En2ffsgliq23kfgLLc81m82JiYn5+flVVVXr168XX0ny9ZzRBVdavQzSgNLv9//+97+n+H/16tX6jStSDoFAoKamJiYm5v78YXFx8b59+5KSknikwiTF2kg/su58wYmlYWW4mibmKbKifCTykex1YUosidgMFZqKyehZqc7Qj3pNJSEtFgtXJ74QRwNzGlfM1ul08oN8wc0tHMmRkZEtW7bExMSsX7/+/la0PXv2SC/7RRlE7JJf0nMTFZRqmqZpC/MMUg2UBkaSeFJdYgn1v0stV29TkbO6lDmtT0XrHxSznZchFPRYTT0rviWWyz+KWqt97LVr1/bt28fbIPv7+zkGEH2RVIqUp148sQ2KicVrfUGKtknrMubsqlhrTdNaHnxf4YcHf3a7ndZFiwnEBWM3b94sLCwsLS0NBoOkArc1voiwO+D0fDHng/Py/6LYYn0jW4htWayoikEFwxcXjNFql7S0NDrYRp25WJAo3pzBvFhnFJbVlxhJi5iX25HclyJ/SUEmJnkndphkBX39F+EovIGYDNdRQmB+oUtvb296erq0P0FceSV1SKykWLfox0WZdamsrKQX2FwQX+hbmthPcJ3mt6eKd36cZzAY/Oyzz9LT0/Vj8ch9lsfjeeaZZ6gTSk1NvXDhAr1FO3HihLgCmAuVLgKBQFtbm8Viod0Uot/RNI3WDVdWVvKWR7fbzWOpcNbRNE1dumQ+qVCSkJax/e53vxMFFldPib9zdyhu3KcEklcaGhpKSkqSqhxnJWkk+j69nxLF1lcP8ReXyxUTEyMGEiIB8XrO0S0PCEiGcLMurIWmaTdv3qyqquLNV3xL0qK+vt5qtX799deUgPSNJHThV2ukZrjX9lwuGUisaeoavuizLgpNpYas765IC9HcIi4a6qnrFXOQ+Et+Q91qOBOxzdJmgO3bt/NqHDVY8S6XHs58Yv2XQpcFewY9AbGFSuLpQxSGIFlNarmKee85x1tibqI8XBxd6MXjhjAvQ6jpcaH69s63HtnuJK+ir710BsDVq1d37tyZlpY2OjoqmZurBzsEKU+9KdlTSa+upQelghRtk/XVOxDx1o0bN9auXetyubq6unJycsS1BpQsEAi89dZbCQkJtE2/oqKC2ou62UqVShR7Xg/Oy/+Leon1jSwYLnThp/SDCoZPG8dTUlLoAIyNGzfyUmF15gtrEZqmKSwrlRhhi1AnU9hL/aCkIBPT9wWi2IrmqfYGbCxcRA+B+YUuZHtxwSidmrJq1Spa3yXVRdZTWnRLFYWGrfpVzi6Xi8dw6gXx586dIyfOBf3xj38sKyujScZ169aJjkPs7SQvr5CBVq+Jo0/R3XO5Efqs27dv5+TkfPHFFzzpzzl4PJ41a9aIn4P98MMPCwoKxsfHe3t7rVYruy3RI9PuDu6rvF6vzWajd3LU1TU2NkYSuihKl3o1CR3LT1LxnlT6nRbi79y5c2hoaM2aNbwhRNM0WiwnbsuhR7q7u3mnk6ZpNCbm1pQnmAAAHyBJREFUXe90BMrmzZspmJHqm0hGv7BV3KUgejQqV/zF6XRu2rSJB5dTU1MLWzCml4E8MqlTXV0t7nnQDyz0cZHD4dizZw/vMKHNG2x9toV+b4DL5Vq1atWca+6pMVI0rqhp+hourrT2PPikDy1mEFNKSon2UjdthaZSa13YXhd1vWKSeguKtUjRasKRpGomNoSOjo7IZ130WyZE84n1XwpdFuwZaN0/WZZdCu8sEm1N0CQ3yySl38WaoGmaZFNN08ReQF2K5DG4RGo+iYmJ4iYZbgjzMoSaHpeory0DAwPx8fHd3d1qwyl8LD0o+kket9F+APHtj1g59XlKjVGqIeL4T7zm10w8vaNum+G6KqZEi83Ky8v/67/+q6KigvaminfpVVpJSYm4FJwSqJutVKnE5jCvB+fl/0XJxYoqdiiUhg2nHlQw/KGhoaysLHG5NZelyFzTtIW1CKoP4foXqcQIW4Q6mcJe6geZJAFhYnrdRbEVzZOShXPLmqbdvXtXXxvZHLh48gTmF7oEg8Gqqio6Yez8+fNffvnl0aNHV69ezYcmSXWR9XE4HCtWrNi1a9fQ0NDIyMjevXvvr5egk5FoVpRPGPv444+TkpJ4BzBta966dSs9WFVVJZ4wNjk5+fzzzxcXFw8PD/PpZDSSE6ssiSH1nZSAEitkoFt09NadO3cuX75st9tramqk2CNCnxUMBg8cOGA0GmnC2mg0ZmRktLS0BB/87d27Nzs7+/Lly3yUVmVlJS083bhx4+7du+mUswsXLiQmJtKBV9SxFRQUXL9+/e7duzQyrqiooMOjDhw4kJKSEknoQmuU5yxd3wWK6NjEmqZ1dnbSCWOnT5/u6+s7ffp0bm6uyWTq6uqiE4QsFktzc/PIyMjXX39dXl7Op8yJmZBbb2ho4BPGPvroI7PZ3NbW5vf76USsDRs20JGjUn0T+6rQw8+nNjc3+3y+8+fP608YEyNbscLQW7fW1la/3+/xeOgMMbHn5mt9dCENCE6dOsUnDg0NDW3bto3Pq7h48aLFYmlsbLz14K+uro4PkGEgZNDf/va34+PjtELaarVeuHDB7/efP3/+V7/6VVxc3JyhS0JCwurVq9va2nw+H7UpPqLn4sWLfO4WNcbExEQKjMfHx8PVNH0Nj4uL4xPMsrOz+ZgsMaUkv2gvddOm939zakrxsN1u7+vrGxsba2hoCHfC2NmzZ1esWHHw4MGxsTGPxyOdMKaoV8xfXYsUrSYcSYo0CgsL6VDEd955Z+3atZGHLpqmKcxHOwc2bdr03XffBYPB+vp6m81G8eqCPQMJbLfbP/30U7fbXV5ebrPZFj10UXjgR8666D0Gm4+2RszZEOZlCDU9Lo6PMKJ2QSeMcbtQGE7tY0+dOkVHY01MTNy8ebOiooLzrK+vN5lMf/nLX3p7e9955520tDSTycQOQRzSPdJTiYnFa440xHoVzguFq/YiIrru6ekxmUwWi0V8W8fJ/v73vyclJfGyrtjY2JdeeonOEFc0W9G96COuyB+cl/9nmaWKKnYolIYH3OpBBcOfmpoqKSlhCHQ4e2dnZygUUmSuadrCWgTPuszpdaUSI2wR6mQKe6kfvHTpktlsfu+99+hUVSam110Sm7pjffNUe4Nr164lJyc/++yzk5OTorlx/QsSmF/oQmcZf/jhh3TgusFgSE5Orq2tvXfvHukg1UVWzOFwVFRUtLW12Ww2g8EgfbSETvQ3m81zftdlYGCAijObzfc/0vLRRx/xWFzTND74nITh729IVVa/koESsJdXyCAewR4fH//222/r429xuKYvmn2W3+/Pz89/7bXXPn3w19HRUV5evmLFClrsK37yRSqID8uX1NQ0bXBwkD63QuPp7u5u+gKAzWZraWnp7OxkXOGsQ2ZSlC66hnCzLpTJ3//+95deeokPoHvppZf4yKxAIPDuu+/SMe1GozE3N/err76SIkB6rXvy5EmqDBRa0Lw5KWUymbZt28bfwZA0EkMXWnV9+PBh+tbKli1bLl26VFBQQBbX20j8JRgMHjlyhB7My8vzeDwiAfH6kQMC+njL/S22/Jkd/s6D+F0XAsLTZdxwQqEQ0aAdXFNTU6+88gqtHygpKfF6vUVFRVyH+SmqjZ9++umuXbtoxUVVVZXodj0eT15envHBX2FhIduIJrXoC0JSTdPX8Pb2dnqVYDQad+3axWcEiSkl+SV7KZq2WtPR0dHt27eTatXV1RcvXkxLS6Od7gyBhlwtLS20lSg7O7u3t3fv3r0cdirqlZjJ9PR0uFpEwyP+TFOEbXZwcJAd2qFDh/r7+3lrkFgJSQYRJkulMB95Awot7n/Gir5hRe1owZ6BPQx54I6OjkUPXYjkoUOH5uwF9BDE91BcxwyG//slKAZFD4ZrCPMyhIIeF0fui74yrG/vtEIhXLuTvArVBGra4nddJAc4NTVVUVFBDbm0tHRgYIA/XaUPhxY868K9DNld3TYVXZUIij7woj8OntKcPHkyMzPz/sQsdZTNzc0pKSnkAxXNVnIvUncQ+YPz8v+iUmJF1bdlHgbQuIU/Fif5Da4J3377bWZm5uHDhwnCuXPntm/fTiZQZ77gFqGwrL7ECFuEIpnaXooHg8Hg4cOH6eAiqZ5LuktiS3VA/Myawhv4fL5nn312zmlA0fq4fpIE5h26LEw4bo0Le/ypecrtdkubaqhp8ZljT42mUOQXJCD2oL+gGCgaBH5ZAmgIvyx/RekUurS0tOjTUMghbejSn8Cpf/Ap+8XpdIoriuk1mXRO2nxVRouYLzGkj04CCF2eqF3oSPt33313YmIiFArR9yX5M5pPVBQU9vQSQP/09NoWms2DABrCPGA9qaTBYPBf//pXVVWVtE+Vy6d1jzk5Of/4xz+CweDMzAyt0+YvEXPKp/vC5XLFxcW1t7cHAoHZ2VlaK8iL8xemO1rEwrjhqWgjgNDliVokFAp99dVXubm5tN2FlvCKy3WeqDQo7CklgP7pKTUs1JofATSE+fF6Iqlp3ZrNZhO/qiSVfO/evZqamvj4ePq6cUZGxvvvv8/HZkqJn9Z/zs7OulyujIwMGi3Ex8fv37+f1xsvTGu0iIVxw1PRRuAJhS7RpjbkAQEQAAEQAAEQAAEQAAEQWFoEELosLXtBWhAAARAAARAAARAAARBYpgQQuixTw0NtEAABEAABEAABEAABEFhaBBC6LC17QVoQAAEQAAEQAAEQAAEQWKYEELosU8NDbRAAARAAARAAARAAARBYWgQQuiwte0FaEAABEAABEAABEAABEFimBBC6LFPDQ20QAAEQAAEQAAEQAAEQWFoEELosLXtBWhAAARAAARAAARAAARBYpgQQuixTw0NtEAABEAABEAABEAABEFhaBBC6LC17QVoQAAEQAAEQAAEQAAEQWKYEELosU8NDbRAAARAAARAAARAAARBYWgQQuiwte0FaEAABEAABEAABEAABEFimBBC6LFPDQ20QAAEQAAEQAAEQAAEQWFoEELosLXtBWhAAARAAARAAARAAARBYpgQQuixTw0NtEAABEAABEAABEAABEFhaBBC6LC17QVoQAAEQAAEQAAEQAAEQWKYEELosU8NDbRAAARAAARAAARAAARBYWgQQuiwte0FaEAABEAABEAABEAABEFimBBC6LFPDQ20QAAEQAAEQAAEQAAEQWFoEELosLXtBWhAAARAAARAAARAAARBYpgQQuixTw0NtEAABEAABEAABEAABEFhaBBC6LC17QVoQAAEQAAEQAAEQAAEQWKYEELosU8NDbRAAARAAARAAARAAARBYWgQQuiwte0FaEAABEAABEAABEAABEFimBBC6LFPDQ20QAAEQAAEQAAEQAAEQWFoEELosLXtBWhAAARAAARAAARAAARBYpgQQuixTw0NtEAABEAABEAABEAABEFhaBBC6LC17QVoQAAEQAAEQAAEQAAEQWKYEELosU8NDbRAAARAAARAAARAAARBYWgTmHbo4nU6j0eh0OkOhkKiq2+22WCxer1f88Wde37t3r7a2Njk52WAwGI3GrKysDz74YHp6+mdmu3wen5qaqqioMBqN69at8/v9CsW9Xq/FYnE6nYo0uAUCIAACIAACIAACIAACvyCBhYQuBoPBYrFcvnxZlHvRQ5fBwcH09PTVq1cfPXp0YGCgr6+vuro6Nja2pKRkampKLPoXvF50rRdXl+7ubrPZ/Mknn4yPj8/OzioyR+iigINbIAACIAACIAACIAAC0UBgIaHLqlWrbDZbYWGhGEIs7iB+amoqPz8/MzNzbGxMxNTZ2WkymaJncmBxtRY1XZRrp9P5yPkWKgihy6IARyYgAAIgAAIgAAIgAAKPj8BCQpd169a5XK5Vq1Y1NjbysjFpEB8IBA4dOmS1Wg0Gg9VqPX78OC/0unXr1v79+2NjYw0GQ2pqaltbm35CoKura8WKFS6XS9I8EAj85je/qaio+OmnnzRNk7JyuVycldPpLCoq+uabb7Zs2WI0Gs1m88mTJ3/66afjx49brVaj0Zibmzs8PEz5h0Kh7u7urKwso9FoMpmqqqomJyfpltfrTU9P/+qrr6qrq00mk9FoLCws9Pl8mqY5HA6D8Od2uzVNCwaDTU1NtMjNZDKVlZXdunWLspKknVNxKq6/v7+mpoaKKy0t5Rw0TfN4PKQRSXL16lVG5HA4Xn311Y6ODpvN9u677xYVFbF0FMDcunWrvLycyFut1qampmAwyGpiwRiTxAUIgAAIgAAIgAAIgEAUElhg6PLDDz/U1dWtWrXK4/GQVmLoEgwGS0tL09PTe3p6/H5/R0eH1Wo9cODA7IO/8vLy/Pz8a9euTU5Otra2xsTE6EOU6urqlJSUGzduKJBNTk7m5eXl5uZ6vV6fz9fc3BwTE9PU1ESPOJ3OuLi4rKwsl8t1/fr1iooKk8mUmZn52muvXblypa+vz263l5eXU6jT1dVlsVgaGxt9Pt/Q0NDWrVt37NgRCAQ0TfN6vYmJiTabraamZmRkhHR56623QqHQ3bt3z5w5Yzabv/zyS7/fPzMzo2ma0+m0Wq0dHR2BQGBwcDAnJ2fXrl3T09Ozs7ORKO71epOTkzMyMhoaGsbGxkhOFsbj8ZjN5jfffHNsbGxkZKSsrMxqtQ4ODpLKDofDYrFkZmY2NzdfvXp1YmKirq4uNTV1aGhofHx8amqqqKho69at3377bSAQaG9vj4uLO3XqFD1Lsy4UfSmY4xYIgAAIgAAIgAAIgAAI/FIEFhi6+P3+qampwsLCvLw8mqAQQ5fe3t7Y2Nienh7W6uzZswkJCV6vNxAIFBUVVVVV0XRNIBAoKyurra3llHThcDgeudKptbXVarVeuXKFHgmFQnV1dRkZGT/88AOFEHa7fXR0lO4ODw+vWbOmtraWp4mOHTtGRczMzOzcubO0tFScgkhMTOzt7eXQpaOjgyWsrKwsKCj48ccfNU0TtdY0LRAIFBcXV1RUcCmtra1USoSKe73ehIQE8RSEnp6e2NjY3t5ekvPFF1/k+SsK3vbt20fFORyOgoICni8iCIxxaGgoISHh/PnzpAjl5nA46J9+v3/dunUIXdjKuAABEAABEAABEAABEIg2AgsPXTRNu3z5ssViqampCYVC4iDe6XSmpaXRqipSmCKH1tbWUChUX1+/cuXKkpISt9st7pYR0UQSutBInUIIepZCJgo5aMEYzZxomkZDc3GTDO8DoVsnTpxgAcTEtIJLPDmNH9SHLpxDIBDw+/1Xrlypra2l4CFCxfXF3bhxIyUl5cSJEyTVsWPHuBRN06qrq3NyciYmJmgBG4cilEYUlX4JhUITExN+v7+vr6+wsJDT+/3+jIyM7u5uMXNcgwAIgAAIgAAIgAAIgED0EPhZoUsoFHI6nTExMRcvXpRCF37ZT6qKwcDs7OwXX3zBGzZ+/etfi3s5KH0kC8YcDkdRUREHJzRDYrFYaOpgvqELbwvhC4pz9LGEGA+IWpPk/f392dnZsbGxWVlZDodjx44djCISxfXFMTq+EGuPKIzjwV+4u7QJx2w2JyYm5ufnV1VVrV+/nkOXH3/88aWXXhIjNDEfXIMACIAACIAACIAACIDAL07gZ4UumqZNTU0VFxdv3Lixra2Nv+uimHURFQ4Gg5999ll6ejrvOeG7im36RUVFxcXFgUBgsWZdbt++bbfbW1tbuXTxQh9LiNGCFLqMjo6mpaVVVlbymi63282hC2erUFxf3GLNurhcrpiYmI6ODl7MJoY6oVBocnKSl8yxqLgAARAAARAAARAAARAAgSgh8HNDF03TBgYGrFbrmjVrOHTR73VxuVxms/nSpUu0cox3XNAyJ2nyRNM02sUR7nDklpYWTdOkvS6aptXX16elpdH+lshnXWZnZ19++WUxfJqcnHzhhRdoC7s+lhBDl+7ubtrDQ+b0er02m62/v5/+GQqFGhsbKXSJUHE6FUDcWkOHuXk8Hv1eFzpCmiUXQxESQBTV6XRu2rSJd8LQViWedUHoEiUNEmKAAAiAAAiAAAiAAAiEI7AIoQstGzMajRy6TE9P79q1i08Y+/jjj5OSkqqqqoLBIN2iY8Hu3Llz+fJlu91Ou2UkEcVPUn764E/6JOX4+PjGjRv5hLGWlpa4uDje4B556EInDq9evbqhocHn842NjR08eJADEnXoQgFJQ0MDnTBGsy4VFRV0AtiBAwdSUlIodIlQcdqmv3r16ra2Np/PR+jojDJN0y5evBgTE8MnjO3duzcxMXFgYIDQqUMXmnVpbW31+/0ej6ewsNBisXDocvr0aaPRWFlZKVkB/wQBEAABEAABEAABEACBKCGwCKELnay1Y8cODl3ol0OHDpnNZvV3XeLj499++21xv4rI5d69e7W1tfSNFKPRmJGR8f777/NaLPquy+uvv24ymegTMfrvunDO+o0i4oyEpmn9/f0bN240PvjLzc3lmRN16BIKhU6ePElq0h6b7u7u1NRUg8Fgs9laWlo6Ozt5wZj4XZdwilNxn3766a5du/QfmaEoKy8vj+QsLCyUvuvCoQhhFHUMBoNHjhyJjY01Go15eXkej0cMdXp7e+Pi4vhoadEKuAYBEAABEAABEAABEACBaCAw79AlGoR+imXQR0pPsbJQDQRAAARAAARAAARAAAQiJ4DQJXJWTyIlQpcnQRllgAAIgAAIgAAIgAAILEECCF2iy2gIXaLLHpAGBEAABEAABEAABEAgagggdIkaU0AQEAABEAABEAABEAABEACB8AQQuoRngzsgAAIgAAIgAAIgAAIgAAJRQwChS9SYAoKAAAiAAAiAAAiAAAiAAAiEJ4DQJTwb3AEBEAABEAABEAABEAABEIgaAghdosYUEAQEQAAEQAAEQAAEQAAEQCA8AYQu4dngDgiAAAiAAAiAAAiAAAiAQNQQQOgSNaaAICAAAiAAAiAAAiAAAiAAAuEJIHQJzwZ3QAAEQAAEQAAEQAAEQAAEooYAQpeoMQUEAQEQAAEQAAEQAAEQAAEQCE8AoUt4NrgDAiAAAiAAAiAAAiAAAiAQNQQQukSNKSAICIAACIAACIAACIAACIBAeAIIXcKzwR0QAAEQAAEQAAEQAAEQAIGoIYDQJWpMAUFAAARAAARAAARAAARAAATCE0DoEp4N7oAACIAACIAACIAACIAACEQNAYQuUWMKCAICIAACIAACIAACIAACIBCeAEKX8GxwBwRAAARAAARAAARAAARAIGoIIHSJGlNAEBAAARAAARAAARAAARAAgfAEELqEZ4M7IAACIAACIAACIAACIAACUUMAoUvUmAKCgAAIgAAIgAAIgAAIgAAIhCeA0CU8G9wBARAAARAAARAAARAAARCIGgIIXaLGFBAEBEAABEAABEAABEAABEAgPAGELuHZ4A4IgAAIgAAIgAAIgAAIgEDUEEDoEjWmgCAgAAIgAAIgAAIgAAIgAALhCSB0Cc8Gd0AABEAABEAABEAABEAABKKGAEKXqDEFBAEBEAABEAABEAABEAABEAhPAKFLeDa4AwIgAAIgAAIgAAIgAAIgEDUEELpEjSkgCAiAAAiAAAiAAAiAAAiAQHgCCF3Cs8EdEAABEAABEAABEAABEACBqCGA0CVqTAFBQAAEQAAEQAAEQAAEQAAEwhNA6BKeDe6AAAiAAAiAAAiAAAiAAAhEDYHHG7o4nc6ioqJAIBC5vo4Hf5Gnf6wpvV5venq61+uNpBS/379u3Tq32x1JYqQBARAAARAAARAAARAAARCYF4F5hy40QDc8+HM4HOrCnqbQxeFwqMMwhC7qyoC7IAACIAACIAACIAACIPBzCMwvdKHRudPppCKrq6vVMxIIXX6ObfAsCIAACIAACIAACIAACIAAE5hf6DKvBVSapj1NoQsjC3eBWZdwZPA7CIAACIAACIAACIAACPx8AvMLXWh0Puc6MafTSavIDAYD7/fg0EUa1kshkMPh4BVo4l4XeopuWSwWnuHxer0Wi4Uf0VPgDNetW+f3+zVNCwQCRUVFegndbndRUVFdXZ3BYKD1YJy5xWI5deoU73VhXTRNEwXjVWSSjm63m4vjeao5H9TLj19AAARAAARAAARAAARAAAQkAvMLXTRN45G9GMC43W7+p9Pp5ICBh/vSsF4MXaT0BoOBsqJHeNDvdDopeqEghH+X9KGpHhbA7XY7nU56hCWkoILiK7rmW2KhdM0hE+sSCAT27NlDcZQ+PWfLD1Ia+l0MzPSS4xcQAAEQAAEQAAEQAAEQAIFwBOYdulBGNOLn0bmYu9fr3bRpE8118HBfHL5T/EOzGfo4hAf3brebIxCeNuE4hOc6xKLFZOLvYqREv4crRSpUfJB1EXPWNM3hcFAcJerI+VNip9NJ0ZHD4RCVkrLCP0EABEAABEAABEAABEAABMIRWGDowkECjcil5Vg8Oufhvjis14cuvMCMIgHKk59l0TlI4OK4IE4jFUS/SwEJzcxQKdItWj/GpzmHC13ExWAGg2HO0IVXi0kL22gx25xRH2uBCxAAARAAARAAARAAARAAAYnAwkMXcRe+eHDw4551ERXQhzf6aRwxUuJneVZEH7qI4dCcoQstmeNwiwMqMWri/LlE6UIqV7qLf4IACIAACIAACIAACIAACEgE5he68MIn3qpOEw7iSF1cE8WhBUUUNNFBQ3yedoh8r4sYVJAanL+olZhhuL0uXLoUQpBs4iwKp+SyxHiGwhgxvX6viygbX3O5Ihm+iwsQAAEQAAEQAAEQAAEQAAGJwPxCF1rQxUuhaMjOYQz9furUqaKiImmvi7i/Xzq5S8yTZjAowhEfMRgMHLdQdEFlcVwhaaU/YSzcUxxCcA58DoHFYnG73Zs2baId+Ry60HQTCUCnk+lDF03T9IvKeJ0bPUtBDkIXJo8LEAABEAABEAABEAABEFAQmHfoosgLtxZAQFxft4DH8QgIgAAIgAAIgAAIgAAILBMCCF1+YUM7HA7eNvMLi4LiQQAEQAAEQAAEQAAEQCCKCSB0iWLjQDQQAAEQAAEQAAEQAAEQAIGHBBC6PCSB/4MACIAACIAACIAACIAACEQxAYQuUWwciAYCIAACIAACIAACIAACIPCQAEKXhyTwfxAAARAAARAAARAAARAAgSgmgNAlio0D0UAABEAABEAABEAABEAABB4SQOjykAT+DwIgAAIgAAIgAAIgAAIgEMUEELpEsXEgGgiAAAiAAAiAAAiAAAiAwEMCCF0eksD/QQAEQAAEQAAEQAAEQAAEopgAQpcoNg5EAwEQAAEQAAEQAAEQAAEQeEgAoctDEvg/CIAACIAACIAACIAACIBAFBNA6BLFxoFoIAACIAACIAACIAACIAACDwkgdHlIAv8HARAAARAAARAAARAAARCIYgIIXaLYOBANBEAABEAABEAABEAABEDgIQGELg9J4P8gAAIgAAIgAAIgAAIgAAJRTAChSxQbB6KBAAiAAAiAAAiAAAiAAAg8JIDQ5SEJ/B8EQAAEQAAEQAAEQAAEQCCKCSB0iWLjQDQQAAEQAAEQAAEQAAEQAIGHBBC6PCSB/4MACIAACIAACIAACIAACEQxAYQuUWwciAYCIAACIAACIAACIAACIPCQAEKXhyTwfxAAARAAARAAARAAARAAgSgmgNAlio0D0UAABEAABEAABEAABEAABB4SQOjykAT+DwIgAAIgAAIgAAIgAAIgEMUEELpEsXEgGgiAAAiAAAiAAAiAAAiAwEMCCF0eksD/QQAEQAAEQAAEQAAEQAAEopgAQpcoNg5EAwEQAAEQAAEQAAEQAAEQeEgAoctDEvg/CIAACIAACIAACIAACIBAFBNA6BLFxoFoIAACIAACIAACIAACIAACDwkgdHlIAv8HARAAARAAARAAARAAARCIYgIIXaLYOBANBEAABEAABEAABEAABEDgIQGELg9J4P8gAAIgAAIgAAIgAAIgAAJRTAChSxQbB6KBAAiAAAiAAAiAAAiAAAg8JDC/0OXmzZupqak3b958+Pg8/r99+/aDBw/+7W9/i42NjTCHjz766P97+Hfw4MEIC/vb3/725z//OcLEi5vs3r17qampJPJ//Md/RKjm4sqA3EAABEAABEAABEAABEDgqSTwfwAO9nxFUmhf4wAAAABJRU5ErkJggg==;" parent="1" vertex="1">
          <mxGeometry x="25" y="795" width="869.47" height="261" as="geometry" />
        </mxCell>
        <mxCell id="VUkKsYSUKkYah6STu2GY-8" style="edgeStyle=orthogonalEdgeStyle;rounded=0;orthogonalLoop=1;jettySize=auto;html=1;exitX=1;exitY=0.5;exitDx=0;exitDy=0;entryX=0;entryY=0.75;entryDx=0;entryDy=0;entryPerimeter=0;" edge="1" parent="1" source="VUkKsYSUKkYah6STu2GY-3" target="VUkKsYSUKkYah6STu2GY-1">
          <mxGeometry relative="1" as="geometry" />
        </mxCell>
      </root>
    </mxGraphModel>
  </diagram>
</mxfile>
